ISO-10303-21;
HEADER;
/* Generated by software containing ST-Developer
 * from STEP Tools, Inc. (www.steptools.com) 
 */

FILE_DESCRIPTION(
/* description */ (''),
/* implementation_level */ '2;1');

FILE_NAME(
/* name */ 'Alarm Case Front.step',
/* time_stamp */ '2026-07-07T17:00:23+02:00',
/* author */ (''),
/* organization */ (''),
/* preprocessor_version */ 'ST-DEVELOPER v20.1',
/* originating_system */ 'Autodesk Translation Framework v15.8.0.0',
/* authorisation */ '');

FILE_SCHEMA (('AUTOMOTIVE_DESIGN { 1 0 10303 214 3 1 1 }'));
ENDSEC;

DATA;
#10=MECHANICAL_DESIGN_GEOMETRIC_PRESENTATION_REPRESENTATION('',(#13),#1847);
#11=SHAPE_REPRESENTATION_RELATIONSHIP('SRR','None',#1854,#12);
#12=ADVANCED_BREP_SHAPE_REPRESENTATION('',(#14),#1846);
#13=STYLED_ITEM('',(#1863),#14);
#14=MANIFOLD_SOLID_BREP('K\X\F6rper1',#1111);
#15=FACE_BOUND('',#182,.T.);
#16=FACE_BOUND('',#198,.T.);
#17=FACE_BOUND('',#201,.T.);
#18=FACE_BOUND('',#204,.T.);
#19=FACE_BOUND('',#207,.T.);
#20=FACE_BOUND('',#209,.T.);
#21=FACE_BOUND('',#215,.T.);
#22=FACE_BOUND('',#216,.T.);
#23=FACE_BOUND('',#217,.T.);
#24=FACE_BOUND('',#218,.T.);
#25=FACE_BOUND('',#219,.T.);
#26=FACE_BOUND('',#220,.T.);
#27=FACE_BOUND('',#221,.T.);
#28=FACE_BOUND('',#222,.T.);
#29=FACE_BOUND('',#223,.T.);
#30=FACE_BOUND('',#226,.T.);
#31=CYLINDRICAL_SURFACE('',#1147,0.8115);
#32=CYLINDRICAL_SURFACE('',#1151,0.8115);
#33=CYLINDRICAL_SURFACE('',#1155,0.8115);
#34=CYLINDRICAL_SURFACE('',#1159,0.8115);
#35=CYLINDRICAL_SURFACE('',#1165,2.);
#36=CYLINDRICAL_SURFACE('',#1173,2.);
#37=CYLINDRICAL_SURFACE('',#1176,2.);
#38=CYLINDRICAL_SURFACE('',#1180,2.);
#39=CYLINDRICAL_SURFACE('',#1184,2.);
#40=CYLINDRICAL_SURFACE('',#1187,2.);
#41=CYLINDRICAL_SURFACE('',#1191,2.);
#42=CYLINDRICAL_SURFACE('',#1195,2.);
#43=CYLINDRICAL_SURFACE('',#1197,2.25);
#44=CYLINDRICAL_SURFACE('',#1201,2.25);
#45=CYLINDRICAL_SURFACE('',#1205,2.25);
#46=CYLINDRICAL_SURFACE('',#1209,2.25);
#47=CIRCLE('',#1146,0.8115);
#48=CIRCLE('',#1148,0.8115);
#49=CIRCLE('',#1150,0.8115);
#50=CIRCLE('',#1152,0.8115);
#51=CIRCLE('',#1154,0.8115);
#52=CIRCLE('',#1156,0.8115);
#53=CIRCLE('',#1158,0.8115);
#54=CIRCLE('',#1160,0.8115);
#55=CIRCLE('',#1166,2.);
#56=CIRCLE('',#1167,2.);
#57=CIRCLE('',#1170,2.);
#58=CIRCLE('',#1171,2.);
#59=CIRCLE('',#1172,2.);
#60=CIRCLE('',#1174,2.);
#61=CIRCLE('',#1177,2.);
#62=CIRCLE('',#1178,2.);
#63=CIRCLE('',#1181,2.);
#64=CIRCLE('',#1182,2.);
#65=CIRCLE('',#1185,2.);
#66=CIRCLE('',#1188,2.);
#67=CIRCLE('',#1189,2.);
#68=CIRCLE('',#1192,2.);
#69=CIRCLE('',#1193,2.);
#70=CIRCLE('',#1196,2.);
#71=CIRCLE('',#1198,2.25);
#72=CIRCLE('',#1199,2.25);
#73=CIRCLE('',#1202,2.25);
#74=CIRCLE('',#1203,2.25);
#75=CIRCLE('',#1206,2.25);
#76=CIRCLE('',#1207,2.25);
#77=CIRCLE('',#1210,2.25);
#78=CIRCLE('',#1211,2.25);
#79=CONICAL_SURFACE('',#1145,0.40575,1.02974425867665);
#80=CONICAL_SURFACE('',#1149,0.40575,1.02974425867665);
#81=CONICAL_SURFACE('',#1153,0.40575,1.02974425867665);
#82=CONICAL_SURFACE('',#1157,0.40575,1.02974425867665);
#83=FACE_OUTER_BOUND('',#147,.T.);
#84=FACE_OUTER_BOUND('',#148,.T.);
#85=FACE_OUTER_BOUND('',#149,.T.);
#86=FACE_OUTER_BOUND('',#150,.T.);
#87=FACE_OUTER_BOUND('',#151,.T.);
#88=FACE_OUTER_BOUND('',#152,.T.);
#89=FACE_OUTER_BOUND('',#153,.T.);
#90=FACE_OUTER_BOUND('',#154,.T.);
#91=FACE_OUTER_BOUND('',#155,.T.);
#92=FACE_OUTER_BOUND('',#156,.T.);
#93=FACE_OUTER_BOUND('',#157,.T.);
#94=FACE_OUTER_BOUND('',#158,.T.);
#95=FACE_OUTER_BOUND('',#159,.T.);
#96=FACE_OUTER_BOUND('',#160,.T.);
#97=FACE_OUTER_BOUND('',#161,.T.);
#98=FACE_OUTER_BOUND('',#162,.T.);
#99=FACE_OUTER_BOUND('',#163,.T.);
#100=FACE_OUTER_BOUND('',#164,.T.);
#101=FACE_OUTER_BOUND('',#165,.T.);
#102=FACE_OUTER_BOUND('',#166,.T.);
#103=FACE_OUTER_BOUND('',#167,.T.);
#104=FACE_OUTER_BOUND('',#168,.T.);
#105=FACE_OUTER_BOUND('',#169,.T.);
#106=FACE_OUTER_BOUND('',#170,.T.);
#107=FACE_OUTER_BOUND('',#171,.T.);
#108=FACE_OUTER_BOUND('',#172,.T.);
#109=FACE_OUTER_BOUND('',#173,.T.);
#110=FACE_OUTER_BOUND('',#174,.T.);
#111=FACE_OUTER_BOUND('',#175,.T.);
#112=FACE_OUTER_BOUND('',#176,.T.);
#113=FACE_OUTER_BOUND('',#177,.T.);
#114=FACE_OUTER_BOUND('',#178,.T.);
#115=FACE_OUTER_BOUND('',#179,.T.);
#116=FACE_OUTER_BOUND('',#180,.T.);
#117=FACE_OUTER_BOUND('',#181,.T.);
#118=FACE_OUTER_BOUND('',#183,.T.);
#119=FACE_OUTER_BOUND('',#184,.T.);
#120=FACE_OUTER_BOUND('',#185,.T.);
#121=FACE_OUTER_BOUND('',#186,.T.);
#122=FACE_OUTER_BOUND('',#187,.T.);
#123=FACE_OUTER_BOUND('',#188,.T.);
#124=FACE_OUTER_BOUND('',#189,.T.);
#125=FACE_OUTER_BOUND('',#190,.T.);
#126=FACE_OUTER_BOUND('',#191,.T.);
#127=FACE_OUTER_BOUND('',#192,.T.);
#128=FACE_OUTER_BOUND('',#193,.T.);
#129=FACE_OUTER_BOUND('',#194,.T.);
#130=FACE_OUTER_BOUND('',#195,.T.);
#131=FACE_OUTER_BOUND('',#196,.T.);
#132=FACE_OUTER_BOUND('',#197,.T.);
#133=FACE_OUTER_BOUND('',#199,.T.);
#134=FACE_OUTER_BOUND('',#200,.T.);
#135=FACE_OUTER_BOUND('',#202,.T.);
#136=FACE_OUTER_BOUND('',#203,.T.);
#137=FACE_OUTER_BOUND('',#205,.T.);
#138=FACE_OUTER_BOUND('',#206,.T.);
#139=FACE_OUTER_BOUND('',#208,.T.);
#140=FACE_OUTER_BOUND('',#210,.T.);
#141=FACE_OUTER_BOUND('',#211,.T.);
#142=FACE_OUTER_BOUND('',#212,.T.);
#143=FACE_OUTER_BOUND('',#213,.T.);
#144=FACE_OUTER_BOUND('',#214,.T.);
#145=FACE_OUTER_BOUND('',#224,.T.);
#146=FACE_OUTER_BOUND('',#225,.T.);
#147=EDGE_LOOP('',(#707,#708,#709,#710));
#148=EDGE_LOOP('',(#711,#712,#713,#714));
#149=EDGE_LOOP('',(#715,#716,#717,#718));
#150=EDGE_LOOP('',(#719,#720,#721,#722));
#151=EDGE_LOOP('',(#723,#724,#725,#726));
#152=EDGE_LOOP('',(#727,#728,#729,#730));
#153=EDGE_LOOP('',(#731,#732,#733,#734));
#154=EDGE_LOOP('',(#735,#736,#737,#738));
#155=EDGE_LOOP('',(#739,#740,#741,#742));
#156=EDGE_LOOP('',(#743,#744,#745,#746));
#157=EDGE_LOOP('',(#747,#748,#749,#750));
#158=EDGE_LOOP('',(#751,#752,#753,#754));
#159=EDGE_LOOP('',(#755,#756,#757,#758));
#160=EDGE_LOOP('',(#759,#760,#761,#762));
#161=EDGE_LOOP('',(#763,#764,#765,#766));
#162=EDGE_LOOP('',(#767,#768,#769,#770));
#163=EDGE_LOOP('',(#771,#772,#773,#774));
#164=EDGE_LOOP('',(#775,#776,#777,#778));
#165=EDGE_LOOP('',(#779,#780,#781,#782));
#166=EDGE_LOOP('',(#783,#784,#785,#786));
#167=EDGE_LOOP('',(#787,#788,#789));
#168=EDGE_LOOP('',(#790,#791,#792,#793));
#169=EDGE_LOOP('',(#794,#795,#796));
#170=EDGE_LOOP('',(#797,#798,#799,#800));
#171=EDGE_LOOP('',(#801,#802,#803));
#172=EDGE_LOOP('',(#804,#805,#806,#807));
#173=EDGE_LOOP('',(#808,#809,#810));
#174=EDGE_LOOP('',(#811,#812,#813,#814));
#175=EDGE_LOOP('',(#815,#816,#817,#818));
#176=EDGE_LOOP('',(#819,#820,#821,#822));
#177=EDGE_LOOP('',(#823,#824,#825,#826));
#178=EDGE_LOOP('',(#827,#828,#829,#830));
#179=EDGE_LOOP('',(#831,#832,#833,#834));
#180=EDGE_LOOP('',(#835,#836,#837,#838));
#181=EDGE_LOOP('',(#839,#840,#841,#842,#843,#844,#845,#846));
#182=EDGE_LOOP('',(#847,#848,#849,#850));
#183=EDGE_LOOP('',(#851,#852,#853,#854));
#184=EDGE_LOOP('',(#855,#856,#857,#858));
#185=EDGE_LOOP('',(#859,#860,#861,#862));
#186=EDGE_LOOP('',(#863,#864,#865,#866));
#187=EDGE_LOOP('',(#867,#868,#869,#870));
#188=EDGE_LOOP('',(#871,#872,#873,#874));
#189=EDGE_LOOP('',(#875,#876,#877,#878));
#190=EDGE_LOOP('',(#879,#880,#881,#882));
#191=EDGE_LOOP('',(#883,#884,#885,#886));
#192=EDGE_LOOP('',(#887,#888,#889,#890));
#193=EDGE_LOOP('',(#891,#892,#893,#894));
#194=EDGE_LOOP('',(#895,#896,#897,#898));
#195=EDGE_LOOP('',(#899,#900,#901,#902));
#196=EDGE_LOOP('',(#903,#904,#905,#906));
#197=EDGE_LOOP('',(#907));
#198=EDGE_LOOP('',(#908));
#199=EDGE_LOOP('',(#909,#910,#911,#912));
#200=EDGE_LOOP('',(#913));
#201=EDGE_LOOP('',(#914));
#202=EDGE_LOOP('',(#915,#916,#917,#918));
#203=EDGE_LOOP('',(#919));
#204=EDGE_LOOP('',(#920));
#205=EDGE_LOOP('',(#921,#922,#923,#924));
#206=EDGE_LOOP('',(#925));
#207=EDGE_LOOP('',(#926));
#208=EDGE_LOOP('',(#927,#928,#929,#930,#931,#932,#933,#934));
#209=EDGE_LOOP('',(#935,#936,#937,#938));
#210=EDGE_LOOP('',(#939,#940,#941,#942));
#211=EDGE_LOOP('',(#943,#944,#945,#946));
#212=EDGE_LOOP('',(#947,#948,#949,#950));
#213=EDGE_LOOP('',(#951,#952,#953,#954));
#214=EDGE_LOOP('',(#955,#956,#957,#958));
#215=EDGE_LOOP('',(#959,#960,#961,#962));
#216=EDGE_LOOP('',(#963,#964,#965,#966));
#217=EDGE_LOOP('',(#967,#968,#969,#970));
#218=EDGE_LOOP('',(#971,#972,#973,#974));
#219=EDGE_LOOP('',(#975));
#220=EDGE_LOOP('',(#976));
#221=EDGE_LOOP('',(#977));
#222=EDGE_LOOP('',(#978));
#223=EDGE_LOOP('',(#979,#980,#981,#982));
#224=EDGE_LOOP('',(#983,#984,#985,#986));
#225=EDGE_LOOP('',(#987,#988,#989,#990,#991,#992,#993,#994));
#226=EDGE_LOOP('',(#995,#996,#997,#998,#999,#1000,#1001,#1002));
#227=LINE('',#1535,#343);
#228=LINE('',#1537,#344);
#229=LINE('',#1539,#345);
#230=LINE('',#1540,#346);
#231=LINE('',#1543,#347);
#232=LINE('',#1545,#348);
#233=LINE('',#1546,#349);
#234=LINE('',#1549,#350);
#235=LINE('',#1551,#351);
#236=LINE('',#1552,#352);
#237=LINE('',#1554,#353);
#238=LINE('',#1555,#354);
#239=LINE('',#1560,#355);
#240=LINE('',#1562,#356);
#241=LINE('',#1564,#357);
#242=LINE('',#1565,#358);
#243=LINE('',#1568,#359);
#244=LINE('',#1570,#360);
#245=LINE('',#1571,#361);
#246=LINE('',#1574,#362);
#247=LINE('',#1576,#363);
#248=LINE('',#1577,#364);
#249=LINE('',#1579,#365);
#250=LINE('',#1580,#366);
#251=LINE('',#1585,#367);
#252=LINE('',#1587,#368);
#253=LINE('',#1589,#369);
#254=LINE('',#1590,#370);
#255=LINE('',#1593,#371);
#256=LINE('',#1595,#372);
#257=LINE('',#1596,#373);
#258=LINE('',#1599,#374);
#259=LINE('',#1601,#375);
#260=LINE('',#1602,#376);
#261=LINE('',#1604,#377);
#262=LINE('',#1605,#378);
#263=LINE('',#1610,#379);
#264=LINE('',#1612,#380);
#265=LINE('',#1614,#381);
#266=LINE('',#1615,#382);
#267=LINE('',#1618,#383);
#268=LINE('',#1620,#384);
#269=LINE('',#1621,#385);
#270=LINE('',#1624,#386);
#271=LINE('',#1626,#387);
#272=LINE('',#1627,#388);
#273=LINE('',#1629,#389);
#274=LINE('',#1630,#390);
#275=LINE('',#1636,#391);
#276=LINE('',#1640,#392);
#277=LINE('',#1645,#393);
#278=LINE('',#1649,#394);
#279=LINE('',#1654,#395);
#280=LINE('',#1658,#396);
#281=LINE('',#1663,#397);
#282=LINE('',#1667,#398);
#283=LINE('',#1671,#399);
#284=LINE('',#1673,#400);
#285=LINE('',#1675,#401);
#286=LINE('',#1676,#402);
#287=LINE('',#1679,#403);
#288=LINE('',#1681,#404);
#289=LINE('',#1682,#405);
#290=LINE('',#1685,#406);
#291=LINE('',#1687,#407);
#292=LINE('',#1688,#408);
#293=LINE('',#1690,#409);
#294=LINE('',#1691,#410);
#295=LINE('',#1697,#411);
#296=LINE('',#1700,#412);
#297=LINE('',#1703,#413);
#298=LINE('',#1705,#414);
#299=LINE('',#1706,#415);
#300=LINE('',#1709,#416);
#301=LINE('',#1713,#417);
#302=LINE('',#1717,#418);
#303=LINE('',#1722,#419);
#304=LINE('',#1725,#420);
#305=LINE('',#1726,#421);
#306=LINE('',#1732,#422);
#307=LINE('',#1735,#423);
#308=LINE('',#1738,#424);
#309=LINE('',#1740,#425);
#310=LINE('',#1741,#426);
#311=LINE('',#1747,#427);
#312=LINE('',#1750,#428);
#313=LINE('',#1752,#429);
#314=LINE('',#1753,#430);
#315=LINE('',#1758,#431);
#316=LINE('',#1759,#432);
#317=LINE('',#1761,#433);
#318=LINE('',#1767,#434);
#319=LINE('',#1770,#435);
#320=LINE('',#1772,#436);
#321=LINE('',#1773,#437);
#322=LINE('',#1779,#438);
#323=LINE('',#1781,#439);
#324=LINE('',#1782,#440);
#325=LINE('',#1786,#441);
#326=LINE('',#1791,#442);
#327=LINE('',#1798,#443);
#328=LINE('',#1805,#444);
#329=LINE('',#1812,#445);
#330=LINE('',#1818,#446);
#331=LINE('',#1820,#447);
#332=LINE('',#1822,#448);
#333=LINE('',#1823,#449);
#334=LINE('',#1826,#450);
#335=LINE('',#1828,#451);
#336=LINE('',#1829,#452);
#337=LINE('',#1832,#453);
#338=LINE('',#1833,#454);
#339=LINE('',#1836,#455);
#340=LINE('',#1837,#456);
#341=LINE('',#1839,#457);
#342=LINE('',#1842,#458);
#343=VECTOR('',#1225,10.);
#344=VECTOR('',#1226,10.);
#345=VECTOR('',#1227,10.);
#346=VECTOR('',#1228,10.);
#347=VECTOR('',#1231,10.);
#348=VECTOR('',#1232,10.);
#349=VECTOR('',#1233,10.);
#350=VECTOR('',#1236,10.);
#351=VECTOR('',#1237,10.);
#352=VECTOR('',#1238,10.);
#353=VECTOR('',#1241,10.);
#354=VECTOR('',#1242,10.);
#355=VECTOR('',#1247,10.);
#356=VECTOR('',#1248,10.);
#357=VECTOR('',#1249,10.);
#358=VECTOR('',#1250,10.);
#359=VECTOR('',#1253,10.);
#360=VECTOR('',#1254,10.);
#361=VECTOR('',#1255,10.);
#362=VECTOR('',#1258,10.);
#363=VECTOR('',#1259,10.);
#364=VECTOR('',#1260,10.);
#365=VECTOR('',#1263,10.);
#366=VECTOR('',#1264,10.);
#367=VECTOR('',#1269,10.);
#368=VECTOR('',#1270,10.);
#369=VECTOR('',#1271,10.);
#370=VECTOR('',#1272,10.);
#371=VECTOR('',#1275,10.);
#372=VECTOR('',#1276,10.);
#373=VECTOR('',#1277,10.);
#374=VECTOR('',#1280,10.);
#375=VECTOR('',#1281,10.);
#376=VECTOR('',#1282,10.);
#377=VECTOR('',#1285,10.);
#378=VECTOR('',#1286,10.);
#379=VECTOR('',#1291,10.);
#380=VECTOR('',#1292,10.);
#381=VECTOR('',#1293,10.);
#382=VECTOR('',#1294,10.);
#383=VECTOR('',#1297,10.);
#384=VECTOR('',#1298,10.);
#385=VECTOR('',#1299,10.);
#386=VECTOR('',#1302,10.);
#387=VECTOR('',#1303,10.);
#388=VECTOR('',#1304,10.);
#389=VECTOR('',#1307,10.);
#390=VECTOR('',#1308,10.);
#391=VECTOR('',#1315,0.40575);
#392=VECTOR('',#1320,0.8115);
#393=VECTOR('',#1325,0.40575);
#394=VECTOR('',#1330,0.8115);
#395=VECTOR('',#1335,0.40575);
#396=VECTOR('',#1340,0.8115);
#397=VECTOR('',#1345,0.40575);
#398=VECTOR('',#1350,0.8115);
#399=VECTOR('',#1353,10.);
#400=VECTOR('',#1354,10.);
#401=VECTOR('',#1355,10.);
#402=VECTOR('',#1356,10.);
#403=VECTOR('',#1359,10.);
#404=VECTOR('',#1360,10.);
#405=VECTOR('',#1361,10.);
#406=VECTOR('',#1364,10.);
#407=VECTOR('',#1365,10.);
#408=VECTOR('',#1366,10.);
#409=VECTOR('',#1369,10.);
#410=VECTOR('',#1370,10.);
#411=VECTOR('',#1375,10.);
#412=VECTOR('',#1378,10.);
#413=VECTOR('',#1381,10.);
#414=VECTOR('',#1382,10.);
#415=VECTOR('',#1383,10.);
#416=VECTOR('',#1386,10.);
#417=VECTOR('',#1389,10.);
#418=VECTOR('',#1392,10.);
#419=VECTOR('',#1399,10.);
#420=VECTOR('',#1402,10.);
#421=VECTOR('',#1403,10.);
#422=VECTOR('',#1408,10.);
#423=VECTOR('',#1411,10.);
#424=VECTOR('',#1414,10.);
#425=VECTOR('',#1415,10.);
#426=VECTOR('',#1416,10.);
#427=VECTOR('',#1423,10.);
#428=VECTOR('',#1426,10.);
#429=VECTOR('',#1427,10.);
#430=VECTOR('',#1428,10.);
#431=VECTOR('',#1433,10.);
#432=VECTOR('',#1434,10.);
#433=VECTOR('',#1437,10.);
#434=VECTOR('',#1442,10.);
#435=VECTOR('',#1445,10.);
#436=VECTOR('',#1448,10.);
#437=VECTOR('',#1449,10.);
#438=VECTOR('',#1456,10.);
#439=VECTOR('',#1459,10.);
#440=VECTOR('',#1460,10.);
#441=VECTOR('',#1465,10.);
#442=VECTOR('',#1470,2.25);
#443=VECTOR('',#1479,2.25);
#444=VECTOR('',#1488,2.25);
#445=VECTOR('',#1497,2.25);
#446=VECTOR('',#1504,10.);
#447=VECTOR('',#1505,10.);
#448=VECTOR('',#1506,10.);
#449=VECTOR('',#1507,10.);
#450=VECTOR('',#1510,10.);
#451=VECTOR('',#1511,10.);
#452=VECTOR('',#1512,10.);
#453=VECTOR('',#1515,10.);
#454=VECTOR('',#1516,10.);
#455=VECTOR('',#1519,10.);
#456=VECTOR('',#1520,10.);
#457=VECTOR('',#1523,10.);
#458=VECTOR('',#1528,10.);
#459=VERTEX_POINT('',#1533);
#460=VERTEX_POINT('',#1534);
#461=VERTEX_POINT('',#1536);
#462=VERTEX_POINT('',#1538);
#463=VERTEX_POINT('',#1542);
#464=VERTEX_POINT('',#1544);
#465=VERTEX_POINT('',#1548);
#466=VERTEX_POINT('',#1550);
#467=VERTEX_POINT('',#1558);
#468=VERTEX_POINT('',#1559);
#469=VERTEX_POINT('',#1561);
#470=VERTEX_POINT('',#1563);
#471=VERTEX_POINT('',#1567);
#472=VERTEX_POINT('',#1569);
#473=VERTEX_POINT('',#1573);
#474=VERTEX_POINT('',#1575);
#475=VERTEX_POINT('',#1583);
#476=VERTEX_POINT('',#1584);
#477=VERTEX_POINT('',#1586);
#478=VERTEX_POINT('',#1588);
#479=VERTEX_POINT('',#1592);
#480=VERTEX_POINT('',#1594);
#481=VERTEX_POINT('',#1598);
#482=VERTEX_POINT('',#1600);
#483=VERTEX_POINT('',#1608);
#484=VERTEX_POINT('',#1609);
#485=VERTEX_POINT('',#1611);
#486=VERTEX_POINT('',#1613);
#487=VERTEX_POINT('',#1617);
#488=VERTEX_POINT('',#1619);
#489=VERTEX_POINT('',#1623);
#490=VERTEX_POINT('',#1625);
#491=VERTEX_POINT('',#1633);
#492=VERTEX_POINT('',#1635);
#493=VERTEX_POINT('',#1638);
#494=VERTEX_POINT('',#1642);
#495=VERTEX_POINT('',#1644);
#496=VERTEX_POINT('',#1647);
#497=VERTEX_POINT('',#1651);
#498=VERTEX_POINT('',#1653);
#499=VERTEX_POINT('',#1656);
#500=VERTEX_POINT('',#1660);
#501=VERTEX_POINT('',#1662);
#502=VERTEX_POINT('',#1665);
#503=VERTEX_POINT('',#1669);
#504=VERTEX_POINT('',#1670);
#505=VERTEX_POINT('',#1672);
#506=VERTEX_POINT('',#1674);
#507=VERTEX_POINT('',#1678);
#508=VERTEX_POINT('',#1680);
#509=VERTEX_POINT('',#1684);
#510=VERTEX_POINT('',#1686);
#511=VERTEX_POINT('',#1693);
#512=VERTEX_POINT('',#1694);
#513=VERTEX_POINT('',#1696);
#514=VERTEX_POINT('',#1698);
#515=VERTEX_POINT('',#1702);
#516=VERTEX_POINT('',#1704);
#517=VERTEX_POINT('',#1708);
#518=VERTEX_POINT('',#1710);
#519=VERTEX_POINT('',#1712);
#520=VERTEX_POINT('',#1714);
#521=VERTEX_POINT('',#1716);
#522=VERTEX_POINT('',#1720);
#523=VERTEX_POINT('',#1724);
#524=VERTEX_POINT('',#1728);
#525=VERTEX_POINT('',#1729);
#526=VERTEX_POINT('',#1731);
#527=VERTEX_POINT('',#1733);
#528=VERTEX_POINT('',#1737);
#529=VERTEX_POINT('',#1739);
#530=VERTEX_POINT('',#1743);
#531=VERTEX_POINT('',#1745);
#532=VERTEX_POINT('',#1749);
#533=VERTEX_POINT('',#1751);
#534=VERTEX_POINT('',#1755);
#535=VERTEX_POINT('',#1756);
#536=VERTEX_POINT('',#1763);
#537=VERTEX_POINT('',#1764);
#538=VERTEX_POINT('',#1766);
#539=VERTEX_POINT('',#1768);
#540=VERTEX_POINT('',#1775);
#541=VERTEX_POINT('',#1777);
#542=VERTEX_POINT('',#1784);
#543=VERTEX_POINT('',#1788);
#544=VERTEX_POINT('',#1790);
#545=VERTEX_POINT('',#1795);
#546=VERTEX_POINT('',#1797);
#547=VERTEX_POINT('',#1802);
#548=VERTEX_POINT('',#1804);
#549=VERTEX_POINT('',#1809);
#550=VERTEX_POINT('',#1811);
#551=VERTEX_POINT('',#1816);
#552=VERTEX_POINT('',#1817);
#553=VERTEX_POINT('',#1819);
#554=VERTEX_POINT('',#1821);
#555=VERTEX_POINT('',#1825);
#556=VERTEX_POINT('',#1827);
#557=VERTEX_POINT('',#1831);
#558=VERTEX_POINT('',#1835);
#559=EDGE_CURVE('',#459,#460,#227,.T.);
#560=EDGE_CURVE('',#459,#461,#228,.T.);
#561=EDGE_CURVE('',#462,#461,#229,.T.);
#562=EDGE_CURVE('',#460,#462,#230,.T.);
#563=EDGE_CURVE('',#460,#463,#231,.T.);
#564=EDGE_CURVE('',#464,#462,#232,.T.);
#565=EDGE_CURVE('',#463,#464,#233,.T.);
#566=EDGE_CURVE('',#463,#465,#234,.T.);
#567=EDGE_CURVE('',#466,#464,#235,.T.);
#568=EDGE_CURVE('',#465,#466,#236,.T.);
#569=EDGE_CURVE('',#465,#459,#237,.T.);
#570=EDGE_CURVE('',#461,#466,#238,.T.);
#571=EDGE_CURVE('',#467,#468,#239,.T.);
#572=EDGE_CURVE('',#467,#469,#240,.T.);
#573=EDGE_CURVE('',#470,#469,#241,.T.);
#574=EDGE_CURVE('',#468,#470,#242,.T.);
#575=EDGE_CURVE('',#468,#471,#243,.T.);
#576=EDGE_CURVE('',#472,#470,#244,.T.);
#577=EDGE_CURVE('',#471,#472,#245,.T.);
#578=EDGE_CURVE('',#471,#473,#246,.T.);
#579=EDGE_CURVE('',#474,#472,#247,.T.);
#580=EDGE_CURVE('',#473,#474,#248,.T.);
#581=EDGE_CURVE('',#473,#467,#249,.T.);
#582=EDGE_CURVE('',#469,#474,#250,.T.);
#583=EDGE_CURVE('',#475,#476,#251,.T.);
#584=EDGE_CURVE('',#475,#477,#252,.T.);
#585=EDGE_CURVE('',#478,#477,#253,.T.);
#586=EDGE_CURVE('',#476,#478,#254,.T.);
#587=EDGE_CURVE('',#476,#479,#255,.T.);
#588=EDGE_CURVE('',#480,#478,#256,.T.);
#589=EDGE_CURVE('',#479,#480,#257,.T.);
#590=EDGE_CURVE('',#479,#481,#258,.T.);
#591=EDGE_CURVE('',#482,#480,#259,.T.);
#592=EDGE_CURVE('',#481,#482,#260,.T.);
#593=EDGE_CURVE('',#481,#475,#261,.T.);
#594=EDGE_CURVE('',#477,#482,#262,.T.);
#595=EDGE_CURVE('',#483,#484,#263,.T.);
#596=EDGE_CURVE('',#483,#485,#264,.T.);
#597=EDGE_CURVE('',#486,#485,#265,.T.);
#598=EDGE_CURVE('',#484,#486,#266,.T.);
#599=EDGE_CURVE('',#484,#487,#267,.T.);
#600=EDGE_CURVE('',#488,#486,#268,.T.);
#601=EDGE_CURVE('',#487,#488,#269,.T.);
#602=EDGE_CURVE('',#487,#489,#270,.T.);
#603=EDGE_CURVE('',#490,#488,#271,.T.);
#604=EDGE_CURVE('',#489,#490,#272,.T.);
#605=EDGE_CURVE('',#489,#483,#273,.T.);
#606=EDGE_CURVE('',#485,#490,#274,.T.);
#607=EDGE_CURVE('',#491,#491,#47,.T.);
#608=EDGE_CURVE('',#491,#492,#275,.T.);
#609=EDGE_CURVE('',#493,#493,#48,.T.);
#610=EDGE_CURVE('',#493,#491,#276,.T.);
#611=EDGE_CURVE('',#494,#494,#49,.T.);
#612=EDGE_CURVE('',#494,#495,#277,.T.);
#613=EDGE_CURVE('',#496,#496,#50,.T.);
#614=EDGE_CURVE('',#496,#494,#278,.T.);
#615=EDGE_CURVE('',#497,#497,#51,.T.);
#616=EDGE_CURVE('',#497,#498,#279,.T.);
#617=EDGE_CURVE('',#499,#499,#52,.T.);
#618=EDGE_CURVE('',#499,#497,#280,.T.);
#619=EDGE_CURVE('',#500,#500,#53,.T.);
#620=EDGE_CURVE('',#500,#501,#281,.T.);
#621=EDGE_CURVE('',#502,#502,#54,.T.);
#622=EDGE_CURVE('',#502,#500,#282,.T.);
#623=EDGE_CURVE('',#503,#504,#283,.T.);
#624=EDGE_CURVE('',#505,#503,#284,.T.);
#625=EDGE_CURVE('',#506,#505,#285,.T.);
#626=EDGE_CURVE('',#506,#504,#286,.T.);
#627=EDGE_CURVE('',#504,#507,#287,.T.);
#628=EDGE_CURVE('',#508,#506,#288,.T.);
#629=EDGE_CURVE('',#508,#507,#289,.T.);
#630=EDGE_CURVE('',#507,#509,#290,.T.);
#631=EDGE_CURVE('',#510,#508,#291,.T.);
#632=EDGE_CURVE('',#510,#509,#292,.T.);
#633=EDGE_CURVE('',#509,#503,#293,.T.);
#634=EDGE_CURVE('',#505,#510,#294,.T.);
#635=EDGE_CURVE('',#511,#512,#55,.T.);
#636=EDGE_CURVE('',#512,#513,#295,.T.);
#637=EDGE_CURVE('',#513,#514,#56,.T.);
#638=EDGE_CURVE('',#514,#511,#296,.T.);
#639=EDGE_CURVE('',#514,#515,#297,.T.);
#640=EDGE_CURVE('',#516,#515,#298,.T.);
#641=EDGE_CURVE('',#511,#516,#299,.T.);
#642=EDGE_CURVE('',#517,#513,#300,.T.);
#643=EDGE_CURVE('',#518,#517,#57,.T.);
#644=EDGE_CURVE('',#519,#518,#301,.T.);
#645=EDGE_CURVE('',#520,#519,#58,.T.);
#646=EDGE_CURVE('',#521,#520,#302,.T.);
#647=EDGE_CURVE('',#515,#521,#59,.T.);
#648=EDGE_CURVE('',#522,#516,#60,.T.);
#649=EDGE_CURVE('',#521,#522,#303,.T.);
#650=EDGE_CURVE('',#523,#520,#304,.T.);
#651=EDGE_CURVE('',#522,#523,#305,.T.);
#652=EDGE_CURVE('',#524,#525,#61,.T.);
#653=EDGE_CURVE('',#524,#526,#306,.T.);
#654=EDGE_CURVE('',#526,#527,#62,.T.);
#655=EDGE_CURVE('',#527,#525,#307,.T.);
#656=EDGE_CURVE('',#528,#527,#308,.T.);
#657=EDGE_CURVE('',#529,#528,#309,.T.);
#658=EDGE_CURVE('',#529,#525,#310,.T.);
#659=EDGE_CURVE('',#529,#530,#63,.T.);
#660=EDGE_CURVE('',#528,#531,#64,.T.);
#661=EDGE_CURVE('',#531,#530,#311,.T.);
#662=EDGE_CURVE('',#532,#531,#312,.T.);
#663=EDGE_CURVE('',#533,#532,#313,.T.);
#664=EDGE_CURVE('',#533,#530,#314,.T.);
#665=EDGE_CURVE('',#534,#535,#65,.T.);
#666=EDGE_CURVE('',#535,#518,#315,.T.);
#667=EDGE_CURVE('',#517,#534,#316,.T.);
#668=EDGE_CURVE('',#534,#512,#317,.T.);
#669=EDGE_CURVE('',#536,#537,#66,.T.);
#670=EDGE_CURVE('',#536,#538,#318,.T.);
#671=EDGE_CURVE('',#538,#539,#67,.T.);
#672=EDGE_CURVE('',#539,#537,#319,.T.);
#673=EDGE_CURVE('',#524,#537,#320,.T.);
#674=EDGE_CURVE('',#526,#539,#321,.T.);
#675=EDGE_CURVE('',#533,#540,#68,.T.);
#676=EDGE_CURVE('',#532,#541,#69,.T.);
#677=EDGE_CURVE('',#541,#540,#322,.T.);
#678=EDGE_CURVE('',#536,#540,#323,.T.);
#679=EDGE_CURVE('',#538,#541,#324,.T.);
#680=EDGE_CURVE('',#542,#523,#70,.T.);
#681=EDGE_CURVE('',#519,#542,#325,.T.);
#682=EDGE_CURVE('',#543,#543,#71,.T.);
#683=EDGE_CURVE('',#543,#544,#326,.T.);
#684=EDGE_CURVE('',#544,#544,#72,.T.);
#685=EDGE_CURVE('',#545,#545,#73,.T.);
#686=EDGE_CURVE('',#545,#546,#327,.T.);
#687=EDGE_CURVE('',#546,#546,#74,.T.);
#688=EDGE_CURVE('',#547,#547,#75,.T.);
#689=EDGE_CURVE('',#547,#548,#328,.T.);
#690=EDGE_CURVE('',#548,#548,#76,.T.);
#691=EDGE_CURVE('',#549,#549,#77,.T.);
#692=EDGE_CURVE('',#549,#550,#329,.T.);
#693=EDGE_CURVE('',#550,#550,#78,.T.);
#694=EDGE_CURVE('',#551,#552,#330,.T.);
#695=EDGE_CURVE('',#553,#551,#331,.T.);
#696=EDGE_CURVE('',#554,#553,#332,.T.);
#697=EDGE_CURVE('',#552,#554,#333,.T.);
#698=EDGE_CURVE('',#551,#555,#334,.T.);
#699=EDGE_CURVE('',#555,#556,#335,.T.);
#700=EDGE_CURVE('',#553,#556,#336,.T.);
#701=EDGE_CURVE('',#552,#557,#337,.T.);
#702=EDGE_CURVE('',#557,#555,#338,.T.);
#703=EDGE_CURVE('',#554,#558,#339,.T.);
#704=EDGE_CURVE('',#558,#557,#340,.T.);
#705=EDGE_CURVE('',#556,#558,#341,.T.);
#706=EDGE_CURVE('',#542,#535,#342,.T.);
#707=ORIENTED_EDGE('',*,*,#559,.F.);
#708=ORIENTED_EDGE('',*,*,#560,.T.);
#709=ORIENTED_EDGE('',*,*,#561,.F.);
#710=ORIENTED_EDGE('',*,*,#562,.F.);
#711=ORIENTED_EDGE('',*,*,#563,.F.);
#712=ORIENTED_EDGE('',*,*,#562,.T.);
#713=ORIENTED_EDGE('',*,*,#564,.F.);
#714=ORIENTED_EDGE('',*,*,#565,.F.);
#715=ORIENTED_EDGE('',*,*,#566,.F.);
#716=ORIENTED_EDGE('',*,*,#565,.T.);
#717=ORIENTED_EDGE('',*,*,#567,.F.);
#718=ORIENTED_EDGE('',*,*,#568,.F.);
#719=ORIENTED_EDGE('',*,*,#569,.F.);
#720=ORIENTED_EDGE('',*,*,#568,.T.);
#721=ORIENTED_EDGE('',*,*,#570,.F.);
#722=ORIENTED_EDGE('',*,*,#560,.F.);
#723=ORIENTED_EDGE('',*,*,#570,.T.);
#724=ORIENTED_EDGE('',*,*,#567,.T.);
#725=ORIENTED_EDGE('',*,*,#564,.T.);
#726=ORIENTED_EDGE('',*,*,#561,.T.);
#727=ORIENTED_EDGE('',*,*,#571,.F.);
#728=ORIENTED_EDGE('',*,*,#572,.T.);
#729=ORIENTED_EDGE('',*,*,#573,.F.);
#730=ORIENTED_EDGE('',*,*,#574,.F.);
#731=ORIENTED_EDGE('',*,*,#575,.F.);
#732=ORIENTED_EDGE('',*,*,#574,.T.);
#733=ORIENTED_EDGE('',*,*,#576,.F.);
#734=ORIENTED_EDGE('',*,*,#577,.F.);
#735=ORIENTED_EDGE('',*,*,#578,.F.);
#736=ORIENTED_EDGE('',*,*,#577,.T.);
#737=ORIENTED_EDGE('',*,*,#579,.F.);
#738=ORIENTED_EDGE('',*,*,#580,.F.);
#739=ORIENTED_EDGE('',*,*,#581,.F.);
#740=ORIENTED_EDGE('',*,*,#580,.T.);
#741=ORIENTED_EDGE('',*,*,#582,.F.);
#742=ORIENTED_EDGE('',*,*,#572,.F.);
#743=ORIENTED_EDGE('',*,*,#582,.T.);
#744=ORIENTED_EDGE('',*,*,#579,.T.);
#745=ORIENTED_EDGE('',*,*,#576,.T.);
#746=ORIENTED_EDGE('',*,*,#573,.T.);
#747=ORIENTED_EDGE('',*,*,#583,.F.);
#748=ORIENTED_EDGE('',*,*,#584,.T.);
#749=ORIENTED_EDGE('',*,*,#585,.F.);
#750=ORIENTED_EDGE('',*,*,#586,.F.);
#751=ORIENTED_EDGE('',*,*,#587,.F.);
#752=ORIENTED_EDGE('',*,*,#586,.T.);
#753=ORIENTED_EDGE('',*,*,#588,.F.);
#754=ORIENTED_EDGE('',*,*,#589,.F.);
#755=ORIENTED_EDGE('',*,*,#590,.F.);
#756=ORIENTED_EDGE('',*,*,#589,.T.);
#757=ORIENTED_EDGE('',*,*,#591,.F.);
#758=ORIENTED_EDGE('',*,*,#592,.F.);
#759=ORIENTED_EDGE('',*,*,#593,.F.);
#760=ORIENTED_EDGE('',*,*,#592,.T.);
#761=ORIENTED_EDGE('',*,*,#594,.F.);
#762=ORIENTED_EDGE('',*,*,#584,.F.);
#763=ORIENTED_EDGE('',*,*,#594,.T.);
#764=ORIENTED_EDGE('',*,*,#591,.T.);
#765=ORIENTED_EDGE('',*,*,#588,.T.);
#766=ORIENTED_EDGE('',*,*,#585,.T.);
#767=ORIENTED_EDGE('',*,*,#595,.F.);
#768=ORIENTED_EDGE('',*,*,#596,.T.);
#769=ORIENTED_EDGE('',*,*,#597,.F.);
#770=ORIENTED_EDGE('',*,*,#598,.F.);
#771=ORIENTED_EDGE('',*,*,#599,.F.);
#772=ORIENTED_EDGE('',*,*,#598,.T.);
#773=ORIENTED_EDGE('',*,*,#600,.F.);
#774=ORIENTED_EDGE('',*,*,#601,.F.);
#775=ORIENTED_EDGE('',*,*,#602,.F.);
#776=ORIENTED_EDGE('',*,*,#601,.T.);
#777=ORIENTED_EDGE('',*,*,#603,.F.);
#778=ORIENTED_EDGE('',*,*,#604,.F.);
#779=ORIENTED_EDGE('',*,*,#605,.F.);
#780=ORIENTED_EDGE('',*,*,#604,.T.);
#781=ORIENTED_EDGE('',*,*,#606,.F.);
#782=ORIENTED_EDGE('',*,*,#596,.F.);
#783=ORIENTED_EDGE('',*,*,#606,.T.);
#784=ORIENTED_EDGE('',*,*,#603,.T.);
#785=ORIENTED_EDGE('',*,*,#600,.T.);
#786=ORIENTED_EDGE('',*,*,#597,.T.);
#787=ORIENTED_EDGE('',*,*,#607,.F.);
#788=ORIENTED_EDGE('',*,*,#608,.T.);
#789=ORIENTED_EDGE('',*,*,#608,.F.);
#790=ORIENTED_EDGE('',*,*,#609,.F.);
#791=ORIENTED_EDGE('',*,*,#610,.T.);
#792=ORIENTED_EDGE('',*,*,#607,.T.);
#793=ORIENTED_EDGE('',*,*,#610,.F.);
#794=ORIENTED_EDGE('',*,*,#611,.F.);
#795=ORIENTED_EDGE('',*,*,#612,.T.);
#796=ORIENTED_EDGE('',*,*,#612,.F.);
#797=ORIENTED_EDGE('',*,*,#613,.F.);
#798=ORIENTED_EDGE('',*,*,#614,.T.);
#799=ORIENTED_EDGE('',*,*,#611,.T.);
#800=ORIENTED_EDGE('',*,*,#614,.F.);
#801=ORIENTED_EDGE('',*,*,#615,.F.);
#802=ORIENTED_EDGE('',*,*,#616,.T.);
#803=ORIENTED_EDGE('',*,*,#616,.F.);
#804=ORIENTED_EDGE('',*,*,#617,.F.);
#805=ORIENTED_EDGE('',*,*,#618,.T.);
#806=ORIENTED_EDGE('',*,*,#615,.T.);
#807=ORIENTED_EDGE('',*,*,#618,.F.);
#808=ORIENTED_EDGE('',*,*,#619,.F.);
#809=ORIENTED_EDGE('',*,*,#620,.T.);
#810=ORIENTED_EDGE('',*,*,#620,.F.);
#811=ORIENTED_EDGE('',*,*,#621,.F.);
#812=ORIENTED_EDGE('',*,*,#622,.T.);
#813=ORIENTED_EDGE('',*,*,#619,.T.);
#814=ORIENTED_EDGE('',*,*,#622,.F.);
#815=ORIENTED_EDGE('',*,*,#623,.F.);
#816=ORIENTED_EDGE('',*,*,#624,.F.);
#817=ORIENTED_EDGE('',*,*,#625,.F.);
#818=ORIENTED_EDGE('',*,*,#626,.T.);
#819=ORIENTED_EDGE('',*,*,#627,.F.);
#820=ORIENTED_EDGE('',*,*,#626,.F.);
#821=ORIENTED_EDGE('',*,*,#628,.F.);
#822=ORIENTED_EDGE('',*,*,#629,.T.);
#823=ORIENTED_EDGE('',*,*,#630,.F.);
#824=ORIENTED_EDGE('',*,*,#629,.F.);
#825=ORIENTED_EDGE('',*,*,#631,.F.);
#826=ORIENTED_EDGE('',*,*,#632,.T.);
#827=ORIENTED_EDGE('',*,*,#633,.F.);
#828=ORIENTED_EDGE('',*,*,#632,.F.);
#829=ORIENTED_EDGE('',*,*,#634,.F.);
#830=ORIENTED_EDGE('',*,*,#624,.T.);
#831=ORIENTED_EDGE('',*,*,#635,.T.);
#832=ORIENTED_EDGE('',*,*,#636,.T.);
#833=ORIENTED_EDGE('',*,*,#637,.T.);
#834=ORIENTED_EDGE('',*,*,#638,.T.);
#835=ORIENTED_EDGE('',*,*,#638,.F.);
#836=ORIENTED_EDGE('',*,*,#639,.T.);
#837=ORIENTED_EDGE('',*,*,#640,.F.);
#838=ORIENTED_EDGE('',*,*,#641,.F.);
#839=ORIENTED_EDGE('',*,*,#637,.F.);
#840=ORIENTED_EDGE('',*,*,#642,.F.);
#841=ORIENTED_EDGE('',*,*,#643,.F.);
#842=ORIENTED_EDGE('',*,*,#644,.F.);
#843=ORIENTED_EDGE('',*,*,#645,.F.);
#844=ORIENTED_EDGE('',*,*,#646,.F.);
#845=ORIENTED_EDGE('',*,*,#647,.F.);
#846=ORIENTED_EDGE('',*,*,#639,.F.);
#847=ORIENTED_EDGE('',*,*,#625,.T.);
#848=ORIENTED_EDGE('',*,*,#634,.T.);
#849=ORIENTED_EDGE('',*,*,#631,.T.);
#850=ORIENTED_EDGE('',*,*,#628,.T.);
#851=ORIENTED_EDGE('',*,*,#648,.T.);
#852=ORIENTED_EDGE('',*,*,#640,.T.);
#853=ORIENTED_EDGE('',*,*,#647,.T.);
#854=ORIENTED_EDGE('',*,*,#649,.T.);
#855=ORIENTED_EDGE('',*,*,#649,.F.);
#856=ORIENTED_EDGE('',*,*,#646,.T.);
#857=ORIENTED_EDGE('',*,*,#650,.F.);
#858=ORIENTED_EDGE('',*,*,#651,.F.);
#859=ORIENTED_EDGE('',*,*,#652,.F.);
#860=ORIENTED_EDGE('',*,*,#653,.T.);
#861=ORIENTED_EDGE('',*,*,#654,.T.);
#862=ORIENTED_EDGE('',*,*,#655,.T.);
#863=ORIENTED_EDGE('',*,*,#655,.F.);
#864=ORIENTED_EDGE('',*,*,#656,.F.);
#865=ORIENTED_EDGE('',*,*,#657,.F.);
#866=ORIENTED_EDGE('',*,*,#658,.T.);
#867=ORIENTED_EDGE('',*,*,#659,.F.);
#868=ORIENTED_EDGE('',*,*,#657,.T.);
#869=ORIENTED_EDGE('',*,*,#660,.T.);
#870=ORIENTED_EDGE('',*,*,#661,.T.);
#871=ORIENTED_EDGE('',*,*,#661,.F.);
#872=ORIENTED_EDGE('',*,*,#662,.F.);
#873=ORIENTED_EDGE('',*,*,#663,.F.);
#874=ORIENTED_EDGE('',*,*,#664,.T.);
#875=ORIENTED_EDGE('',*,*,#665,.T.);
#876=ORIENTED_EDGE('',*,*,#666,.T.);
#877=ORIENTED_EDGE('',*,*,#643,.T.);
#878=ORIENTED_EDGE('',*,*,#667,.T.);
#879=ORIENTED_EDGE('',*,*,#636,.F.);
#880=ORIENTED_EDGE('',*,*,#668,.F.);
#881=ORIENTED_EDGE('',*,*,#667,.F.);
#882=ORIENTED_EDGE('',*,*,#642,.T.);
#883=ORIENTED_EDGE('',*,*,#669,.F.);
#884=ORIENTED_EDGE('',*,*,#670,.T.);
#885=ORIENTED_EDGE('',*,*,#671,.T.);
#886=ORIENTED_EDGE('',*,*,#672,.T.);
#887=ORIENTED_EDGE('',*,*,#653,.F.);
#888=ORIENTED_EDGE('',*,*,#673,.T.);
#889=ORIENTED_EDGE('',*,*,#672,.F.);
#890=ORIENTED_EDGE('',*,*,#674,.F.);
#891=ORIENTED_EDGE('',*,*,#675,.F.);
#892=ORIENTED_EDGE('',*,*,#663,.T.);
#893=ORIENTED_EDGE('',*,*,#676,.T.);
#894=ORIENTED_EDGE('',*,*,#677,.T.);
#895=ORIENTED_EDGE('',*,*,#670,.F.);
#896=ORIENTED_EDGE('',*,*,#678,.T.);
#897=ORIENTED_EDGE('',*,*,#677,.F.);
#898=ORIENTED_EDGE('',*,*,#679,.F.);
#899=ORIENTED_EDGE('',*,*,#680,.T.);
#900=ORIENTED_EDGE('',*,*,#650,.T.);
#901=ORIENTED_EDGE('',*,*,#645,.T.);
#902=ORIENTED_EDGE('',*,*,#681,.T.);
#903=ORIENTED_EDGE('',*,*,#682,.F.);
#904=ORIENTED_EDGE('',*,*,#683,.T.);
#905=ORIENTED_EDGE('',*,*,#684,.F.);
#906=ORIENTED_EDGE('',*,*,#683,.F.);
#907=ORIENTED_EDGE('',*,*,#682,.T.);
#908=ORIENTED_EDGE('',*,*,#609,.T.);
#909=ORIENTED_EDGE('',*,*,#685,.F.);
#910=ORIENTED_EDGE('',*,*,#686,.T.);
#911=ORIENTED_EDGE('',*,*,#687,.F.);
#912=ORIENTED_EDGE('',*,*,#686,.F.);
#913=ORIENTED_EDGE('',*,*,#685,.T.);
#914=ORIENTED_EDGE('',*,*,#621,.T.);
#915=ORIENTED_EDGE('',*,*,#688,.F.);
#916=ORIENTED_EDGE('',*,*,#689,.T.);
#917=ORIENTED_EDGE('',*,*,#690,.F.);
#918=ORIENTED_EDGE('',*,*,#689,.F.);
#919=ORIENTED_EDGE('',*,*,#688,.T.);
#920=ORIENTED_EDGE('',*,*,#613,.T.);
#921=ORIENTED_EDGE('',*,*,#691,.F.);
#922=ORIENTED_EDGE('',*,*,#692,.T.);
#923=ORIENTED_EDGE('',*,*,#693,.F.);
#924=ORIENTED_EDGE('',*,*,#692,.F.);
#925=ORIENTED_EDGE('',*,*,#691,.T.);
#926=ORIENTED_EDGE('',*,*,#617,.T.);
#927=ORIENTED_EDGE('',*,*,#652,.T.);
#928=ORIENTED_EDGE('',*,*,#658,.F.);
#929=ORIENTED_EDGE('',*,*,#659,.T.);
#930=ORIENTED_EDGE('',*,*,#664,.F.);
#931=ORIENTED_EDGE('',*,*,#675,.T.);
#932=ORIENTED_EDGE('',*,*,#678,.F.);
#933=ORIENTED_EDGE('',*,*,#669,.T.);
#934=ORIENTED_EDGE('',*,*,#673,.F.);
#935=ORIENTED_EDGE('',*,*,#694,.F.);
#936=ORIENTED_EDGE('',*,*,#695,.F.);
#937=ORIENTED_EDGE('',*,*,#696,.F.);
#938=ORIENTED_EDGE('',*,*,#697,.F.);
#939=ORIENTED_EDGE('',*,*,#695,.T.);
#940=ORIENTED_EDGE('',*,*,#698,.T.);
#941=ORIENTED_EDGE('',*,*,#699,.T.);
#942=ORIENTED_EDGE('',*,*,#700,.F.);
#943=ORIENTED_EDGE('',*,*,#694,.T.);
#944=ORIENTED_EDGE('',*,*,#701,.T.);
#945=ORIENTED_EDGE('',*,*,#702,.T.);
#946=ORIENTED_EDGE('',*,*,#698,.F.);
#947=ORIENTED_EDGE('',*,*,#697,.T.);
#948=ORIENTED_EDGE('',*,*,#703,.T.);
#949=ORIENTED_EDGE('',*,*,#704,.T.);
#950=ORIENTED_EDGE('',*,*,#701,.F.);
#951=ORIENTED_EDGE('',*,*,#696,.T.);
#952=ORIENTED_EDGE('',*,*,#700,.T.);
#953=ORIENTED_EDGE('',*,*,#705,.T.);
#954=ORIENTED_EDGE('',*,*,#703,.F.);
#955=ORIENTED_EDGE('',*,*,#699,.F.);
#956=ORIENTED_EDGE('',*,*,#702,.F.);
#957=ORIENTED_EDGE('',*,*,#704,.F.);
#958=ORIENTED_EDGE('',*,*,#705,.F.);
#959=ORIENTED_EDGE('',*,*,#571,.T.);
#960=ORIENTED_EDGE('',*,*,#575,.T.);
#961=ORIENTED_EDGE('',*,*,#578,.T.);
#962=ORIENTED_EDGE('',*,*,#581,.T.);
#963=ORIENTED_EDGE('',*,*,#583,.T.);
#964=ORIENTED_EDGE('',*,*,#587,.T.);
#965=ORIENTED_EDGE('',*,*,#590,.T.);
#966=ORIENTED_EDGE('',*,*,#593,.T.);
#967=ORIENTED_EDGE('',*,*,#595,.T.);
#968=ORIENTED_EDGE('',*,*,#599,.T.);
#969=ORIENTED_EDGE('',*,*,#602,.T.);
#970=ORIENTED_EDGE('',*,*,#605,.T.);
#971=ORIENTED_EDGE('',*,*,#623,.T.);
#972=ORIENTED_EDGE('',*,*,#627,.T.);
#973=ORIENTED_EDGE('',*,*,#630,.T.);
#974=ORIENTED_EDGE('',*,*,#633,.T.);
#975=ORIENTED_EDGE('',*,*,#684,.T.);
#976=ORIENTED_EDGE('',*,*,#687,.T.);
#977=ORIENTED_EDGE('',*,*,#690,.T.);
#978=ORIENTED_EDGE('',*,*,#693,.T.);
#979=ORIENTED_EDGE('',*,*,#559,.T.);
#980=ORIENTED_EDGE('',*,*,#563,.T.);
#981=ORIENTED_EDGE('',*,*,#566,.T.);
#982=ORIENTED_EDGE('',*,*,#569,.T.);
#983=ORIENTED_EDGE('',*,*,#666,.F.);
#984=ORIENTED_EDGE('',*,*,#706,.F.);
#985=ORIENTED_EDGE('',*,*,#681,.F.);
#986=ORIENTED_EDGE('',*,*,#644,.T.);
#987=ORIENTED_EDGE('',*,*,#635,.F.);
#988=ORIENTED_EDGE('',*,*,#641,.T.);
#989=ORIENTED_EDGE('',*,*,#648,.F.);
#990=ORIENTED_EDGE('',*,*,#651,.T.);
#991=ORIENTED_EDGE('',*,*,#680,.F.);
#992=ORIENTED_EDGE('',*,*,#706,.T.);
#993=ORIENTED_EDGE('',*,*,#665,.F.);
#994=ORIENTED_EDGE('',*,*,#668,.T.);
#995=ORIENTED_EDGE('',*,*,#656,.T.);
#996=ORIENTED_EDGE('',*,*,#654,.F.);
#997=ORIENTED_EDGE('',*,*,#674,.T.);
#998=ORIENTED_EDGE('',*,*,#671,.F.);
#999=ORIENTED_EDGE('',*,*,#679,.T.);
#1000=ORIENTED_EDGE('',*,*,#676,.F.);
#1001=ORIENTED_EDGE('',*,*,#662,.T.);
#1002=ORIENTED_EDGE('',*,*,#660,.F.);
#1003=PLANE('',#1125);
#1004=PLANE('',#1126);
#1005=PLANE('',#1127);
#1006=PLANE('',#1128);
#1007=PLANE('',#1129);
#1008=PLANE('',#1130);
#1009=PLANE('',#1131);
#1010=PLANE('',#1132);
#1011=PLANE('',#1133);
#1012=PLANE('',#1134);
#1013=PLANE('',#1135);
#1014=PLANE('',#1136);
#1015=PLANE('',#1137);
#1016=PLANE('',#1138);
#1017=PLANE('',#1139);
#1018=PLANE('',#1140);
#1019=PLANE('',#1141);
#1020=PLANE('',#1142);
#1021=PLANE('',#1143);
#1022=PLANE('',#1144);
#1023=PLANE('',#1161);
#1024=PLANE('',#1162);
#1025=PLANE('',#1163);
#1026=PLANE('',#1164);
#1027=PLANE('',#1168);
#1028=PLANE('',#1169);
#1029=PLANE('',#1175);
#1030=PLANE('',#1179);
#1031=PLANE('',#1183);
#1032=PLANE('',#1186);
#1033=PLANE('',#1190);
#1034=PLANE('',#1194);
#1035=PLANE('',#1200);
#1036=PLANE('',#1204);
#1037=PLANE('',#1208);
#1038=PLANE('',#1212);
#1039=PLANE('',#1213);
#1040=PLANE('',#1214);
#1041=PLANE('',#1215);
#1042=PLANE('',#1216);
#1043=PLANE('',#1217);
#1044=PLANE('',#1218);
#1045=PLANE('',#1219);
#1046=PLANE('',#1220);
#1047=ADVANCED_FACE('',(#83),#1003,.T.);
#1048=ADVANCED_FACE('',(#84),#1004,.T.);
#1049=ADVANCED_FACE('',(#85),#1005,.T.);
#1050=ADVANCED_FACE('',(#86),#1006,.T.);
#1051=ADVANCED_FACE('',(#87),#1007,.T.);
#1052=ADVANCED_FACE('',(#88),#1008,.T.);
#1053=ADVANCED_FACE('',(#89),#1009,.T.);
#1054=ADVANCED_FACE('',(#90),#1010,.T.);
#1055=ADVANCED_FACE('',(#91),#1011,.T.);
#1056=ADVANCED_FACE('',(#92),#1012,.T.);
#1057=ADVANCED_FACE('',(#93),#1013,.T.);
#1058=ADVANCED_FACE('',(#94),#1014,.T.);
#1059=ADVANCED_FACE('',(#95),#1015,.T.);
#1060=ADVANCED_FACE('',(#96),#1016,.T.);
#1061=ADVANCED_FACE('',(#97),#1017,.T.);
#1062=ADVANCED_FACE('',(#98),#1018,.T.);
#1063=ADVANCED_FACE('',(#99),#1019,.T.);
#1064=ADVANCED_FACE('',(#100),#1020,.T.);
#1065=ADVANCED_FACE('',(#101),#1021,.T.);
#1066=ADVANCED_FACE('',(#102),#1022,.T.);
#1067=ADVANCED_FACE('',(#103),#79,.F.);
#1068=ADVANCED_FACE('',(#104),#31,.F.);
#1069=ADVANCED_FACE('',(#105),#80,.F.);
#1070=ADVANCED_FACE('',(#106),#32,.F.);
#1071=ADVANCED_FACE('',(#107),#81,.F.);
#1072=ADVANCED_FACE('',(#108),#33,.F.);
#1073=ADVANCED_FACE('',(#109),#82,.F.);
#1074=ADVANCED_FACE('',(#110),#34,.F.);
#1075=ADVANCED_FACE('',(#111),#1023,.F.);
#1076=ADVANCED_FACE('',(#112),#1024,.F.);
#1077=ADVANCED_FACE('',(#113),#1025,.F.);
#1078=ADVANCED_FACE('',(#114),#1026,.F.);
#1079=ADVANCED_FACE('',(#115),#35,.T.);
#1080=ADVANCED_FACE('',(#116),#1027,.T.);
#1081=ADVANCED_FACE('',(#117,#15),#1028,.F.);
#1082=ADVANCED_FACE('',(#118),#36,.T.);
#1083=ADVANCED_FACE('',(#119),#1029,.T.);
#1084=ADVANCED_FACE('',(#120),#37,.F.);
#1085=ADVANCED_FACE('',(#121),#1030,.F.);
#1086=ADVANCED_FACE('',(#122),#38,.F.);
#1087=ADVANCED_FACE('',(#123),#1031,.F.);
#1088=ADVANCED_FACE('',(#124),#39,.T.);
#1089=ADVANCED_FACE('',(#125),#1032,.T.);
#1090=ADVANCED_FACE('',(#126),#40,.F.);
#1091=ADVANCED_FACE('',(#127),#1033,.F.);
#1092=ADVANCED_FACE('',(#128),#41,.F.);
#1093=ADVANCED_FACE('',(#129),#1034,.F.);
#1094=ADVANCED_FACE('',(#130),#42,.T.);
#1095=ADVANCED_FACE('',(#131),#43,.T.);
#1096=ADVANCED_FACE('',(#132,#16),#1035,.T.);
#1097=ADVANCED_FACE('',(#133),#44,.T.);
#1098=ADVANCED_FACE('',(#134,#17),#1036,.T.);
#1099=ADVANCED_FACE('',(#135),#45,.T.);
#1100=ADVANCED_FACE('',(#136,#18),#1037,.T.);
#1101=ADVANCED_FACE('',(#137),#46,.T.);
#1102=ADVANCED_FACE('',(#138,#19),#1038,.T.);
#1103=ADVANCED_FACE('',(#139,#20),#1039,.F.);
#1104=ADVANCED_FACE('',(#140),#1040,.F.);
#1105=ADVANCED_FACE('',(#141),#1041,.F.);
#1106=ADVANCED_FACE('',(#142),#1042,.F.);
#1107=ADVANCED_FACE('',(#143),#1043,.F.);
#1108=ADVANCED_FACE('',(#144,#21,#22,#23,#24,#25,#26,#27,#28,#29),#1044,
 .F.);
#1109=ADVANCED_FACE('',(#145),#1045,.T.);
#1110=ADVANCED_FACE('',(#146,#30),#1046,.T.);
#1111=CLOSED_SHELL('',(#1047,#1048,#1049,#1050,#1051,#1052,#1053,#1054,
#1055,#1056,#1057,#1058,#1059,#1060,#1061,#1062,#1063,#1064,#1065,#1066,
#1067,#1068,#1069,#1070,#1071,#1072,#1073,#1074,#1075,#1076,#1077,#1078,
#1079,#1080,#1081,#1082,#1083,#1084,#1085,#1086,#1087,#1088,#1089,#1090,
#1091,#1092,#1093,#1094,#1095,#1096,#1097,#1098,#1099,#1100,#1101,#1102,
#1103,#1104,#1105,#1106,#1107,#1108,#1109,#1110));
#1112=DERIVED_UNIT_ELEMENT(#1114,1.);
#1113=DERIVED_UNIT_ELEMENT(#1849,-3.);
#1114=(
MASS_UNIT()
NAMED_UNIT(*)
SI_UNIT(.KILO.,.GRAM.)
);
#1115=DERIVED_UNIT((#1112,#1113));
#1116=MEASURE_REPRESENTATION_ITEM('density measure',
POSITIVE_RATIO_MEASURE(7850.),#1115);
#1117=PROPERTY_DEFINITION_REPRESENTATION(#1122,#1119);
#1118=PROPERTY_DEFINITION_REPRESENTATION(#1123,#1120);
#1119=REPRESENTATION('material name',(#1121),#1846);
#1120=REPRESENTATION('density',(#1116),#1846);
#1121=DESCRIPTIVE_REPRESENTATION_ITEM('Stahl','Stahl');
#1122=PROPERTY_DEFINITION('material property','material name',#1856);
#1123=PROPERTY_DEFINITION('material property','density of part',#1856);
#1124=AXIS2_PLACEMENT_3D('',#1531,#1221,#1222);
#1125=AXIS2_PLACEMENT_3D('',#1532,#1223,#1224);
#1126=AXIS2_PLACEMENT_3D('',#1541,#1229,#1230);
#1127=AXIS2_PLACEMENT_3D('',#1547,#1234,#1235);
#1128=AXIS2_PLACEMENT_3D('',#1553,#1239,#1240);
#1129=AXIS2_PLACEMENT_3D('',#1556,#1243,#1244);
#1130=AXIS2_PLACEMENT_3D('',#1557,#1245,#1246);
#1131=AXIS2_PLACEMENT_3D('',#1566,#1251,#1252);
#1132=AXIS2_PLACEMENT_3D('',#1572,#1256,#1257);
#1133=AXIS2_PLACEMENT_3D('',#1578,#1261,#1262);
#1134=AXIS2_PLACEMENT_3D('',#1581,#1265,#1266);
#1135=AXIS2_PLACEMENT_3D('',#1582,#1267,#1268);
#1136=AXIS2_PLACEMENT_3D('',#1591,#1273,#1274);
#1137=AXIS2_PLACEMENT_3D('',#1597,#1278,#1279);
#1138=AXIS2_PLACEMENT_3D('',#1603,#1283,#1284);
#1139=AXIS2_PLACEMENT_3D('',#1606,#1287,#1288);
#1140=AXIS2_PLACEMENT_3D('',#1607,#1289,#1290);
#1141=AXIS2_PLACEMENT_3D('',#1616,#1295,#1296);
#1142=AXIS2_PLACEMENT_3D('',#1622,#1300,#1301);
#1143=AXIS2_PLACEMENT_3D('',#1628,#1305,#1306);
#1144=AXIS2_PLACEMENT_3D('',#1631,#1309,#1310);
#1145=AXIS2_PLACEMENT_3D('',#1632,#1311,#1312);
#1146=AXIS2_PLACEMENT_3D('',#1634,#1313,#1314);
#1147=AXIS2_PLACEMENT_3D('',#1637,#1316,#1317);
#1148=AXIS2_PLACEMENT_3D('',#1639,#1318,#1319);
#1149=AXIS2_PLACEMENT_3D('',#1641,#1321,#1322);
#1150=AXIS2_PLACEMENT_3D('',#1643,#1323,#1324);
#1151=AXIS2_PLACEMENT_3D('',#1646,#1326,#1327);
#1152=AXIS2_PLACEMENT_3D('',#1648,#1328,#1329);
#1153=AXIS2_PLACEMENT_3D('',#1650,#1331,#1332);
#1154=AXIS2_PLACEMENT_3D('',#1652,#1333,#1334);
#1155=AXIS2_PLACEMENT_3D('',#1655,#1336,#1337);
#1156=AXIS2_PLACEMENT_3D('',#1657,#1338,#1339);
#1157=AXIS2_PLACEMENT_3D('',#1659,#1341,#1342);
#1158=AXIS2_PLACEMENT_3D('',#1661,#1343,#1344);
#1159=AXIS2_PLACEMENT_3D('',#1664,#1346,#1347);
#1160=AXIS2_PLACEMENT_3D('',#1666,#1348,#1349);
#1161=AXIS2_PLACEMENT_3D('',#1668,#1351,#1352);
#1162=AXIS2_PLACEMENT_3D('',#1677,#1357,#1358);
#1163=AXIS2_PLACEMENT_3D('',#1683,#1362,#1363);
#1164=AXIS2_PLACEMENT_3D('',#1689,#1367,#1368);
#1165=AXIS2_PLACEMENT_3D('',#1692,#1371,#1372);
#1166=AXIS2_PLACEMENT_3D('',#1695,#1373,#1374);
#1167=AXIS2_PLACEMENT_3D('',#1699,#1376,#1377);
#1168=AXIS2_PLACEMENT_3D('',#1701,#1379,#1380);
#1169=AXIS2_PLACEMENT_3D('',#1707,#1384,#1385);
#1170=AXIS2_PLACEMENT_3D('',#1711,#1387,#1388);
#1171=AXIS2_PLACEMENT_3D('',#1715,#1390,#1391);
#1172=AXIS2_PLACEMENT_3D('',#1718,#1393,#1394);
#1173=AXIS2_PLACEMENT_3D('',#1719,#1395,#1396);
#1174=AXIS2_PLACEMENT_3D('',#1721,#1397,#1398);
#1175=AXIS2_PLACEMENT_3D('',#1723,#1400,#1401);
#1176=AXIS2_PLACEMENT_3D('',#1727,#1404,#1405);
#1177=AXIS2_PLACEMENT_3D('',#1730,#1406,#1407);
#1178=AXIS2_PLACEMENT_3D('',#1734,#1409,#1410);
#1179=AXIS2_PLACEMENT_3D('',#1736,#1412,#1413);
#1180=AXIS2_PLACEMENT_3D('',#1742,#1417,#1418);
#1181=AXIS2_PLACEMENT_3D('',#1744,#1419,#1420);
#1182=AXIS2_PLACEMENT_3D('',#1746,#1421,#1422);
#1183=AXIS2_PLACEMENT_3D('',#1748,#1424,#1425);
#1184=AXIS2_PLACEMENT_3D('',#1754,#1429,#1430);
#1185=AXIS2_PLACEMENT_3D('',#1757,#1431,#1432);
#1186=AXIS2_PLACEMENT_3D('',#1760,#1435,#1436);
#1187=AXIS2_PLACEMENT_3D('',#1762,#1438,#1439);
#1188=AXIS2_PLACEMENT_3D('',#1765,#1440,#1441);
#1189=AXIS2_PLACEMENT_3D('',#1769,#1443,#1444);
#1190=AXIS2_PLACEMENT_3D('',#1771,#1446,#1447);
#1191=AXIS2_PLACEMENT_3D('',#1774,#1450,#1451);
#1192=AXIS2_PLACEMENT_3D('',#1776,#1452,#1453);
#1193=AXIS2_PLACEMENT_3D('',#1778,#1454,#1455);
#1194=AXIS2_PLACEMENT_3D('',#1780,#1457,#1458);
#1195=AXIS2_PLACEMENT_3D('',#1783,#1461,#1462);
#1196=AXIS2_PLACEMENT_3D('',#1785,#1463,#1464);
#1197=AXIS2_PLACEMENT_3D('',#1787,#1466,#1467);
#1198=AXIS2_PLACEMENT_3D('',#1789,#1468,#1469);
#1199=AXIS2_PLACEMENT_3D('',#1792,#1471,#1472);
#1200=AXIS2_PLACEMENT_3D('',#1793,#1473,#1474);
#1201=AXIS2_PLACEMENT_3D('',#1794,#1475,#1476);
#1202=AXIS2_PLACEMENT_3D('',#1796,#1477,#1478);
#1203=AXIS2_PLACEMENT_3D('',#1799,#1480,#1481);
#1204=AXIS2_PLACEMENT_3D('',#1800,#1482,#1483);
#1205=AXIS2_PLACEMENT_3D('',#1801,#1484,#1485);
#1206=AXIS2_PLACEMENT_3D('',#1803,#1486,#1487);
#1207=AXIS2_PLACEMENT_3D('',#1806,#1489,#1490);
#1208=AXIS2_PLACEMENT_3D('',#1807,#1491,#1492);
#1209=AXIS2_PLACEMENT_3D('',#1808,#1493,#1494);
#1210=AXIS2_PLACEMENT_3D('',#1810,#1495,#1496);
#1211=AXIS2_PLACEMENT_3D('',#1813,#1498,#1499);
#1212=AXIS2_PLACEMENT_3D('',#1814,#1500,#1501);
#1213=AXIS2_PLACEMENT_3D('',#1815,#1502,#1503);
#1214=AXIS2_PLACEMENT_3D('',#1824,#1508,#1509);
#1215=AXIS2_PLACEMENT_3D('',#1830,#1513,#1514);
#1216=AXIS2_PLACEMENT_3D('',#1834,#1517,#1518);
#1217=AXIS2_PLACEMENT_3D('',#1838,#1521,#1522);
#1218=AXIS2_PLACEMENT_3D('',#1840,#1524,#1525);
#1219=AXIS2_PLACEMENT_3D('',#1841,#1526,#1527);
#1220=AXIS2_PLACEMENT_3D('',#1843,#1529,#1530);
#1221=DIRECTION('axis',(0.,0.,1.));
#1222=DIRECTION('refdir',(1.,0.,0.));
#1223=DIRECTION('center_axis',(-1.,0.,0.));
#1224=DIRECTION('ref_axis',(0.,0.,1.));
#1225=DIRECTION('',(0.,0.,-1.));
#1226=DIRECTION('',(0.,1.,0.));
#1227=DIRECTION('',(0.,0.,1.));
#1228=DIRECTION('',(0.,1.,0.));
#1229=DIRECTION('center_axis',(0.,0.,-1.));
#1230=DIRECTION('ref_axis',(-1.,0.,0.));
#1231=DIRECTION('',(1.,0.,0.));
#1232=DIRECTION('',(-1.,0.,0.));
#1233=DIRECTION('',(0.,1.,0.));
#1234=DIRECTION('center_axis',(1.,0.,0.));
#1235=DIRECTION('ref_axis',(0.,0.,-1.));
#1236=DIRECTION('',(0.,0.,1.));
#1237=DIRECTION('',(0.,0.,-1.));
#1238=DIRECTION('',(0.,1.,0.));
#1239=DIRECTION('center_axis',(0.,0.,1.));
#1240=DIRECTION('ref_axis',(1.,0.,0.));
#1241=DIRECTION('',(-1.,0.,0.));
#1242=DIRECTION('',(1.,0.,0.));
#1243=DIRECTION('center_axis',(0.,1.,0.));
#1244=DIRECTION('ref_axis',(0.,0.,1.));
#1245=DIRECTION('center_axis',(0.,0.,-1.));
#1246=DIRECTION('ref_axis',(-1.,0.,0.));
#1247=DIRECTION('',(1.,0.,0.));
#1248=DIRECTION('',(0.,1.,0.));
#1249=DIRECTION('',(-1.,0.,0.));
#1250=DIRECTION('',(0.,1.,0.));
#1251=DIRECTION('center_axis',(1.,0.,0.));
#1252=DIRECTION('ref_axis',(0.,0.,-1.));
#1253=DIRECTION('',(0.,0.,1.));
#1254=DIRECTION('',(0.,0.,-1.));
#1255=DIRECTION('',(0.,1.,0.));
#1256=DIRECTION('center_axis',(0.,0.,1.));
#1257=DIRECTION('ref_axis',(1.,0.,0.));
#1258=DIRECTION('',(-1.,0.,0.));
#1259=DIRECTION('',(1.,0.,0.));
#1260=DIRECTION('',(0.,1.,0.));
#1261=DIRECTION('center_axis',(-1.,0.,0.));
#1262=DIRECTION('ref_axis',(0.,0.,1.));
#1263=DIRECTION('',(0.,0.,-1.));
#1264=DIRECTION('',(0.,0.,1.));
#1265=DIRECTION('center_axis',(0.,1.,0.));
#1266=DIRECTION('ref_axis',(0.,0.,1.));
#1267=DIRECTION('center_axis',(0.,0.,-1.));
#1268=DIRECTION('ref_axis',(-1.,0.,0.));
#1269=DIRECTION('',(1.,0.,0.));
#1270=DIRECTION('',(0.,1.,0.));
#1271=DIRECTION('',(-1.,0.,0.));
#1272=DIRECTION('',(0.,1.,0.));
#1273=DIRECTION('center_axis',(1.,0.,0.));
#1274=DIRECTION('ref_axis',(0.,0.,-1.));
#1275=DIRECTION('',(0.,0.,1.));
#1276=DIRECTION('',(0.,0.,-1.));
#1277=DIRECTION('',(0.,1.,0.));
#1278=DIRECTION('center_axis',(0.,0.,1.));
#1279=DIRECTION('ref_axis',(1.,0.,0.));
#1280=DIRECTION('',(-1.,0.,0.));
#1281=DIRECTION('',(1.,0.,0.));
#1282=DIRECTION('',(0.,1.,0.));
#1283=DIRECTION('center_axis',(-1.,0.,0.));
#1284=DIRECTION('ref_axis',(0.,0.,1.));
#1285=DIRECTION('',(0.,0.,-1.));
#1286=DIRECTION('',(0.,0.,1.));
#1287=DIRECTION('center_axis',(0.,1.,0.));
#1288=DIRECTION('ref_axis',(0.,0.,1.));
#1289=DIRECTION('center_axis',(0.,0.,1.));
#1290=DIRECTION('ref_axis',(1.,0.,0.));
#1291=DIRECTION('',(-1.,0.,0.));
#1292=DIRECTION('',(0.,1.,0.));
#1293=DIRECTION('',(1.,0.,0.));
#1294=DIRECTION('',(0.,1.,0.));
#1295=DIRECTION('center_axis',(-1.,0.,0.));
#1296=DIRECTION('ref_axis',(0.,0.,1.));
#1297=DIRECTION('',(0.,0.,-1.));
#1298=DIRECTION('',(0.,0.,1.));
#1299=DIRECTION('',(0.,1.,0.));
#1300=DIRECTION('center_axis',(0.,0.,-1.));
#1301=DIRECTION('ref_axis',(-1.,0.,0.));
#1302=DIRECTION('',(1.,0.,0.));
#1303=DIRECTION('',(-1.,0.,0.));
#1304=DIRECTION('',(0.,1.,0.));
#1305=DIRECTION('center_axis',(1.,0.,0.));
#1306=DIRECTION('ref_axis',(0.,0.,-1.));
#1307=DIRECTION('',(0.,0.,1.));
#1308=DIRECTION('',(0.,0.,-1.));
#1309=DIRECTION('center_axis',(0.,1.,0.));
#1310=DIRECTION('ref_axis',(0.,0.,1.));
#1311=DIRECTION('center_axis',(0.,1.,0.));
#1312=DIRECTION('ref_axis',(0.,0.,1.));
#1313=DIRECTION('center_axis',(0.,-1.,0.));
#1314=DIRECTION('ref_axis',(0.,0.,1.));
#1315=DIRECTION('',(-1.04972719113862E-16,-0.515038074910054,0.857167300702112));
#1316=DIRECTION('center_axis',(0.,-1.,0.));
#1317=DIRECTION('ref_axis',(0.,0.,1.));
#1318=DIRECTION('center_axis',(0.,-1.,0.));
#1319=DIRECTION('ref_axis',(0.,0.,1.));
#1320=DIRECTION('',(0.,-1.,0.));
#1321=DIRECTION('center_axis',(0.,1.,0.));
#1322=DIRECTION('ref_axis',(0.,0.,1.));
#1323=DIRECTION('center_axis',(0.,-1.,0.));
#1324=DIRECTION('ref_axis',(0.,0.,1.));
#1325=DIRECTION('',(-1.04972719113862E-16,-0.515038074910054,0.857167300702112));
#1326=DIRECTION('center_axis',(0.,-1.,0.));
#1327=DIRECTION('ref_axis',(0.,0.,1.));
#1328=DIRECTION('center_axis',(0.,-1.,0.));
#1329=DIRECTION('ref_axis',(0.,0.,1.));
#1330=DIRECTION('',(0.,-1.,0.));
#1331=DIRECTION('center_axis',(0.,1.,0.));
#1332=DIRECTION('ref_axis',(0.,0.,1.));
#1333=DIRECTION('center_axis',(0.,-1.,0.));
#1334=DIRECTION('ref_axis',(0.,0.,1.));
#1335=DIRECTION('',(-1.04972719113862E-16,-0.515038074910054,0.857167300702112));
#1336=DIRECTION('center_axis',(0.,-1.,0.));
#1337=DIRECTION('ref_axis',(0.,0.,1.));
#1338=DIRECTION('center_axis',(0.,-1.,0.));
#1339=DIRECTION('ref_axis',(0.,0.,1.));
#1340=DIRECTION('',(0.,-1.,0.));
#1341=DIRECTION('center_axis',(0.,1.,0.));
#1342=DIRECTION('ref_axis',(0.,0.,1.));
#1343=DIRECTION('center_axis',(0.,-1.,0.));
#1344=DIRECTION('ref_axis',(0.,0.,1.));
#1345=DIRECTION('',(-1.04972719113862E-16,-0.515038074910054,0.857167300702112));
#1346=DIRECTION('center_axis',(0.,-1.,0.));
#1347=DIRECTION('ref_axis',(0.,0.,1.));
#1348=DIRECTION('center_axis',(0.,-1.,0.));
#1349=DIRECTION('ref_axis',(0.,0.,1.));
#1350=DIRECTION('',(0.,-1.,0.));
#1351=DIRECTION('center_axis',(-1.,0.,8.95341148891255E-17));
#1352=DIRECTION('ref_axis',(8.95341148891255E-17,0.,1.));
#1353=DIRECTION('',(-8.95341148891255E-17,0.,-1.));
#1354=DIRECTION('',(0.,1.,0.));
#1355=DIRECTION('',(8.95341148891255E-17,0.,1.));
#1356=DIRECTION('',(0.,1.,0.));
#1357=DIRECTION('center_axis',(1.28721510101467E-16,0.,-1.));
#1358=DIRECTION('ref_axis',(-1.,0.,-1.28721510101467E-16));
#1359=DIRECTION('',(1.,0.,1.28721510101467E-16));
#1360=DIRECTION('',(-1.,0.,-1.28721510101467E-16));
#1361=DIRECTION('',(0.,1.,0.));
#1362=DIRECTION('center_axis',(1.,0.,2.68602344667376E-16));
#1363=DIRECTION('ref_axis',(2.68602344667376E-16,0.,-1.));
#1364=DIRECTION('',(-2.68602344667376E-16,0.,1.));
#1365=DIRECTION('',(2.68602344667376E-16,0.,-1.));
#1366=DIRECTION('',(0.,1.,0.));
#1367=DIRECTION('center_axis',(-2.57443020202935E-16,0.,1.));
#1368=DIRECTION('ref_axis',(1.,0.,2.57443020202935E-16));
#1369=DIRECTION('',(-1.,0.,-2.57443020202935E-16));
#1370=DIRECTION('',(1.,0.,2.57443020202935E-16));
#1371=DIRECTION('center_axis',(0.,1.,0.));
#1372=DIRECTION('ref_axis',(-0.707106781186546,0.,-0.707106781186549));
#1373=DIRECTION('center_axis',(0.,-1.,0.));
#1374=DIRECTION('ref_axis',(-0.707106781186546,0.,-0.707106781186549));
#1375=DIRECTION('',(0.,-1.,0.));
#1376=DIRECTION('center_axis',(0.,1.,0.));
#1377=DIRECTION('ref_axis',(-0.707106781186546,0.,-0.707106781186549));
#1378=DIRECTION('',(0.,1.,0.));
#1379=DIRECTION('center_axis',(-1.,0.,0.));
#1380=DIRECTION('ref_axis',(0.,0.,1.));
#1381=DIRECTION('',(0.,0.,1.));
#1382=DIRECTION('',(0.,-1.,0.));
#1383=DIRECTION('',(0.,0.,1.));
#1384=DIRECTION('center_axis',(0.,1.,0.));
#1385=DIRECTION('ref_axis',(1.,0.,0.));
#1386=DIRECTION('',(-1.,0.,0.));
#1387=DIRECTION('center_axis',(0.,1.,0.));
#1388=DIRECTION('ref_axis',(0.707106781186546,0.,-0.707106781186549));
#1389=DIRECTION('',(0.,0.,-1.));
#1390=DIRECTION('center_axis',(0.,1.,0.));
#1391=DIRECTION('ref_axis',(0.707106781186546,0.,0.707106781186549));
#1392=DIRECTION('',(1.,0.,0.));
#1393=DIRECTION('center_axis',(0.,1.,0.));
#1394=DIRECTION('ref_axis',(-0.707106781186546,0.,0.707106781186549));
#1395=DIRECTION('center_axis',(0.,1.,0.));
#1396=DIRECTION('ref_axis',(-0.707106781186546,0.,0.707106781186549));
#1397=DIRECTION('center_axis',(0.,-1.,0.));
#1398=DIRECTION('ref_axis',(-0.707106781186546,0.,0.707106781186549));
#1399=DIRECTION('',(0.,1.,0.));
#1400=DIRECTION('center_axis',(0.,0.,1.));
#1401=DIRECTION('ref_axis',(1.,0.,0.));
#1402=DIRECTION('',(0.,-1.,0.));
#1403=DIRECTION('',(1.,0.,0.));
#1404=DIRECTION('center_axis',(0.,-1.,0.));
#1405=DIRECTION('ref_axis',(-0.707106781186546,0.,-0.707106781186549));
#1406=DIRECTION('center_axis',(0.,1.,0.));
#1407=DIRECTION('ref_axis',(-0.707106781186546,0.,-0.707106781186549));
#1408=DIRECTION('',(0.,1.,0.));
#1409=DIRECTION('center_axis',(0.,1.,0.));
#1410=DIRECTION('ref_axis',(-0.707106781186546,0.,-0.707106781186549));
#1411=DIRECTION('',(0.,-1.,0.));
#1412=DIRECTION('center_axis',(-1.,0.,0.));
#1413=DIRECTION('ref_axis',(0.,0.,-1.));
#1414=DIRECTION('',(0.,0.,-1.));
#1415=DIRECTION('',(0.,1.,0.));
#1416=DIRECTION('',(0.,0.,-1.));
#1417=DIRECTION('center_axis',(0.,-1.,0.));
#1418=DIRECTION('ref_axis',(-0.707106781186546,0.,0.707106781186549));
#1419=DIRECTION('center_axis',(0.,1.,0.));
#1420=DIRECTION('ref_axis',(-0.707106781186546,0.,0.707106781186549));
#1421=DIRECTION('center_axis',(0.,1.,0.));
#1422=DIRECTION('ref_axis',(-0.707106781186546,0.,0.707106781186549));
#1423=DIRECTION('',(0.,-1.,0.));
#1424=DIRECTION('center_axis',(0.,0.,1.));
#1425=DIRECTION('ref_axis',(-1.,0.,0.));
#1426=DIRECTION('',(-1.,0.,0.));
#1427=DIRECTION('',(0.,1.,0.));
#1428=DIRECTION('',(-1.,0.,0.));
#1429=DIRECTION('center_axis',(0.,1.,0.));
#1430=DIRECTION('ref_axis',(0.707106781186546,0.,-0.707106781186549));
#1431=DIRECTION('center_axis',(0.,-1.,0.));
#1432=DIRECTION('ref_axis',(0.707106781186546,0.,-0.707106781186549));
#1433=DIRECTION('',(0.,-1.,0.));
#1434=DIRECTION('',(0.,1.,0.));
#1435=DIRECTION('center_axis',(0.,0.,-1.));
#1436=DIRECTION('ref_axis',(-1.,0.,0.));
#1437=DIRECTION('',(-1.,0.,0.));
#1438=DIRECTION('center_axis',(0.,-1.,0.));
#1439=DIRECTION('ref_axis',(0.707106781186546,0.,-0.707106781186549));
#1440=DIRECTION('center_axis',(0.,1.,0.));
#1441=DIRECTION('ref_axis',(0.707106781186546,0.,-0.707106781186549));
#1442=DIRECTION('',(0.,1.,0.));
#1443=DIRECTION('center_axis',(0.,1.,0.));
#1444=DIRECTION('ref_axis',(0.707106781186546,0.,-0.707106781186549));
#1445=DIRECTION('',(0.,-1.,0.));
#1446=DIRECTION('center_axis',(0.,0.,-1.));
#1447=DIRECTION('ref_axis',(1.,0.,0.));
#1448=DIRECTION('',(1.,0.,0.));
#1449=DIRECTION('',(1.,0.,0.));
#1450=DIRECTION('center_axis',(0.,-1.,0.));
#1451=DIRECTION('ref_axis',(0.707106781186546,0.,0.707106781186549));
#1452=DIRECTION('center_axis',(0.,1.,0.));
#1453=DIRECTION('ref_axis',(0.707106781186546,0.,0.707106781186549));
#1454=DIRECTION('center_axis',(0.,1.,0.));
#1455=DIRECTION('ref_axis',(0.707106781186546,0.,0.707106781186549));
#1456=DIRECTION('',(0.,-1.,0.));
#1457=DIRECTION('center_axis',(1.,0.,0.));
#1458=DIRECTION('ref_axis',(0.,0.,1.));
#1459=DIRECTION('',(0.,0.,1.));
#1460=DIRECTION('',(0.,0.,1.));
#1461=DIRECTION('center_axis',(0.,1.,0.));
#1462=DIRECTION('ref_axis',(0.707106781186546,0.,0.707106781186549));
#1463=DIRECTION('center_axis',(0.,-1.,0.));
#1464=DIRECTION('ref_axis',(0.707106781186546,0.,0.707106781186549));
#1465=DIRECTION('',(0.,1.,0.));
#1466=DIRECTION('center_axis',(0.,1.,0.));
#1467=DIRECTION('ref_axis',(-1.,0.,0.));
#1468=DIRECTION('center_axis',(0.,1.,0.));
#1469=DIRECTION('ref_axis',(-1.,0.,0.));
#1470=DIRECTION('',(0.,-1.,0.));
#1471=DIRECTION('center_axis',(0.,-1.,0.));
#1472=DIRECTION('ref_axis',(-1.,0.,0.));
#1473=DIRECTION('center_axis',(0.,1.,0.));
#1474=DIRECTION('ref_axis',(-1.,0.,0.));
#1475=DIRECTION('center_axis',(0.,1.,0.));
#1476=DIRECTION('ref_axis',(-1.,0.,0.));
#1477=DIRECTION('center_axis',(0.,1.,0.));
#1478=DIRECTION('ref_axis',(-1.,0.,0.));
#1479=DIRECTION('',(0.,-1.,0.));
#1480=DIRECTION('center_axis',(0.,-1.,0.));
#1481=DIRECTION('ref_axis',(-1.,0.,0.));
#1482=DIRECTION('center_axis',(0.,1.,0.));
#1483=DIRECTION('ref_axis',(-1.,0.,0.));
#1484=DIRECTION('center_axis',(0.,1.,0.));
#1485=DIRECTION('ref_axis',(-1.,0.,0.));
#1486=DIRECTION('center_axis',(0.,1.,0.));
#1487=DIRECTION('ref_axis',(-1.,0.,0.));
#1488=DIRECTION('',(0.,-1.,0.));
#1489=DIRECTION('center_axis',(0.,-1.,0.));
#1490=DIRECTION('ref_axis',(-1.,0.,0.));
#1491=DIRECTION('center_axis',(0.,1.,0.));
#1492=DIRECTION('ref_axis',(-1.,0.,0.));
#1493=DIRECTION('center_axis',(0.,1.,0.));
#1494=DIRECTION('ref_axis',(-1.,0.,0.));
#1495=DIRECTION('center_axis',(0.,1.,0.));
#1496=DIRECTION('ref_axis',(-1.,0.,0.));
#1497=DIRECTION('',(0.,-1.,0.));
#1498=DIRECTION('center_axis',(0.,-1.,0.));
#1499=DIRECTION('ref_axis',(-1.,0.,0.));
#1500=DIRECTION('center_axis',(0.,1.,0.));
#1501=DIRECTION('ref_axis',(-1.,0.,0.));
#1502=DIRECTION('center_axis',(0.,-1.,0.));
#1503=DIRECTION('ref_axis',(0.,0.,-1.));
#1504=DIRECTION('',(0.,0.,1.));
#1505=DIRECTION('',(-1.,0.,0.));
#1506=DIRECTION('',(0.,0.,-1.));
#1507=DIRECTION('',(1.,0.,0.));
#1508=DIRECTION('center_axis',(0.,0.,-1.));
#1509=DIRECTION('ref_axis',(1.,0.,0.));
#1510=DIRECTION('',(0.,-1.,0.));
#1511=DIRECTION('',(1.,0.,0.));
#1512=DIRECTION('',(0.,-1.,0.));
#1513=DIRECTION('center_axis',(-1.,0.,0.));
#1514=DIRECTION('ref_axis',(0.,0.,-1.));
#1515=DIRECTION('',(0.,-1.,0.));
#1516=DIRECTION('',(0.,0.,-1.));
#1517=DIRECTION('center_axis',(0.,0.,1.));
#1518=DIRECTION('ref_axis',(-1.,0.,0.));
#1519=DIRECTION('',(0.,-1.,0.));
#1520=DIRECTION('',(-1.,0.,0.));
#1521=DIRECTION('center_axis',(1.,0.,0.));
#1522=DIRECTION('ref_axis',(0.,0.,1.));
#1523=DIRECTION('',(0.,0.,1.));
#1524=DIRECTION('center_axis',(0.,-1.,0.));
#1525=DIRECTION('ref_axis',(0.,0.,-1.));
#1526=DIRECTION('center_axis',(1.,0.,0.));
#1527=DIRECTION('ref_axis',(0.,0.,-1.));
#1528=DIRECTION('',(0.,0.,-1.));
#1529=DIRECTION('center_axis',(0.,1.,0.));
#1530=DIRECTION('ref_axis',(0.,0.,1.));
#1531=CARTESIAN_POINT('',(0.,0.,0.));
#1532=CARTESIAN_POINT('Origin',(-25.,3.,-27.5000003948808));
#1533=CARTESIAN_POINT('',(-25.,3.,-25.5000003948808));
#1534=CARTESIAN_POINT('',(-25.,3.,-27.5000003948808));
#1535=CARTESIAN_POINT('',(-25.,3.,-13.7500001974404));
#1536=CARTESIAN_POINT('',(-25.,5.,-25.5000003948808));
#1537=CARTESIAN_POINT('',(-25.,3.,-25.5000003948808));
#1538=CARTESIAN_POINT('',(-25.,5.,-27.5000003948808));
#1539=CARTESIAN_POINT('',(-25.,5.,-25.5000003948808));
#1540=CARTESIAN_POINT('',(-25.,3.,-27.5000003948808));
#1541=CARTESIAN_POINT('Origin',(25.,3.,-27.5000003948808));
#1542=CARTESIAN_POINT('',(25.,3.,-27.5000003948808));
#1543=CARTESIAN_POINT('',(12.5,3.,-27.5000003948808));
#1544=CARTESIAN_POINT('',(25.,5.,-27.5000003948808));
#1545=CARTESIAN_POINT('',(-25.,5.,-27.5000003948808));
#1546=CARTESIAN_POINT('',(25.,3.,-27.5000003948808));
#1547=CARTESIAN_POINT('Origin',(25.,3.,-25.5000003948808));
#1548=CARTESIAN_POINT('',(25.,3.,-25.5000003948808));
#1549=CARTESIAN_POINT('',(25.,3.,-12.7500001974404));
#1550=CARTESIAN_POINT('',(25.,5.,-25.5000003948808));
#1551=CARTESIAN_POINT('',(25.,5.,-27.5000003948808));
#1552=CARTESIAN_POINT('',(25.,3.,-25.5000003948808));
#1553=CARTESIAN_POINT('Origin',(-25.,3.,-25.5000003948808));
#1554=CARTESIAN_POINT('',(-12.5,3.,-25.5000003948808));
#1555=CARTESIAN_POINT('',(25.,5.,-25.5000003948808));
#1556=CARTESIAN_POINT('Origin',(0.,5.,-26.5000003948808));
#1557=CARTESIAN_POINT('Origin',(42.5,3.,-10.));
#1558=CARTESIAN_POINT('',(40.5,3.,-10.));
#1559=CARTESIAN_POINT('',(42.5,3.,-10.));
#1560=CARTESIAN_POINT('',(21.25,3.,-10.));
#1561=CARTESIAN_POINT('',(40.5,5.,-10.));
#1562=CARTESIAN_POINT('',(40.5,3.,-10.));
#1563=CARTESIAN_POINT('',(42.5,5.,-10.));
#1564=CARTESIAN_POINT('',(40.5,5.,-10.));
#1565=CARTESIAN_POINT('',(42.5,3.,-10.));
#1566=CARTESIAN_POINT('Origin',(42.5,3.,10.));
#1567=CARTESIAN_POINT('',(42.5,3.,10.));
#1568=CARTESIAN_POINT('',(42.5,3.,5.));
#1569=CARTESIAN_POINT('',(42.5,5.,10.));
#1570=CARTESIAN_POINT('',(42.5,5.,-10.));
#1571=CARTESIAN_POINT('',(42.5,3.,10.));
#1572=CARTESIAN_POINT('Origin',(40.5,3.,10.));
#1573=CARTESIAN_POINT('',(40.5,3.,10.));
#1574=CARTESIAN_POINT('',(20.25,3.,10.));
#1575=CARTESIAN_POINT('',(40.5,5.,10.));
#1576=CARTESIAN_POINT('',(42.5,5.,10.));
#1577=CARTESIAN_POINT('',(40.5,3.,10.));
#1578=CARTESIAN_POINT('Origin',(40.5,3.,-10.));
#1579=CARTESIAN_POINT('',(40.5,3.,-5.));
#1580=CARTESIAN_POINT('',(40.5,5.,10.));
#1581=CARTESIAN_POINT('Origin',(41.5,5.,0.));
#1582=CARTESIAN_POINT('Origin',(-40.5,3.,-10.));
#1583=CARTESIAN_POINT('',(-42.5,3.,-10.));
#1584=CARTESIAN_POINT('',(-40.5,3.,-10.));
#1585=CARTESIAN_POINT('',(-20.25,3.,-10.));
#1586=CARTESIAN_POINT('',(-42.5,5.,-10.));
#1587=CARTESIAN_POINT('',(-42.5,3.,-10.));
#1588=CARTESIAN_POINT('',(-40.5,5.,-10.));
#1589=CARTESIAN_POINT('',(-40.5,5.,-10.));
#1590=CARTESIAN_POINT('',(-40.5,3.,-10.));
#1591=CARTESIAN_POINT('Origin',(-40.5,3.,10.));
#1592=CARTESIAN_POINT('',(-40.5,3.,10.));
#1593=CARTESIAN_POINT('',(-40.5,3.,5.));
#1594=CARTESIAN_POINT('',(-40.5,5.,10.));
#1595=CARTESIAN_POINT('',(-40.5,5.,10.));
#1596=CARTESIAN_POINT('',(-40.5,3.,10.));
#1597=CARTESIAN_POINT('Origin',(-42.5,3.,10.));
#1598=CARTESIAN_POINT('',(-42.5,3.,10.));
#1599=CARTESIAN_POINT('',(-21.25,3.,10.));
#1600=CARTESIAN_POINT('',(-42.5,5.,10.));
#1601=CARTESIAN_POINT('',(-42.5,5.,10.));
#1602=CARTESIAN_POINT('',(-42.5,3.,10.));
#1603=CARTESIAN_POINT('Origin',(-42.5,3.,-10.));
#1604=CARTESIAN_POINT('',(-42.5,3.,-5.));
#1605=CARTESIAN_POINT('',(-42.5,5.,-10.));
#1606=CARTESIAN_POINT('Origin',(-41.5,5.,0.));
#1607=CARTESIAN_POINT('Origin',(-25.,3.,27.5000003948808));
#1608=CARTESIAN_POINT('',(25.,3.,27.5000003948808));
#1609=CARTESIAN_POINT('',(-25.,3.,27.5000003948808));
#1610=CARTESIAN_POINT('',(-12.5,3.,27.5000003948808));
#1611=CARTESIAN_POINT('',(25.,5.,27.5000003948808));
#1612=CARTESIAN_POINT('',(25.,3.,27.5000003948808));
#1613=CARTESIAN_POINT('',(-25.,5.,27.5000003948808));
#1614=CARTESIAN_POINT('',(-25.,5.,27.5000003948808));
#1615=CARTESIAN_POINT('',(-25.,3.,27.5000003948808));
#1616=CARTESIAN_POINT('Origin',(-25.,3.,25.5000003948808));
#1617=CARTESIAN_POINT('',(-25.,3.,25.5000003948808));
#1618=CARTESIAN_POINT('',(-25.,3.,12.7500001974404));
#1619=CARTESIAN_POINT('',(-25.,5.,25.5000003948808));
#1620=CARTESIAN_POINT('',(-25.,5.,25.5000003948808));
#1621=CARTESIAN_POINT('',(-25.,3.,25.5000003948808));
#1622=CARTESIAN_POINT('Origin',(25.,3.,25.5000003948808));
#1623=CARTESIAN_POINT('',(25.,3.,25.5000003948808));
#1624=CARTESIAN_POINT('',(12.5,3.,25.5000003948808));
#1625=CARTESIAN_POINT('',(25.,5.,25.5000003948808));
#1626=CARTESIAN_POINT('',(25.,5.,25.5000003948808));
#1627=CARTESIAN_POINT('',(25.,3.,25.5000003948808));
#1628=CARTESIAN_POINT('Origin',(25.,3.,27.5000003948808));
#1629=CARTESIAN_POINT('',(25.,3.,13.7500001974404));
#1630=CARTESIAN_POINT('',(25.,5.,27.5000003948808));
#1631=CARTESIAN_POINT('Origin',(0.,5.,26.5000003948808));
#1632=CARTESIAN_POINT('Origin',(47.5,12.7562008038296,-22.5));
#1633=CARTESIAN_POINT('',(47.5,13.,-23.3115));
#1634=CARTESIAN_POINT('Origin',(47.5,13.,-22.5));
#1635=CARTESIAN_POINT('',(47.5,12.5124016076591,-22.5));
#1636=CARTESIAN_POINT('',(47.5,12.7562008038296,-22.90575));
#1637=CARTESIAN_POINT('Origin',(47.5,17.5,-22.5));
#1638=CARTESIAN_POINT('',(47.5,22.,-23.3115));
#1639=CARTESIAN_POINT('Origin',(47.5,22.,-22.5));
#1640=CARTESIAN_POINT('',(47.5,17.5,-23.3115));
#1641=CARTESIAN_POINT('Origin',(-47.5,12.7562008038296,-22.5));
#1642=CARTESIAN_POINT('',(-47.5,13.,-23.3115));
#1643=CARTESIAN_POINT('Origin',(-47.5,13.,-22.5));
#1644=CARTESIAN_POINT('',(-47.5,12.5124016076591,-22.5));
#1645=CARTESIAN_POINT('',(-47.5,12.7562008038296,-22.90575));
#1646=CARTESIAN_POINT('Origin',(-47.5,17.5,-22.5));
#1647=CARTESIAN_POINT('',(-47.5,22.,-23.3115));
#1648=CARTESIAN_POINT('Origin',(-47.5,22.,-22.5));
#1649=CARTESIAN_POINT('',(-47.5,17.5,-23.3115));
#1650=CARTESIAN_POINT('Origin',(-47.5,12.7562008038296,22.5));
#1651=CARTESIAN_POINT('',(-47.5,13.,21.6885));
#1652=CARTESIAN_POINT('Origin',(-47.5,13.,22.5));
#1653=CARTESIAN_POINT('',(-47.5,12.5124016076591,22.5));
#1654=CARTESIAN_POINT('',(-47.5,12.7562008038296,22.09425));
#1655=CARTESIAN_POINT('Origin',(-47.5,17.5,22.5));
#1656=CARTESIAN_POINT('',(-47.5,22.,21.6885));
#1657=CARTESIAN_POINT('Origin',(-47.5,22.,22.5));
#1658=CARTESIAN_POINT('',(-47.5,17.5,21.6885));
#1659=CARTESIAN_POINT('Origin',(47.5412325291239,12.7562008038296,22.2972480207949));
#1660=CARTESIAN_POINT('',(47.5412325291239,13.,21.4857480207949));
#1661=CARTESIAN_POINT('Origin',(47.5412325291239,13.,22.2972480207949));
#1662=CARTESIAN_POINT('',(47.5412325291239,12.5124016076591,22.2972480207949));
#1663=CARTESIAN_POINT('',(47.5412325291239,12.7562008038296,21.8914980207949));
#1664=CARTESIAN_POINT('Origin',(47.5412325291239,17.5,22.2972480207949));
#1665=CARTESIAN_POINT('',(47.5412325291239,22.,21.4857480207949));
#1666=CARTESIAN_POINT('Origin',(47.5412325291239,22.,22.2972480207949));
#1667=CARTESIAN_POINT('',(47.5412325291239,17.5,21.4857480207949));
#1668=CARTESIAN_POINT('Origin',(-34.5,0.,-24.7999999999983));
#1669=CARTESIAN_POINT('',(-34.5,3.,24.8000000000017));
#1670=CARTESIAN_POINT('',(-34.5,3.,-24.7999999999983));
#1671=CARTESIAN_POINT('',(-34.5,3.,-12.3999999999992));
#1672=CARTESIAN_POINT('',(-34.5,0.,24.8000000000017));
#1673=CARTESIAN_POINT('',(-34.5,0.,24.8000000000017));
#1674=CARTESIAN_POINT('',(-34.5,0.,-24.7999999999983));
#1675=CARTESIAN_POINT('',(-34.5,0.,-12.3999999999992));
#1676=CARTESIAN_POINT('',(-34.5,0.,-24.7999999999983));
#1677=CARTESIAN_POINT('Origin',(34.5,0.,-24.7999999999983));
#1678=CARTESIAN_POINT('',(34.5,3.,-24.7999999999983));
#1679=CARTESIAN_POINT('',(17.25,3.,-24.7999999999983));
#1680=CARTESIAN_POINT('',(34.5,0.,-24.7999999999983));
#1681=CARTESIAN_POINT('',(17.25,0.,-24.7999999999983));
#1682=CARTESIAN_POINT('',(34.5,0.,-24.7999999999983));
#1683=CARTESIAN_POINT('Origin',(34.5,0.,24.8000000000017));
#1684=CARTESIAN_POINT('',(34.5,3.,24.8000000000017));
#1685=CARTESIAN_POINT('',(34.5,3.,12.4000000000009));
#1686=CARTESIAN_POINT('',(34.5,0.,24.8000000000017));
#1687=CARTESIAN_POINT('',(34.5,0.,12.4000000000009));
#1688=CARTESIAN_POINT('',(34.5,0.,24.8000000000017));
#1689=CARTESIAN_POINT('Origin',(-34.5,0.,24.8000000000017));
#1690=CARTESIAN_POINT('',(-17.25,3.,24.8000000000017));
#1691=CARTESIAN_POINT('',(-17.25,0.,24.8000000000017));
#1692=CARTESIAN_POINT('Origin',(-55.,0.,-29.5));
#1693=CARTESIAN_POINT('',(-57.,10.,-29.5));
#1694=CARTESIAN_POINT('',(-55.,10.,-31.5));
#1695=CARTESIAN_POINT('Origin',(-55.,10.,-29.5));
#1696=CARTESIAN_POINT('',(-55.,0.,-31.5));
#1697=CARTESIAN_POINT('',(-55.,0.,-31.5));
#1698=CARTESIAN_POINT('',(-57.,0.,-29.5));
#1699=CARTESIAN_POINT('Origin',(-55.,0.,-29.5));
#1700=CARTESIAN_POINT('',(-57.,0.,-29.5));
#1701=CARTESIAN_POINT('Origin',(-57.,0.,-31.5));
#1702=CARTESIAN_POINT('',(-57.,0.,29.5));
#1703=CARTESIAN_POINT('',(-57.,0.,-31.5));
#1704=CARTESIAN_POINT('',(-57.,10.,29.5));
#1705=CARTESIAN_POINT('',(-57.,0.,29.5));
#1706=CARTESIAN_POINT('',(-57.,10.,-31.5));
#1707=CARTESIAN_POINT('Origin',(0.,0.,0.));
#1708=CARTESIAN_POINT('',(55.,0.,-31.5));
#1709=CARTESIAN_POINT('',(57.,0.,-31.5));
#1710=CARTESIAN_POINT('',(57.,0.,-29.5));
#1711=CARTESIAN_POINT('Origin',(55.,0.,-29.5));
#1712=CARTESIAN_POINT('',(57.,0.,29.5));
#1713=CARTESIAN_POINT('',(57.,0.,31.5));
#1714=CARTESIAN_POINT('',(55.,0.,31.5));
#1715=CARTESIAN_POINT('Origin',(55.,0.,29.5));
#1716=CARTESIAN_POINT('',(-55.,0.,31.5));
#1717=CARTESIAN_POINT('',(-57.,0.,31.5));
#1718=CARTESIAN_POINT('Origin',(-55.,0.,29.5));
#1719=CARTESIAN_POINT('Origin',(-55.,0.,29.5));
#1720=CARTESIAN_POINT('',(-55.,10.,31.5));
#1721=CARTESIAN_POINT('Origin',(-55.,10.,29.5));
#1722=CARTESIAN_POINT('',(-55.,0.,31.5));
#1723=CARTESIAN_POINT('Origin',(-57.,0.,31.5));
#1724=CARTESIAN_POINT('',(55.,10.,31.5));
#1725=CARTESIAN_POINT('',(55.,0.,31.5));
#1726=CARTESIAN_POINT('',(-57.,10.,31.5));
#1727=CARTESIAN_POINT('Origin',(-52.5,10.,-28.));
#1728=CARTESIAN_POINT('',(-52.5,8.5,-30.));
#1729=CARTESIAN_POINT('',(-54.5,8.5,-28.));
#1730=CARTESIAN_POINT('Origin',(-52.5,8.5,-28.));
#1731=CARTESIAN_POINT('',(-52.5,10.,-30.));
#1732=CARTESIAN_POINT('',(-52.5,10.,-30.));
#1733=CARTESIAN_POINT('',(-54.5,10.,-28.));
#1734=CARTESIAN_POINT('Origin',(-52.5,10.,-28.));
#1735=CARTESIAN_POINT('',(-54.5,10.,-28.));
#1736=CARTESIAN_POINT('Origin',(-54.5,10.,30.));
#1737=CARTESIAN_POINT('',(-54.5,10.,28.));
#1738=CARTESIAN_POINT('',(-54.5,10.,15.));
#1739=CARTESIAN_POINT('',(-54.5,8.5,28.));
#1740=CARTESIAN_POINT('',(-54.5,10.,28.));
#1741=CARTESIAN_POINT('',(-54.5,8.5,30.));
#1742=CARTESIAN_POINT('Origin',(-52.5,10.,28.));
#1743=CARTESIAN_POINT('',(-52.5,8.5,30.));
#1744=CARTESIAN_POINT('Origin',(-52.5,8.5,28.));
#1745=CARTESIAN_POINT('',(-52.5,10.,30.));
#1746=CARTESIAN_POINT('Origin',(-52.5,10.,28.));
#1747=CARTESIAN_POINT('',(-52.5,10.,30.));
#1748=CARTESIAN_POINT('Origin',(54.5,10.,30.));
#1749=CARTESIAN_POINT('',(52.5,10.,30.));
#1750=CARTESIAN_POINT('',(27.25,10.,30.));
#1751=CARTESIAN_POINT('',(52.5,8.5,30.));
#1752=CARTESIAN_POINT('',(52.5,10.,30.));
#1753=CARTESIAN_POINT('',(54.5,8.5,30.));
#1754=CARTESIAN_POINT('Origin',(55.,0.,-29.5));
#1755=CARTESIAN_POINT('',(55.,10.,-31.5));
#1756=CARTESIAN_POINT('',(57.,10.,-29.5));
#1757=CARTESIAN_POINT('Origin',(55.,10.,-29.5));
#1758=CARTESIAN_POINT('',(57.,0.,-29.5));
#1759=CARTESIAN_POINT('',(55.,0.,-31.5));
#1760=CARTESIAN_POINT('Origin',(57.,0.,-31.5));
#1761=CARTESIAN_POINT('',(57.,10.,-31.5));
#1762=CARTESIAN_POINT('Origin',(52.5,10.,-28.));
#1763=CARTESIAN_POINT('',(54.5,8.5,-28.));
#1764=CARTESIAN_POINT('',(52.5,8.5,-30.));
#1765=CARTESIAN_POINT('Origin',(52.5,8.5,-28.));
#1766=CARTESIAN_POINT('',(54.5,10.,-28.));
#1767=CARTESIAN_POINT('',(54.5,10.,-28.));
#1768=CARTESIAN_POINT('',(52.5,10.,-30.));
#1769=CARTESIAN_POINT('Origin',(52.5,10.,-28.));
#1770=CARTESIAN_POINT('',(52.5,10.,-30.));
#1771=CARTESIAN_POINT('Origin',(-54.5,10.,-30.));
#1772=CARTESIAN_POINT('',(-54.5,8.5,-30.));
#1773=CARTESIAN_POINT('',(-27.25,10.,-30.));
#1774=CARTESIAN_POINT('Origin',(52.5,10.,28.));
#1775=CARTESIAN_POINT('',(54.5,8.5,28.));
#1776=CARTESIAN_POINT('Origin',(52.5,8.5,28.));
#1777=CARTESIAN_POINT('',(54.5,10.,28.));
#1778=CARTESIAN_POINT('Origin',(52.5,10.,28.));
#1779=CARTESIAN_POINT('',(54.5,10.,28.));
#1780=CARTESIAN_POINT('Origin',(54.5,10.,-30.));
#1781=CARTESIAN_POINT('',(54.5,8.5,-30.));
#1782=CARTESIAN_POINT('',(54.5,10.,-15.));
#1783=CARTESIAN_POINT('Origin',(55.,0.,29.5));
#1784=CARTESIAN_POINT('',(57.,10.,29.5));
#1785=CARTESIAN_POINT('Origin',(55.,10.,29.5));
#1786=CARTESIAN_POINT('',(57.,0.,29.5));
#1787=CARTESIAN_POINT('Origin',(47.5,3.,-22.5));
#1788=CARTESIAN_POINT('',(49.75,22.,-22.5));
#1789=CARTESIAN_POINT('Origin',(47.5,22.,-22.5));
#1790=CARTESIAN_POINT('',(49.75,3.,-22.5));
#1791=CARTESIAN_POINT('',(49.75,3.,-22.5));
#1792=CARTESIAN_POINT('Origin',(47.5,3.,-22.5));
#1793=CARTESIAN_POINT('Origin',(47.5,22.,-22.5));
#1794=CARTESIAN_POINT('Origin',(47.5,3.,22.5));
#1795=CARTESIAN_POINT('',(49.75,22.,22.5));
#1796=CARTESIAN_POINT('Origin',(47.5,22.,22.5));
#1797=CARTESIAN_POINT('',(49.75,3.,22.5));
#1798=CARTESIAN_POINT('',(49.75,3.,22.5));
#1799=CARTESIAN_POINT('Origin',(47.5,3.,22.5));
#1800=CARTESIAN_POINT('Origin',(47.5,22.,22.5));
#1801=CARTESIAN_POINT('Origin',(-47.5,3.,-22.5));
#1802=CARTESIAN_POINT('',(-45.25,22.,-22.5));
#1803=CARTESIAN_POINT('Origin',(-47.5,22.,-22.5));
#1804=CARTESIAN_POINT('',(-45.25,3.,-22.5));
#1805=CARTESIAN_POINT('',(-45.25,3.,-22.5));
#1806=CARTESIAN_POINT('Origin',(-47.5,3.,-22.5));
#1807=CARTESIAN_POINT('Origin',(-47.5,22.,-22.5));
#1808=CARTESIAN_POINT('Origin',(-47.5,3.,22.5));
#1809=CARTESIAN_POINT('',(-45.25,22.,22.5));
#1810=CARTESIAN_POINT('Origin',(-47.5,22.,22.5));
#1811=CARTESIAN_POINT('',(-45.25,3.,22.5));
#1812=CARTESIAN_POINT('',(-45.25,3.,22.5));
#1813=CARTESIAN_POINT('Origin',(-47.5,3.,22.5));
#1814=CARTESIAN_POINT('Origin',(-47.5,22.,22.5));
#1815=CARTESIAN_POINT('Origin',(0.,8.5,0.));
#1816=CARTESIAN_POINT('',(-52.,8.5,-28.5));
#1817=CARTESIAN_POINT('',(-52.,8.5,28.5));
#1818=CARTESIAN_POINT('',(-52.,8.5,14.25));
#1819=CARTESIAN_POINT('',(52.,8.5,-28.5));
#1820=CARTESIAN_POINT('',(-26.,8.5,-28.5));
#1821=CARTESIAN_POINT('',(52.,8.5,28.5));
#1822=CARTESIAN_POINT('',(52.,8.5,-14.25));
#1823=CARTESIAN_POINT('',(26.,8.5,28.5));
#1824=CARTESIAN_POINT('Origin',(-52.,10.,-28.5));
#1825=CARTESIAN_POINT('',(-52.,3.,-28.5));
#1826=CARTESIAN_POINT('',(-52.,10.,-28.5));
#1827=CARTESIAN_POINT('',(52.,3.,-28.5));
#1828=CARTESIAN_POINT('',(-52.,3.,-28.5));
#1829=CARTESIAN_POINT('',(52.,10.,-28.5));
#1830=CARTESIAN_POINT('Origin',(-52.,10.,28.5));
#1831=CARTESIAN_POINT('',(-52.,3.,28.5));
#1832=CARTESIAN_POINT('',(-52.,10.,28.5));
#1833=CARTESIAN_POINT('',(-52.,3.,28.5));
#1834=CARTESIAN_POINT('Origin',(52.,10.,28.5));
#1835=CARTESIAN_POINT('',(52.,3.,28.5));
#1836=CARTESIAN_POINT('',(52.,10.,28.5));
#1837=CARTESIAN_POINT('',(52.,3.,28.5));
#1838=CARTESIAN_POINT('Origin',(52.,10.,-28.5));
#1839=CARTESIAN_POINT('',(52.,3.,-28.5));
#1840=CARTESIAN_POINT('Origin',(0.,3.,0.));
#1841=CARTESIAN_POINT('Origin',(57.,0.,31.5));
#1842=CARTESIAN_POINT('',(57.,10.,31.5));
#1843=CARTESIAN_POINT('Origin',(0.,10.,0.));
#1844=UNCERTAINTY_MEASURE_WITH_UNIT(LENGTH_MEASURE(0.01),#1848,
'DISTANCE_ACCURACY_VALUE',
'Maximum model space distance between geometric entities at asserted c
onnectivities');
#1845=UNCERTAINTY_MEASURE_WITH_UNIT(LENGTH_MEASURE(0.01),#1848,
'DISTANCE_ACCURACY_VALUE',
'Maximum model space distance between geometric entities at asserted c
onnectivities');
#1846=(
GEOMETRIC_REPRESENTATION_CONTEXT(3)
GLOBAL_UNCERTAINTY_ASSIGNED_CONTEXT((#1844))
GLOBAL_UNIT_ASSIGNED_CONTEXT((#1848,#1850,#1851))
REPRESENTATION_CONTEXT('','3D')
);
#1847=(
GEOMETRIC_REPRESENTATION_CONTEXT(3)
GLOBAL_UNCERTAINTY_ASSIGNED_CONTEXT((#1845))
GLOBAL_UNIT_ASSIGNED_CONTEXT((#1848,#1850,#1851))
REPRESENTATION_CONTEXT('','3D')
);
#1848=(
LENGTH_UNIT()
NAMED_UNIT(*)
SI_UNIT(.MILLI.,.METRE.)
);
#1849=(
LENGTH_UNIT()
NAMED_UNIT(*)
SI_UNIT($,.METRE.)
);
#1850=(
NAMED_UNIT(*)
PLANE_ANGLE_UNIT()
SI_UNIT($,.RADIAN.)
);
#1851=(
NAMED_UNIT(*)
SI_UNIT($,.STERADIAN.)
SOLID_ANGLE_UNIT()
);
#1852=SHAPE_DEFINITION_REPRESENTATION(#1853,#1854);
#1853=PRODUCT_DEFINITION_SHAPE('',$,#1856);
#1854=SHAPE_REPRESENTATION('',(#1124),#1846);
#1855=PRODUCT_DEFINITION_CONTEXT('part definition',#1860,'design');
#1856=PRODUCT_DEFINITION('2026-04-11-22-00-28-347',
'Wecker Case Vorne redesign',#1857,#1855);
#1857=PRODUCT_DEFINITION_FORMATION('',$,#1862);
#1858=PRODUCT_RELATED_PRODUCT_CATEGORY('Wecker Case Vorne redesign',
'Wecker Case Vorne redesign',(#1862));
#1859=APPLICATION_PROTOCOL_DEFINITION('international standard',
'automotive_design',2009,#1860);
#1860=APPLICATION_CONTEXT(
'Core Data for Automotive Mechanical Design Process');
#1861=PRODUCT_CONTEXT('part definition',#1860,'mechanical');
#1862=PRODUCT('2026-04-11-22-00-28-347','Wecker Case Vorne redesign',$,
(#1861));
#1863=PRESENTATION_STYLE_ASSIGNMENT((#1864));
#1864=SURFACE_STYLE_USAGE(.BOTH.,#1865);
#1865=SURFACE_SIDE_STYLE('',(#1866));
#1866=SURFACE_STYLE_FILL_AREA(#1867);
#1867=FILL_AREA_STYLE('Stahl - satiniert',(#1868));
#1868=FILL_AREA_STYLE_COLOUR('Stahl - satiniert',#1869);
#1869=COLOUR_RGB('Stahl - satiniert',0.627450980392157,0.627450980392157,
0.627450980392157);
ENDSEC;
END-ISO-10303-21;
