ISO-10303-21;
HEADER;
/* Generated by software containing ST-Developer
 * from STEP Tools, Inc. (www.steptools.com) 
 */

FILE_DESCRIPTION(
/* description */ (''),
/* implementation_level */ '2;1');

FILE_NAME(
/* name */ 'ESP32 Alarm Clock Back.step',
/* time_stamp */ '2026-05-09T21:27:42+02:00',
/* author */ (''),
/* organization */ (''),
/* preprocessor_version */ 'ST-DEVELOPER v20.1',
/* originating_system */ 'Autodesk Translation Framework v15.8.0.0',
/* authorisation */ '');

FILE_SCHEMA (('AUTOMOTIVE_DESIGN { 1 0 10303 214 3 1 1 }'));
ENDSEC;

DATA;
#10=MECHANICAL_DESIGN_GEOMETRIC_PRESENTATION_REPRESENTATION('',(#13),#1807);
#11=SHAPE_REPRESENTATION_RELATIONSHIP('SRR','None',#1814,#12);
#12=ADVANCED_BREP_SHAPE_REPRESENTATION('',(#14),#1806);
#13=STYLED_ITEM('',(#1823),#14);
#14=MANIFOLD_SOLID_BREP('K\X\F6rper1',#1083);
#15=CYLINDRICAL_SURFACE('',#1116,2.15);
#16=CYLINDRICAL_SURFACE('',#1118,1.15);
#17=CYLINDRICAL_SURFACE('',#1123,2.15);
#18=CYLINDRICAL_SURFACE('',#1125,1.15);
#19=CYLINDRICAL_SURFACE('',#1130,2.15);
#20=CYLINDRICAL_SURFACE('',#1132,1.15);
#21=CYLINDRICAL_SURFACE('',#1137,2.15);
#22=CYLINDRICAL_SURFACE('',#1139,1.15);
#23=CYLINDRICAL_SURFACE('',#1141,2.);
#24=CYLINDRICAL_SURFACE('',#1149,2.);
#25=CYLINDRICAL_SURFACE('',#1160,2.);
#26=CYLINDRICAL_SURFACE('',#1162,2.);
#27=CYLINDRICAL_SURFACE('',#1165,2.);
#28=CYLINDRICAL_SURFACE('',#1168,2.);
#29=CYLINDRICAL_SURFACE('',#1170,2.);
#30=CYLINDRICAL_SURFACE('',#1171,2.);
#31=CYLINDRICAL_SURFACE('',#1174,2.5);
#32=CYLINDRICAL_SURFACE('',#1178,2.5);
#33=CYLINDRICAL_SURFACE('',#1182,2.5);
#34=CYLINDRICAL_SURFACE('',#1186,2.5);
#35=FACE_BOUND('',#178,.T.);
#36=FACE_BOUND('',#182,.T.);
#37=FACE_BOUND('',#186,.T.);
#38=FACE_BOUND('',#190,.T.);
#39=FACE_BOUND('',#196,.T.);
#40=FACE_BOUND('',#200,.T.);
#41=FACE_BOUND('',#207,.T.);
#42=FACE_BOUND('',#213,.T.);
#43=FACE_BOUND('',#214,.T.);
#44=FACE_BOUND('',#215,.T.);
#45=FACE_BOUND('',#218,.T.);
#46=FACE_BOUND('',#221,.T.);
#47=FACE_BOUND('',#224,.T.);
#48=FACE_BOUND('',#227,.T.);
#49=FACE_BOUND('',#231,.T.);
#50=FACE_BOUND('',#232,.T.);
#51=FACE_BOUND('',#233,.T.);
#52=FACE_BOUND('',#235,.T.);
#53=FACE_BOUND('',#238,.T.);
#54=FACE_BOUND('',#239,.T.);
#55=FACE_BOUND('',#240,.T.);
#56=FACE_BOUND('',#241,.T.);
#57=FACE_BOUND('',#243,.T.);
#58=FACE_BOUND('',#244,.T.);
#59=FACE_BOUND('',#245,.T.);
#60=FACE_BOUND('',#246,.T.);
#61=CIRCLE('',#1114,2.15);
#62=CIRCLE('',#1115,1.15);
#63=CIRCLE('',#1117,2.15);
#64=CIRCLE('',#1119,1.15);
#65=CIRCLE('',#1121,2.15);
#66=CIRCLE('',#1122,1.15);
#67=CIRCLE('',#1124,2.15);
#68=CIRCLE('',#1126,1.15);
#69=CIRCLE('',#1128,2.15);
#70=CIRCLE('',#1129,1.15);
#71=CIRCLE('',#1131,2.15);
#72=CIRCLE('',#1133,1.15);
#73=CIRCLE('',#1135,2.15);
#74=CIRCLE('',#1136,1.15);
#75=CIRCLE('',#1138,2.15);
#76=CIRCLE('',#1140,1.15);
#77=CIRCLE('',#1142,2.);
#78=CIRCLE('',#1143,2.);
#79=CIRCLE('',#1146,2.);
#80=CIRCLE('',#1147,2.);
#81=CIRCLE('',#1148,2.);
#82=CIRCLE('',#1150,2.);
#83=CIRCLE('',#1151,2.);
#84=CIRCLE('',#1154,2.);
#85=CIRCLE('',#1155,2.);
#86=CIRCLE('',#1156,2.);
#87=CIRCLE('',#1157,2.);
#88=CIRCLE('',#1158,2.);
#89=CIRCLE('',#1159,2.);
#90=CIRCLE('',#1163,2.);
#91=CIRCLE('',#1166,2.);
#92=CIRCLE('',#1172,2.);
#93=CIRCLE('',#1175,2.5);
#94=CIRCLE('',#1176,2.5);
#95=CIRCLE('',#1179,2.5);
#96=CIRCLE('',#1180,2.5);
#97=CIRCLE('',#1183,2.5);
#98=CIRCLE('',#1184,2.5);
#99=CIRCLE('',#1187,2.5);
#100=CIRCLE('',#1188,2.5);
#101=FACE_OUTER_BOUND('',#161,.T.);
#102=FACE_OUTER_BOUND('',#162,.T.);
#103=FACE_OUTER_BOUND('',#163,.T.);
#104=FACE_OUTER_BOUND('',#164,.T.);
#105=FACE_OUTER_BOUND('',#165,.T.);
#106=FACE_OUTER_BOUND('',#166,.T.);
#107=FACE_OUTER_BOUND('',#167,.T.);
#108=FACE_OUTER_BOUND('',#168,.T.);
#109=FACE_OUTER_BOUND('',#169,.T.);
#110=FACE_OUTER_BOUND('',#170,.T.);
#111=FACE_OUTER_BOUND('',#171,.T.);
#112=FACE_OUTER_BOUND('',#172,.T.);
#113=FACE_OUTER_BOUND('',#173,.T.);
#114=FACE_OUTER_BOUND('',#174,.T.);
#115=FACE_OUTER_BOUND('',#175,.T.);
#116=FACE_OUTER_BOUND('',#176,.T.);
#117=FACE_OUTER_BOUND('',#177,.T.);
#118=FACE_OUTER_BOUND('',#179,.T.);
#119=FACE_OUTER_BOUND('',#180,.T.);
#120=FACE_OUTER_BOUND('',#181,.T.);
#121=FACE_OUTER_BOUND('',#183,.T.);
#122=FACE_OUTER_BOUND('',#184,.T.);
#123=FACE_OUTER_BOUND('',#185,.T.);
#124=FACE_OUTER_BOUND('',#187,.T.);
#125=FACE_OUTER_BOUND('',#188,.T.);
#126=FACE_OUTER_BOUND('',#189,.T.);
#127=FACE_OUTER_BOUND('',#191,.T.);
#128=FACE_OUTER_BOUND('',#192,.T.);
#129=FACE_OUTER_BOUND('',#193,.T.);
#130=FACE_OUTER_BOUND('',#194,.T.);
#131=FACE_OUTER_BOUND('',#195,.T.);
#132=FACE_OUTER_BOUND('',#197,.T.);
#133=FACE_OUTER_BOUND('',#198,.T.);
#134=FACE_OUTER_BOUND('',#199,.T.);
#135=FACE_OUTER_BOUND('',#201,.T.);
#136=FACE_OUTER_BOUND('',#202,.T.);
#137=FACE_OUTER_BOUND('',#203,.T.);
#138=FACE_OUTER_BOUND('',#204,.T.);
#139=FACE_OUTER_BOUND('',#205,.T.);
#140=FACE_OUTER_BOUND('',#206,.T.);
#141=FACE_OUTER_BOUND('',#208,.T.);
#142=FACE_OUTER_BOUND('',#209,.T.);
#143=FACE_OUTER_BOUND('',#210,.T.);
#144=FACE_OUTER_BOUND('',#211,.T.);
#145=FACE_OUTER_BOUND('',#212,.T.);
#146=FACE_OUTER_BOUND('',#216,.T.);
#147=FACE_OUTER_BOUND('',#217,.T.);
#148=FACE_OUTER_BOUND('',#219,.T.);
#149=FACE_OUTER_BOUND('',#220,.T.);
#150=FACE_OUTER_BOUND('',#222,.T.);
#151=FACE_OUTER_BOUND('',#223,.T.);
#152=FACE_OUTER_BOUND('',#225,.T.);
#153=FACE_OUTER_BOUND('',#226,.T.);
#154=FACE_OUTER_BOUND('',#228,.T.);
#155=FACE_OUTER_BOUND('',#229,.T.);
#156=FACE_OUTER_BOUND('',#230,.T.);
#157=FACE_OUTER_BOUND('',#234,.T.);
#158=FACE_OUTER_BOUND('',#236,.T.);
#159=FACE_OUTER_BOUND('',#237,.T.);
#160=FACE_OUTER_BOUND('',#242,.T.);
#161=EDGE_LOOP('',(#695,#696,#697,#698));
#162=EDGE_LOOP('',(#699,#700,#701,#702));
#163=EDGE_LOOP('',(#703,#704,#705,#706));
#164=EDGE_LOOP('',(#707,#708,#709,#710));
#165=EDGE_LOOP('',(#711,#712,#713,#714));
#166=EDGE_LOOP('',(#715,#716,#717,#718));
#167=EDGE_LOOP('',(#719,#720,#721,#722));
#168=EDGE_LOOP('',(#723,#724,#725,#726));
#169=EDGE_LOOP('',(#727,#728,#729,#730));
#170=EDGE_LOOP('',(#731,#732,#733,#734));
#171=EDGE_LOOP('',(#735,#736,#737,#738));
#172=EDGE_LOOP('',(#739,#740,#741,#742));
#173=EDGE_LOOP('',(#743,#744,#745,#746));
#174=EDGE_LOOP('',(#747,#748,#749,#750));
#175=EDGE_LOOP('',(#751,#752,#753,#754));
#176=EDGE_LOOP('',(#755,#756,#757,#758));
#177=EDGE_LOOP('',(#759));
#178=EDGE_LOOP('',(#760));
#179=EDGE_LOOP('',(#761,#762,#763,#764));
#180=EDGE_LOOP('',(#765,#766,#767,#768));
#181=EDGE_LOOP('',(#769));
#182=EDGE_LOOP('',(#770));
#183=EDGE_LOOP('',(#771,#772,#773,#774));
#184=EDGE_LOOP('',(#775,#776,#777,#778));
#185=EDGE_LOOP('',(#779));
#186=EDGE_LOOP('',(#780));
#187=EDGE_LOOP('',(#781,#782,#783,#784));
#188=EDGE_LOOP('',(#785,#786,#787,#788));
#189=EDGE_LOOP('',(#789));
#190=EDGE_LOOP('',(#790));
#191=EDGE_LOOP('',(#791,#792,#793,#794));
#192=EDGE_LOOP('',(#795,#796,#797,#798));
#193=EDGE_LOOP('',(#799,#800,#801,#802));
#194=EDGE_LOOP('',(#803,#804,#805,#806));
#195=EDGE_LOOP('',(#807,#808,#809,#810,#811,#812,#813,#814));
#196=EDGE_LOOP('',(#815,#816,#817,#818));
#197=EDGE_LOOP('',(#819,#820,#821,#822));
#198=EDGE_LOOP('',(#823,#824,#825,#826));
#199=EDGE_LOOP('',(#827,#828,#829,#830,#831,#832,#833,#834));
#200=EDGE_LOOP('',(#835,#836,#837,#838,#839,#840,#841,#842));
#201=EDGE_LOOP('',(#843,#844,#845,#846));
#202=EDGE_LOOP('',(#847,#848,#849,#850));
#203=EDGE_LOOP('',(#851,#852,#853,#854));
#204=EDGE_LOOP('',(#855,#856,#857,#858));
#205=EDGE_LOOP('',(#859,#860,#861,#862));
#206=EDGE_LOOP('',(#863,#864,#865,#866));
#207=EDGE_LOOP('',(#867,#868,#869,#870));
#208=EDGE_LOOP('',(#871,#872,#873,#874));
#209=EDGE_LOOP('',(#875,#876,#877,#878));
#210=EDGE_LOOP('',(#879,#880,#881,#882));
#211=EDGE_LOOP('',(#883,#884,#885,#886));
#212=EDGE_LOOP('',(#887,#888,#889,#890));
#213=EDGE_LOOP('',(#891,#892,#893,#894));
#214=EDGE_LOOP('',(#895,#896,#897,#898));
#215=EDGE_LOOP('',(#899,#900,#901,#902));
#216=EDGE_LOOP('',(#903,#904,#905,#906));
#217=EDGE_LOOP('',(#907));
#218=EDGE_LOOP('',(#908));
#219=EDGE_LOOP('',(#909,#910,#911,#912));
#220=EDGE_LOOP('',(#913));
#221=EDGE_LOOP('',(#914));
#222=EDGE_LOOP('',(#915,#916,#917,#918));
#223=EDGE_LOOP('',(#919));
#224=EDGE_LOOP('',(#920));
#225=EDGE_LOOP('',(#921,#922,#923,#924));
#226=EDGE_LOOP('',(#925));
#227=EDGE_LOOP('',(#926));
#228=EDGE_LOOP('',(#927,#928,#929,#930));
#229=EDGE_LOOP('',(#931,#932,#933,#934));
#230=EDGE_LOOP('',(#935,#936,#937,#938));
#231=EDGE_LOOP('',(#939,#940,#941,#942));
#232=EDGE_LOOP('',(#943,#944,#945,#946));
#233=EDGE_LOOP('',(#947,#948,#949,#950));
#234=EDGE_LOOP('',(#951,#952,#953,#954));
#235=EDGE_LOOP('',(#955,#956,#957,#958));
#236=EDGE_LOOP('',(#959,#960,#961,#962));
#237=EDGE_LOOP('',(#963,#964,#965,#966));
#238=EDGE_LOOP('',(#967));
#239=EDGE_LOOP('',(#968));
#240=EDGE_LOOP('',(#969));
#241=EDGE_LOOP('',(#970));
#242=EDGE_LOOP('',(#971,#972,#973,#974,#975,#976,#977,#978));
#243=EDGE_LOOP('',(#979));
#244=EDGE_LOOP('',(#980));
#245=EDGE_LOOP('',(#981));
#246=EDGE_LOOP('',(#982));
#247=LINE('',#1507,#351);
#248=LINE('',#1509,#352);
#249=LINE('',#1511,#353);
#250=LINE('',#1512,#354);
#251=LINE('',#1515,#355);
#252=LINE('',#1517,#356);
#253=LINE('',#1518,#357);
#254=LINE('',#1521,#358);
#255=LINE('',#1523,#359);
#256=LINE('',#1524,#360);
#257=LINE('',#1526,#361);
#258=LINE('',#1527,#362);
#259=LINE('',#1531,#363);
#260=LINE('',#1533,#364);
#261=LINE('',#1535,#365);
#262=LINE('',#1536,#366);
#263=LINE('',#1539,#367);
#264=LINE('',#1541,#368);
#265=LINE('',#1542,#369);
#266=LINE('',#1545,#370);
#267=LINE('',#1547,#371);
#268=LINE('',#1548,#372);
#269=LINE('',#1550,#373);
#270=LINE('',#1551,#374);
#271=LINE('',#1555,#375);
#272=LINE('',#1557,#376);
#273=LINE('',#1559,#377);
#274=LINE('',#1560,#378);
#275=LINE('',#1563,#379);
#276=LINE('',#1565,#380);
#277=LINE('',#1566,#381);
#278=LINE('',#1569,#382);
#279=LINE('',#1571,#383);
#280=LINE('',#1572,#384);
#281=LINE('',#1574,#385);
#282=LINE('',#1575,#386);
#283=LINE('',#1579,#387);
#284=LINE('',#1581,#388);
#285=LINE('',#1583,#389);
#286=LINE('',#1584,#390);
#287=LINE('',#1587,#391);
#288=LINE('',#1589,#392);
#289=LINE('',#1590,#393);
#290=LINE('',#1593,#394);
#291=LINE('',#1595,#395);
#292=LINE('',#1596,#396);
#293=LINE('',#1598,#397);
#294=LINE('',#1599,#398);
#295=LINE('',#1608,#399);
#296=LINE('',#1611,#400);
#297=LINE('',#1621,#401);
#298=LINE('',#1624,#402);
#299=LINE('',#1634,#403);
#300=LINE('',#1637,#404);
#301=LINE('',#1647,#405);
#302=LINE('',#1650,#406);
#303=LINE('',#1657,#407);
#304=LINE('',#1660,#408);
#305=LINE('',#1663,#409);
#306=LINE('',#1665,#410);
#307=LINE('',#1666,#411);
#308=LINE('',#1669,#412);
#309=LINE('',#1673,#413);
#310=LINE('',#1677,#414);
#311=LINE('',#1681,#415);
#312=LINE('',#1683,#416);
#313=LINE('',#1685,#417);
#314=LINE('',#1686,#418);
#315=LINE('',#1692,#419);
#316=LINE('',#1695,#420);
#317=LINE('',#1698,#421);
#318=LINE('',#1700,#422);
#319=LINE('',#1701,#423);
#320=LINE('',#1704,#424);
#321=LINE('',#1708,#425);
#322=LINE('',#1712,#426);
#323=LINE('',#1716,#427);
#324=LINE('',#1719,#428);
#325=LINE('',#1723,#429);
#326=LINE('',#1726,#430);
#327=LINE('',#1728,#431);
#328=LINE('',#1732,#432);
#329=LINE('',#1735,#433);
#330=LINE('',#1736,#434);
#331=LINE('',#1740,#435);
#332=LINE('',#1743,#436);
#333=LINE('',#1744,#437);
#334=LINE('',#1746,#438);
#335=LINE('',#1748,#439);
#336=LINE('',#1750,#440);
#337=LINE('',#1754,#441);
#338=LINE('',#1756,#442);
#339=LINE('',#1761,#443);
#340=LINE('',#1768,#444);
#341=LINE('',#1775,#445);
#342=LINE('',#1782,#446);
#343=LINE('',#1788,#447);
#344=LINE('',#1790,#448);
#345=LINE('',#1791,#449);
#346=LINE('',#1794,#450);
#347=LINE('',#1795,#451);
#348=LINE('',#1798,#452);
#349=LINE('',#1799,#453);
#350=LINE('',#1801,#454);
#351=VECTOR('',#1201,10.);
#352=VECTOR('',#1202,10.);
#353=VECTOR('',#1203,10.);
#354=VECTOR('',#1204,10.);
#355=VECTOR('',#1207,10.);
#356=VECTOR('',#1208,10.);
#357=VECTOR('',#1209,10.);
#358=VECTOR('',#1212,10.);
#359=VECTOR('',#1213,10.);
#360=VECTOR('',#1214,10.);
#361=VECTOR('',#1217,10.);
#362=VECTOR('',#1218,10.);
#363=VECTOR('',#1221,10.);
#364=VECTOR('',#1222,10.);
#365=VECTOR('',#1223,10.);
#366=VECTOR('',#1224,10.);
#367=VECTOR('',#1227,10.);
#368=VECTOR('',#1228,10.);
#369=VECTOR('',#1229,10.);
#370=VECTOR('',#1232,10.);
#371=VECTOR('',#1233,10.);
#372=VECTOR('',#1234,10.);
#373=VECTOR('',#1237,10.);
#374=VECTOR('',#1238,10.);
#375=VECTOR('',#1241,10.);
#376=VECTOR('',#1242,10.);
#377=VECTOR('',#1243,10.);
#378=VECTOR('',#1244,10.);
#379=VECTOR('',#1247,10.);
#380=VECTOR('',#1248,10.);
#381=VECTOR('',#1249,10.);
#382=VECTOR('',#1252,10.);
#383=VECTOR('',#1253,10.);
#384=VECTOR('',#1254,10.);
#385=VECTOR('',#1257,10.);
#386=VECTOR('',#1258,10.);
#387=VECTOR('',#1261,10.);
#388=VECTOR('',#1262,10.);
#389=VECTOR('',#1263,10.);
#390=VECTOR('',#1264,10.);
#391=VECTOR('',#1267,10.);
#392=VECTOR('',#1268,10.);
#393=VECTOR('',#1269,10.);
#394=VECTOR('',#1272,10.);
#395=VECTOR('',#1273,10.);
#396=VECTOR('',#1274,10.);
#397=VECTOR('',#1277,10.);
#398=VECTOR('',#1278,10.);
#399=VECTOR('',#1289,2.15);
#400=VECTOR('',#1292,1.15);
#401=VECTOR('',#1305,2.15);
#402=VECTOR('',#1308,1.15);
#403=VECTOR('',#1321,2.15);
#404=VECTOR('',#1324,1.15);
#405=VECTOR('',#1337,2.15);
#406=VECTOR('',#1340,1.15);
#407=VECTOR('',#1347,10.);
#408=VECTOR('',#1350,10.);
#409=VECTOR('',#1353,10.);
#410=VECTOR('',#1354,10.);
#411=VECTOR('',#1355,10.);
#412=VECTOR('',#1358,10.);
#413=VECTOR('',#1361,10.);
#414=VECTOR('',#1364,10.);
#415=VECTOR('',#1367,10.);
#416=VECTOR('',#1368,10.);
#417=VECTOR('',#1369,10.);
#418=VECTOR('',#1370,10.);
#419=VECTOR('',#1375,10.);
#420=VECTOR('',#1378,10.);
#421=VECTOR('',#1381,10.);
#422=VECTOR('',#1382,10.);
#423=VECTOR('',#1383,10.);
#424=VECTOR('',#1386,10.);
#425=VECTOR('',#1389,10.);
#426=VECTOR('',#1392,10.);
#427=VECTOR('',#1395,10.);
#428=VECTOR('',#1398,10.);
#429=VECTOR('',#1401,10.);
#430=VECTOR('',#1406,10.);
#431=VECTOR('',#1409,10.);
#432=VECTOR('',#1414,10.);
#433=VECTOR('',#1417,10.);
#434=VECTOR('',#1418,10.);
#435=VECTOR('',#1423,10.);
#436=VECTOR('',#1426,10.);
#437=VECTOR('',#1427,10.);
#438=VECTOR('',#1430,10.);
#439=VECTOR('',#1433,10.);
#440=VECTOR('',#1436,10.);
#441=VECTOR('',#1441,10.);
#442=VECTOR('',#1444,10.);
#443=VECTOR('',#1449,2.5);
#444=VECTOR('',#1458,2.5);
#445=VECTOR('',#1467,2.5);
#446=VECTOR('',#1476,2.5);
#447=VECTOR('',#1485,10.);
#448=VECTOR('',#1486,10.);
#449=VECTOR('',#1487,10.);
#450=VECTOR('',#1490,10.);
#451=VECTOR('',#1491,10.);
#452=VECTOR('',#1494,10.);
#453=VECTOR('',#1495,10.);
#454=VECTOR('',#1498,10.);
#455=VERTEX_POINT('',#1505);
#456=VERTEX_POINT('',#1506);
#457=VERTEX_POINT('',#1508);
#458=VERTEX_POINT('',#1510);
#459=VERTEX_POINT('',#1514);
#460=VERTEX_POINT('',#1516);
#461=VERTEX_POINT('',#1520);
#462=VERTEX_POINT('',#1522);
#463=VERTEX_POINT('',#1529);
#464=VERTEX_POINT('',#1530);
#465=VERTEX_POINT('',#1532);
#466=VERTEX_POINT('',#1534);
#467=VERTEX_POINT('',#1538);
#468=VERTEX_POINT('',#1540);
#469=VERTEX_POINT('',#1544);
#470=VERTEX_POINT('',#1546);
#471=VERTEX_POINT('',#1553);
#472=VERTEX_POINT('',#1554);
#473=VERTEX_POINT('',#1556);
#474=VERTEX_POINT('',#1558);
#475=VERTEX_POINT('',#1562);
#476=VERTEX_POINT('',#1564);
#477=VERTEX_POINT('',#1568);
#478=VERTEX_POINT('',#1570);
#479=VERTEX_POINT('',#1577);
#480=VERTEX_POINT('',#1578);
#481=VERTEX_POINT('',#1580);
#482=VERTEX_POINT('',#1582);
#483=VERTEX_POINT('',#1586);
#484=VERTEX_POINT('',#1588);
#485=VERTEX_POINT('',#1592);
#486=VERTEX_POINT('',#1594);
#487=VERTEX_POINT('',#1601);
#488=VERTEX_POINT('',#1603);
#489=VERTEX_POINT('',#1606);
#490=VERTEX_POINT('',#1610);
#491=VERTEX_POINT('',#1614);
#492=VERTEX_POINT('',#1616);
#493=VERTEX_POINT('',#1619);
#494=VERTEX_POINT('',#1623);
#495=VERTEX_POINT('',#1627);
#496=VERTEX_POINT('',#1629);
#497=VERTEX_POINT('',#1632);
#498=VERTEX_POINT('',#1636);
#499=VERTEX_POINT('',#1640);
#500=VERTEX_POINT('',#1642);
#501=VERTEX_POINT('',#1645);
#502=VERTEX_POINT('',#1649);
#503=VERTEX_POINT('',#1653);
#504=VERTEX_POINT('',#1654);
#505=VERTEX_POINT('',#1656);
#506=VERTEX_POINT('',#1658);
#507=VERTEX_POINT('',#1662);
#508=VERTEX_POINT('',#1664);
#509=VERTEX_POINT('',#1668);
#510=VERTEX_POINT('',#1670);
#511=VERTEX_POINT('',#1672);
#512=VERTEX_POINT('',#1674);
#513=VERTEX_POINT('',#1676);
#514=VERTEX_POINT('',#1679);
#515=VERTEX_POINT('',#1680);
#516=VERTEX_POINT('',#1682);
#517=VERTEX_POINT('',#1684);
#518=VERTEX_POINT('',#1688);
#519=VERTEX_POINT('',#1689);
#520=VERTEX_POINT('',#1691);
#521=VERTEX_POINT('',#1693);
#522=VERTEX_POINT('',#1697);
#523=VERTEX_POINT('',#1699);
#524=VERTEX_POINT('',#1703);
#525=VERTEX_POINT('',#1705);
#526=VERTEX_POINT('',#1707);
#527=VERTEX_POINT('',#1709);
#528=VERTEX_POINT('',#1711);
#529=VERTEX_POINT('',#1714);
#530=VERTEX_POINT('',#1715);
#531=VERTEX_POINT('',#1717);
#532=VERTEX_POINT('',#1720);
#533=VERTEX_POINT('',#1722);
#534=VERTEX_POINT('',#1730);
#535=VERTEX_POINT('',#1734);
#536=VERTEX_POINT('',#1738);
#537=VERTEX_POINT('',#1742);
#538=VERTEX_POINT('',#1752);
#539=VERTEX_POINT('',#1758);
#540=VERTEX_POINT('',#1760);
#541=VERTEX_POINT('',#1765);
#542=VERTEX_POINT('',#1767);
#543=VERTEX_POINT('',#1772);
#544=VERTEX_POINT('',#1774);
#545=VERTEX_POINT('',#1779);
#546=VERTEX_POINT('',#1781);
#547=VERTEX_POINT('',#1787);
#548=VERTEX_POINT('',#1789);
#549=VERTEX_POINT('',#1793);
#550=VERTEX_POINT('',#1797);
#551=EDGE_CURVE('',#455,#456,#247,.T.);
#552=EDGE_CURVE('',#457,#455,#248,.T.);
#553=EDGE_CURVE('',#458,#457,#249,.T.);
#554=EDGE_CURVE('',#458,#456,#250,.T.);
#555=EDGE_CURVE('',#456,#459,#251,.T.);
#556=EDGE_CURVE('',#460,#458,#252,.T.);
#557=EDGE_CURVE('',#460,#459,#253,.T.);
#558=EDGE_CURVE('',#459,#461,#254,.T.);
#559=EDGE_CURVE('',#462,#460,#255,.T.);
#560=EDGE_CURVE('',#462,#461,#256,.T.);
#561=EDGE_CURVE('',#461,#455,#257,.T.);
#562=EDGE_CURVE('',#457,#462,#258,.T.);
#563=EDGE_CURVE('',#463,#464,#259,.T.);
#564=EDGE_CURVE('',#465,#463,#260,.T.);
#565=EDGE_CURVE('',#466,#465,#261,.T.);
#566=EDGE_CURVE('',#466,#464,#262,.T.);
#567=EDGE_CURVE('',#464,#467,#263,.T.);
#568=EDGE_CURVE('',#468,#466,#264,.T.);
#569=EDGE_CURVE('',#468,#467,#265,.T.);
#570=EDGE_CURVE('',#467,#469,#266,.T.);
#571=EDGE_CURVE('',#470,#468,#267,.T.);
#572=EDGE_CURVE('',#470,#469,#268,.T.);
#573=EDGE_CURVE('',#469,#463,#269,.T.);
#574=EDGE_CURVE('',#465,#470,#270,.T.);
#575=EDGE_CURVE('',#471,#472,#271,.T.);
#576=EDGE_CURVE('',#473,#471,#272,.T.);
#577=EDGE_CURVE('',#474,#473,#273,.T.);
#578=EDGE_CURVE('',#474,#472,#274,.T.);
#579=EDGE_CURVE('',#472,#475,#275,.T.);
#580=EDGE_CURVE('',#476,#474,#276,.T.);
#581=EDGE_CURVE('',#476,#475,#277,.T.);
#582=EDGE_CURVE('',#475,#477,#278,.T.);
#583=EDGE_CURVE('',#478,#476,#279,.T.);
#584=EDGE_CURVE('',#478,#477,#280,.T.);
#585=EDGE_CURVE('',#477,#471,#281,.T.);
#586=EDGE_CURVE('',#473,#478,#282,.T.);
#587=EDGE_CURVE('',#479,#480,#283,.T.);
#588=EDGE_CURVE('',#481,#479,#284,.T.);
#589=EDGE_CURVE('',#482,#481,#285,.T.);
#590=EDGE_CURVE('',#482,#480,#286,.T.);
#591=EDGE_CURVE('',#480,#483,#287,.T.);
#592=EDGE_CURVE('',#484,#482,#288,.T.);
#593=EDGE_CURVE('',#484,#483,#289,.T.);
#594=EDGE_CURVE('',#483,#485,#290,.T.);
#595=EDGE_CURVE('',#486,#484,#291,.T.);
#596=EDGE_CURVE('',#486,#485,#292,.T.);
#597=EDGE_CURVE('',#485,#479,#293,.T.);
#598=EDGE_CURVE('',#481,#486,#294,.T.);
#599=EDGE_CURVE('',#487,#487,#61,.T.);
#600=EDGE_CURVE('',#488,#488,#62,.T.);
#601=EDGE_CURVE('',#489,#489,#63,.T.);
#602=EDGE_CURVE('',#489,#487,#295,.T.);
#603=EDGE_CURVE('',#488,#490,#296,.T.);
#604=EDGE_CURVE('',#490,#490,#64,.T.);
#605=EDGE_CURVE('',#491,#491,#65,.T.);
#606=EDGE_CURVE('',#492,#492,#66,.T.);
#607=EDGE_CURVE('',#493,#493,#67,.T.);
#608=EDGE_CURVE('',#493,#491,#297,.T.);
#609=EDGE_CURVE('',#492,#494,#298,.T.);
#610=EDGE_CURVE('',#494,#494,#68,.T.);
#611=EDGE_CURVE('',#495,#495,#69,.T.);
#612=EDGE_CURVE('',#496,#496,#70,.T.);
#613=EDGE_CURVE('',#497,#497,#71,.T.);
#614=EDGE_CURVE('',#497,#495,#299,.T.);
#615=EDGE_CURVE('',#496,#498,#300,.T.);
#616=EDGE_CURVE('',#498,#498,#72,.T.);
#617=EDGE_CURVE('',#499,#499,#73,.T.);
#618=EDGE_CURVE('',#500,#500,#74,.T.);
#619=EDGE_CURVE('',#501,#501,#75,.T.);
#620=EDGE_CURVE('',#501,#499,#301,.T.);
#621=EDGE_CURVE('',#500,#502,#302,.T.);
#622=EDGE_CURVE('',#502,#502,#76,.T.);
#623=EDGE_CURVE('',#503,#504,#77,.T.);
#624=EDGE_CURVE('',#504,#505,#303,.T.);
#625=EDGE_CURVE('',#505,#506,#78,.F.);
#626=EDGE_CURVE('',#506,#503,#304,.T.);
#627=EDGE_CURVE('',#507,#504,#305,.T.);
#628=EDGE_CURVE('',#508,#507,#306,.T.);
#629=EDGE_CURVE('',#508,#505,#307,.T.);
#630=EDGE_CURVE('',#503,#509,#308,.T.);
#631=EDGE_CURVE('',#510,#509,#79,.T.);
#632=EDGE_CURVE('',#510,#511,#309,.T.);
#633=EDGE_CURVE('',#512,#511,#80,.T.);
#634=EDGE_CURVE('',#512,#513,#310,.T.);
#635=EDGE_CURVE('',#507,#513,#81,.T.);
#636=EDGE_CURVE('',#514,#515,#311,.T.);
#637=EDGE_CURVE('',#515,#516,#312,.T.);
#638=EDGE_CURVE('',#516,#517,#313,.T.);
#639=EDGE_CURVE('',#517,#514,#314,.T.);
#640=EDGE_CURVE('',#518,#519,#82,.T.);
#641=EDGE_CURVE('',#519,#520,#315,.T.);
#642=EDGE_CURVE('',#520,#521,#83,.T.);
#643=EDGE_CURVE('',#521,#518,#316,.T.);
#644=EDGE_CURVE('',#521,#522,#317,.T.);
#645=EDGE_CURVE('',#523,#522,#318,.T.);
#646=EDGE_CURVE('',#518,#523,#319,.T.);
#647=EDGE_CURVE('',#524,#520,#320,.T.);
#648=EDGE_CURVE('',#525,#524,#84,.T.);
#649=EDGE_CURVE('',#526,#525,#321,.T.);
#650=EDGE_CURVE('',#527,#526,#85,.T.);
#651=EDGE_CURVE('',#528,#527,#322,.T.);
#652=EDGE_CURVE('',#522,#528,#86,.T.);
#653=EDGE_CURVE('',#529,#530,#323,.T.);
#654=EDGE_CURVE('',#531,#529,#87,.F.);
#655=EDGE_CURVE('',#506,#531,#324,.T.);
#656=EDGE_CURVE('',#532,#508,#88,.F.);
#657=EDGE_CURVE('',#533,#532,#325,.T.);
#658=EDGE_CURVE('',#530,#533,#89,.F.);
#659=EDGE_CURVE('',#513,#532,#326,.T.);
#660=EDGE_CURVE('',#533,#512,#327,.T.);
#661=EDGE_CURVE('',#534,#523,#90,.T.);
#662=EDGE_CURVE('',#528,#534,#328,.T.);
#663=EDGE_CURVE('',#535,#527,#329,.T.);
#664=EDGE_CURVE('',#534,#535,#330,.T.);
#665=EDGE_CURVE('',#536,#535,#91,.T.);
#666=EDGE_CURVE('',#526,#536,#331,.T.);
#667=EDGE_CURVE('',#537,#525,#332,.T.);
#668=EDGE_CURVE('',#536,#537,#333,.T.);
#669=EDGE_CURVE('',#511,#530,#334,.T.);
#670=EDGE_CURVE('',#529,#510,#335,.T.);
#671=EDGE_CURVE('',#509,#531,#336,.T.);
#672=EDGE_CURVE('',#538,#537,#92,.T.);
#673=EDGE_CURVE('',#524,#538,#337,.T.);
#674=EDGE_CURVE('',#538,#519,#338,.T.);
#675=EDGE_CURVE('',#539,#539,#93,.T.);
#676=EDGE_CURVE('',#539,#540,#339,.T.);
#677=EDGE_CURVE('',#540,#540,#94,.T.);
#678=EDGE_CURVE('',#541,#541,#95,.T.);
#679=EDGE_CURVE('',#541,#542,#340,.T.);
#680=EDGE_CURVE('',#542,#542,#96,.T.);
#681=EDGE_CURVE('',#543,#543,#97,.T.);
#682=EDGE_CURVE('',#543,#544,#341,.T.);
#683=EDGE_CURVE('',#544,#544,#98,.T.);
#684=EDGE_CURVE('',#545,#545,#99,.T.);
#685=EDGE_CURVE('',#545,#546,#342,.T.);
#686=EDGE_CURVE('',#546,#546,#100,.T.);
#687=EDGE_CURVE('',#514,#547,#343,.T.);
#688=EDGE_CURVE('',#547,#548,#344,.T.);
#689=EDGE_CURVE('',#515,#548,#345,.T.);
#690=EDGE_CURVE('',#517,#549,#346,.T.);
#691=EDGE_CURVE('',#549,#547,#347,.T.);
#692=EDGE_CURVE('',#516,#550,#348,.T.);
#693=EDGE_CURVE('',#550,#549,#349,.T.);
#694=EDGE_CURVE('',#548,#550,#350,.T.);
#695=ORIENTED_EDGE('',*,*,#551,.F.);
#696=ORIENTED_EDGE('',*,*,#552,.F.);
#697=ORIENTED_EDGE('',*,*,#553,.F.);
#698=ORIENTED_EDGE('',*,*,#554,.T.);
#699=ORIENTED_EDGE('',*,*,#555,.F.);
#700=ORIENTED_EDGE('',*,*,#554,.F.);
#701=ORIENTED_EDGE('',*,*,#556,.F.);
#702=ORIENTED_EDGE('',*,*,#557,.T.);
#703=ORIENTED_EDGE('',*,*,#558,.F.);
#704=ORIENTED_EDGE('',*,*,#557,.F.);
#705=ORIENTED_EDGE('',*,*,#559,.F.);
#706=ORIENTED_EDGE('',*,*,#560,.T.);
#707=ORIENTED_EDGE('',*,*,#561,.F.);
#708=ORIENTED_EDGE('',*,*,#560,.F.);
#709=ORIENTED_EDGE('',*,*,#562,.F.);
#710=ORIENTED_EDGE('',*,*,#552,.T.);
#711=ORIENTED_EDGE('',*,*,#563,.F.);
#712=ORIENTED_EDGE('',*,*,#564,.F.);
#713=ORIENTED_EDGE('',*,*,#565,.F.);
#714=ORIENTED_EDGE('',*,*,#566,.T.);
#715=ORIENTED_EDGE('',*,*,#567,.F.);
#716=ORIENTED_EDGE('',*,*,#566,.F.);
#717=ORIENTED_EDGE('',*,*,#568,.F.);
#718=ORIENTED_EDGE('',*,*,#569,.T.);
#719=ORIENTED_EDGE('',*,*,#570,.F.);
#720=ORIENTED_EDGE('',*,*,#569,.F.);
#721=ORIENTED_EDGE('',*,*,#571,.F.);
#722=ORIENTED_EDGE('',*,*,#572,.T.);
#723=ORIENTED_EDGE('',*,*,#573,.F.);
#724=ORIENTED_EDGE('',*,*,#572,.F.);
#725=ORIENTED_EDGE('',*,*,#574,.F.);
#726=ORIENTED_EDGE('',*,*,#564,.T.);
#727=ORIENTED_EDGE('',*,*,#575,.F.);
#728=ORIENTED_EDGE('',*,*,#576,.F.);
#729=ORIENTED_EDGE('',*,*,#577,.F.);
#730=ORIENTED_EDGE('',*,*,#578,.T.);
#731=ORIENTED_EDGE('',*,*,#579,.F.);
#732=ORIENTED_EDGE('',*,*,#578,.F.);
#733=ORIENTED_EDGE('',*,*,#580,.F.);
#734=ORIENTED_EDGE('',*,*,#581,.T.);
#735=ORIENTED_EDGE('',*,*,#582,.F.);
#736=ORIENTED_EDGE('',*,*,#581,.F.);
#737=ORIENTED_EDGE('',*,*,#583,.F.);
#738=ORIENTED_EDGE('',*,*,#584,.T.);
#739=ORIENTED_EDGE('',*,*,#585,.F.);
#740=ORIENTED_EDGE('',*,*,#584,.F.);
#741=ORIENTED_EDGE('',*,*,#586,.F.);
#742=ORIENTED_EDGE('',*,*,#576,.T.);
#743=ORIENTED_EDGE('',*,*,#587,.F.);
#744=ORIENTED_EDGE('',*,*,#588,.F.);
#745=ORIENTED_EDGE('',*,*,#589,.F.);
#746=ORIENTED_EDGE('',*,*,#590,.T.);
#747=ORIENTED_EDGE('',*,*,#591,.F.);
#748=ORIENTED_EDGE('',*,*,#590,.F.);
#749=ORIENTED_EDGE('',*,*,#592,.F.);
#750=ORIENTED_EDGE('',*,*,#593,.T.);
#751=ORIENTED_EDGE('',*,*,#594,.F.);
#752=ORIENTED_EDGE('',*,*,#593,.F.);
#753=ORIENTED_EDGE('',*,*,#595,.F.);
#754=ORIENTED_EDGE('',*,*,#596,.T.);
#755=ORIENTED_EDGE('',*,*,#597,.F.);
#756=ORIENTED_EDGE('',*,*,#596,.F.);
#757=ORIENTED_EDGE('',*,*,#598,.F.);
#758=ORIENTED_EDGE('',*,*,#588,.T.);
#759=ORIENTED_EDGE('',*,*,#599,.F.);
#760=ORIENTED_EDGE('',*,*,#600,.T.);
#761=ORIENTED_EDGE('',*,*,#601,.F.);
#762=ORIENTED_EDGE('',*,*,#602,.T.);
#763=ORIENTED_EDGE('',*,*,#599,.T.);
#764=ORIENTED_EDGE('',*,*,#602,.F.);
#765=ORIENTED_EDGE('',*,*,#600,.F.);
#766=ORIENTED_EDGE('',*,*,#603,.T.);
#767=ORIENTED_EDGE('',*,*,#604,.F.);
#768=ORIENTED_EDGE('',*,*,#603,.F.);
#769=ORIENTED_EDGE('',*,*,#605,.F.);
#770=ORIENTED_EDGE('',*,*,#606,.T.);
#771=ORIENTED_EDGE('',*,*,#607,.F.);
#772=ORIENTED_EDGE('',*,*,#608,.T.);
#773=ORIENTED_EDGE('',*,*,#605,.T.);
#774=ORIENTED_EDGE('',*,*,#608,.F.);
#775=ORIENTED_EDGE('',*,*,#606,.F.);
#776=ORIENTED_EDGE('',*,*,#609,.T.);
#777=ORIENTED_EDGE('',*,*,#610,.F.);
#778=ORIENTED_EDGE('',*,*,#609,.F.);
#779=ORIENTED_EDGE('',*,*,#611,.F.);
#780=ORIENTED_EDGE('',*,*,#612,.T.);
#781=ORIENTED_EDGE('',*,*,#613,.F.);
#782=ORIENTED_EDGE('',*,*,#614,.T.);
#783=ORIENTED_EDGE('',*,*,#611,.T.);
#784=ORIENTED_EDGE('',*,*,#614,.F.);
#785=ORIENTED_EDGE('',*,*,#612,.F.);
#786=ORIENTED_EDGE('',*,*,#615,.T.);
#787=ORIENTED_EDGE('',*,*,#616,.F.);
#788=ORIENTED_EDGE('',*,*,#615,.F.);
#789=ORIENTED_EDGE('',*,*,#617,.F.);
#790=ORIENTED_EDGE('',*,*,#618,.T.);
#791=ORIENTED_EDGE('',*,*,#619,.F.);
#792=ORIENTED_EDGE('',*,*,#620,.T.);
#793=ORIENTED_EDGE('',*,*,#617,.T.);
#794=ORIENTED_EDGE('',*,*,#620,.F.);
#795=ORIENTED_EDGE('',*,*,#618,.F.);
#796=ORIENTED_EDGE('',*,*,#621,.T.);
#797=ORIENTED_EDGE('',*,*,#622,.F.);
#798=ORIENTED_EDGE('',*,*,#621,.F.);
#799=ORIENTED_EDGE('',*,*,#623,.T.);
#800=ORIENTED_EDGE('',*,*,#624,.T.);
#801=ORIENTED_EDGE('',*,*,#625,.T.);
#802=ORIENTED_EDGE('',*,*,#626,.T.);
#803=ORIENTED_EDGE('',*,*,#624,.F.);
#804=ORIENTED_EDGE('',*,*,#627,.F.);
#805=ORIENTED_EDGE('',*,*,#628,.F.);
#806=ORIENTED_EDGE('',*,*,#629,.T.);
#807=ORIENTED_EDGE('',*,*,#623,.F.);
#808=ORIENTED_EDGE('',*,*,#630,.T.);
#809=ORIENTED_EDGE('',*,*,#631,.F.);
#810=ORIENTED_EDGE('',*,*,#632,.T.);
#811=ORIENTED_EDGE('',*,*,#633,.F.);
#812=ORIENTED_EDGE('',*,*,#634,.T.);
#813=ORIENTED_EDGE('',*,*,#635,.F.);
#814=ORIENTED_EDGE('',*,*,#627,.T.);
#815=ORIENTED_EDGE('',*,*,#636,.T.);
#816=ORIENTED_EDGE('',*,*,#637,.T.);
#817=ORIENTED_EDGE('',*,*,#638,.T.);
#818=ORIENTED_EDGE('',*,*,#639,.T.);
#819=ORIENTED_EDGE('',*,*,#640,.T.);
#820=ORIENTED_EDGE('',*,*,#641,.T.);
#821=ORIENTED_EDGE('',*,*,#642,.T.);
#822=ORIENTED_EDGE('',*,*,#643,.T.);
#823=ORIENTED_EDGE('',*,*,#643,.F.);
#824=ORIENTED_EDGE('',*,*,#644,.T.);
#825=ORIENTED_EDGE('',*,*,#645,.F.);
#826=ORIENTED_EDGE('',*,*,#646,.F.);
#827=ORIENTED_EDGE('',*,*,#642,.F.);
#828=ORIENTED_EDGE('',*,*,#647,.F.);
#829=ORIENTED_EDGE('',*,*,#648,.F.);
#830=ORIENTED_EDGE('',*,*,#649,.F.);
#831=ORIENTED_EDGE('',*,*,#650,.F.);
#832=ORIENTED_EDGE('',*,*,#651,.F.);
#833=ORIENTED_EDGE('',*,*,#652,.F.);
#834=ORIENTED_EDGE('',*,*,#644,.F.);
#835=ORIENTED_EDGE('',*,*,#653,.F.);
#836=ORIENTED_EDGE('',*,*,#654,.F.);
#837=ORIENTED_EDGE('',*,*,#655,.F.);
#838=ORIENTED_EDGE('',*,*,#625,.F.);
#839=ORIENTED_EDGE('',*,*,#629,.F.);
#840=ORIENTED_EDGE('',*,*,#656,.F.);
#841=ORIENTED_EDGE('',*,*,#657,.F.);
#842=ORIENTED_EDGE('',*,*,#658,.F.);
#843=ORIENTED_EDGE('',*,*,#635,.T.);
#844=ORIENTED_EDGE('',*,*,#659,.T.);
#845=ORIENTED_EDGE('',*,*,#656,.T.);
#846=ORIENTED_EDGE('',*,*,#628,.T.);
#847=ORIENTED_EDGE('',*,*,#659,.F.);
#848=ORIENTED_EDGE('',*,*,#634,.F.);
#849=ORIENTED_EDGE('',*,*,#660,.F.);
#850=ORIENTED_EDGE('',*,*,#657,.T.);
#851=ORIENTED_EDGE('',*,*,#661,.T.);
#852=ORIENTED_EDGE('',*,*,#645,.T.);
#853=ORIENTED_EDGE('',*,*,#652,.T.);
#854=ORIENTED_EDGE('',*,*,#662,.T.);
#855=ORIENTED_EDGE('',*,*,#662,.F.);
#856=ORIENTED_EDGE('',*,*,#651,.T.);
#857=ORIENTED_EDGE('',*,*,#663,.F.);
#858=ORIENTED_EDGE('',*,*,#664,.F.);
#859=ORIENTED_EDGE('',*,*,#665,.T.);
#860=ORIENTED_EDGE('',*,*,#663,.T.);
#861=ORIENTED_EDGE('',*,*,#650,.T.);
#862=ORIENTED_EDGE('',*,*,#666,.T.);
#863=ORIENTED_EDGE('',*,*,#666,.F.);
#864=ORIENTED_EDGE('',*,*,#649,.T.);
#865=ORIENTED_EDGE('',*,*,#667,.F.);
#866=ORIENTED_EDGE('',*,*,#668,.F.);
#867=ORIENTED_EDGE('',*,*,#559,.T.);
#868=ORIENTED_EDGE('',*,*,#556,.T.);
#869=ORIENTED_EDGE('',*,*,#553,.T.);
#870=ORIENTED_EDGE('',*,*,#562,.T.);
#871=ORIENTED_EDGE('',*,*,#633,.T.);
#872=ORIENTED_EDGE('',*,*,#669,.T.);
#873=ORIENTED_EDGE('',*,*,#658,.T.);
#874=ORIENTED_EDGE('',*,*,#660,.T.);
#875=ORIENTED_EDGE('',*,*,#669,.F.);
#876=ORIENTED_EDGE('',*,*,#632,.F.);
#877=ORIENTED_EDGE('',*,*,#670,.F.);
#878=ORIENTED_EDGE('',*,*,#653,.T.);
#879=ORIENTED_EDGE('',*,*,#631,.T.);
#880=ORIENTED_EDGE('',*,*,#671,.T.);
#881=ORIENTED_EDGE('',*,*,#654,.T.);
#882=ORIENTED_EDGE('',*,*,#670,.T.);
#883=ORIENTED_EDGE('',*,*,#672,.T.);
#884=ORIENTED_EDGE('',*,*,#667,.T.);
#885=ORIENTED_EDGE('',*,*,#648,.T.);
#886=ORIENTED_EDGE('',*,*,#673,.T.);
#887=ORIENTED_EDGE('',*,*,#641,.F.);
#888=ORIENTED_EDGE('',*,*,#674,.F.);
#889=ORIENTED_EDGE('',*,*,#673,.F.);
#890=ORIENTED_EDGE('',*,*,#647,.T.);
#891=ORIENTED_EDGE('',*,*,#571,.T.);
#892=ORIENTED_EDGE('',*,*,#568,.T.);
#893=ORIENTED_EDGE('',*,*,#565,.T.);
#894=ORIENTED_EDGE('',*,*,#574,.T.);
#895=ORIENTED_EDGE('',*,*,#583,.T.);
#896=ORIENTED_EDGE('',*,*,#580,.T.);
#897=ORIENTED_EDGE('',*,*,#577,.T.);
#898=ORIENTED_EDGE('',*,*,#586,.T.);
#899=ORIENTED_EDGE('',*,*,#595,.T.);
#900=ORIENTED_EDGE('',*,*,#592,.T.);
#901=ORIENTED_EDGE('',*,*,#589,.T.);
#902=ORIENTED_EDGE('',*,*,#598,.T.);
#903=ORIENTED_EDGE('',*,*,#675,.F.);
#904=ORIENTED_EDGE('',*,*,#676,.T.);
#905=ORIENTED_EDGE('',*,*,#677,.F.);
#906=ORIENTED_EDGE('',*,*,#676,.F.);
#907=ORIENTED_EDGE('',*,*,#675,.T.);
#908=ORIENTED_EDGE('',*,*,#604,.T.);
#909=ORIENTED_EDGE('',*,*,#678,.F.);
#910=ORIENTED_EDGE('',*,*,#679,.T.);
#911=ORIENTED_EDGE('',*,*,#680,.F.);
#912=ORIENTED_EDGE('',*,*,#679,.F.);
#913=ORIENTED_EDGE('',*,*,#678,.T.);
#914=ORIENTED_EDGE('',*,*,#616,.T.);
#915=ORIENTED_EDGE('',*,*,#681,.F.);
#916=ORIENTED_EDGE('',*,*,#682,.T.);
#917=ORIENTED_EDGE('',*,*,#683,.F.);
#918=ORIENTED_EDGE('',*,*,#682,.F.);
#919=ORIENTED_EDGE('',*,*,#681,.T.);
#920=ORIENTED_EDGE('',*,*,#622,.T.);
#921=ORIENTED_EDGE('',*,*,#684,.F.);
#922=ORIENTED_EDGE('',*,*,#685,.T.);
#923=ORIENTED_EDGE('',*,*,#686,.F.);
#924=ORIENTED_EDGE('',*,*,#685,.F.);
#925=ORIENTED_EDGE('',*,*,#684,.T.);
#926=ORIENTED_EDGE('',*,*,#610,.T.);
#927=ORIENTED_EDGE('',*,*,#626,.F.);
#928=ORIENTED_EDGE('',*,*,#655,.T.);
#929=ORIENTED_EDGE('',*,*,#671,.F.);
#930=ORIENTED_EDGE('',*,*,#630,.F.);
#931=ORIENTED_EDGE('',*,*,#636,.F.);
#932=ORIENTED_EDGE('',*,*,#687,.T.);
#933=ORIENTED_EDGE('',*,*,#688,.T.);
#934=ORIENTED_EDGE('',*,*,#689,.F.);
#935=ORIENTED_EDGE('',*,*,#639,.F.);
#936=ORIENTED_EDGE('',*,*,#690,.T.);
#937=ORIENTED_EDGE('',*,*,#691,.T.);
#938=ORIENTED_EDGE('',*,*,#687,.F.);
#939=ORIENTED_EDGE('',*,*,#570,.T.);
#940=ORIENTED_EDGE('',*,*,#573,.T.);
#941=ORIENTED_EDGE('',*,*,#563,.T.);
#942=ORIENTED_EDGE('',*,*,#567,.T.);
#943=ORIENTED_EDGE('',*,*,#582,.T.);
#944=ORIENTED_EDGE('',*,*,#585,.T.);
#945=ORIENTED_EDGE('',*,*,#575,.T.);
#946=ORIENTED_EDGE('',*,*,#579,.T.);
#947=ORIENTED_EDGE('',*,*,#594,.T.);
#948=ORIENTED_EDGE('',*,*,#597,.T.);
#949=ORIENTED_EDGE('',*,*,#587,.T.);
#950=ORIENTED_EDGE('',*,*,#591,.T.);
#951=ORIENTED_EDGE('',*,*,#638,.F.);
#952=ORIENTED_EDGE('',*,*,#692,.T.);
#953=ORIENTED_EDGE('',*,*,#693,.T.);
#954=ORIENTED_EDGE('',*,*,#690,.F.);
#955=ORIENTED_EDGE('',*,*,#558,.T.);
#956=ORIENTED_EDGE('',*,*,#561,.T.);
#957=ORIENTED_EDGE('',*,*,#551,.T.);
#958=ORIENTED_EDGE('',*,*,#555,.T.);
#959=ORIENTED_EDGE('',*,*,#637,.F.);
#960=ORIENTED_EDGE('',*,*,#689,.T.);
#961=ORIENTED_EDGE('',*,*,#694,.T.);
#962=ORIENTED_EDGE('',*,*,#692,.F.);
#963=ORIENTED_EDGE('',*,*,#694,.F.);
#964=ORIENTED_EDGE('',*,*,#688,.F.);
#965=ORIENTED_EDGE('',*,*,#691,.F.);
#966=ORIENTED_EDGE('',*,*,#693,.F.);
#967=ORIENTED_EDGE('',*,*,#677,.T.);
#968=ORIENTED_EDGE('',*,*,#680,.T.);
#969=ORIENTED_EDGE('',*,*,#683,.T.);
#970=ORIENTED_EDGE('',*,*,#686,.T.);
#971=ORIENTED_EDGE('',*,*,#640,.F.);
#972=ORIENTED_EDGE('',*,*,#646,.T.);
#973=ORIENTED_EDGE('',*,*,#661,.F.);
#974=ORIENTED_EDGE('',*,*,#664,.T.);
#975=ORIENTED_EDGE('',*,*,#665,.F.);
#976=ORIENTED_EDGE('',*,*,#668,.T.);
#977=ORIENTED_EDGE('',*,*,#672,.F.);
#978=ORIENTED_EDGE('',*,*,#674,.T.);
#979=ORIENTED_EDGE('',*,*,#601,.T.);
#980=ORIENTED_EDGE('',*,*,#607,.T.);
#981=ORIENTED_EDGE('',*,*,#613,.T.);
#982=ORIENTED_EDGE('',*,*,#619,.T.);
#983=PLANE('',#1097);
#984=PLANE('',#1098);
#985=PLANE('',#1099);
#986=PLANE('',#1100);
#987=PLANE('',#1101);
#988=PLANE('',#1102);
#989=PLANE('',#1103);
#990=PLANE('',#1104);
#991=PLANE('',#1105);
#992=PLANE('',#1106);
#993=PLANE('',#1107);
#994=PLANE('',#1108);
#995=PLANE('',#1109);
#996=PLANE('',#1110);
#997=PLANE('',#1111);
#998=PLANE('',#1112);
#999=PLANE('',#1113);
#1000=PLANE('',#1120);
#1001=PLANE('',#1127);
#1002=PLANE('',#1134);
#1003=PLANE('',#1144);
#1004=PLANE('',#1145);
#1005=PLANE('',#1152);
#1006=PLANE('',#1153);
#1007=PLANE('',#1161);
#1008=PLANE('',#1164);
#1009=PLANE('',#1167);
#1010=PLANE('',#1169);
#1011=PLANE('',#1173);
#1012=PLANE('',#1177);
#1013=PLANE('',#1181);
#1014=PLANE('',#1185);
#1015=PLANE('',#1189);
#1016=PLANE('',#1190);
#1017=PLANE('',#1191);
#1018=PLANE('',#1192);
#1019=PLANE('',#1193);
#1020=PLANE('',#1194);
#1021=PLANE('',#1195);
#1022=PLANE('',#1196);
#1023=ADVANCED_FACE('',(#101),#983,.F.);
#1024=ADVANCED_FACE('',(#102),#984,.F.);
#1025=ADVANCED_FACE('',(#103),#985,.F.);
#1026=ADVANCED_FACE('',(#104),#986,.F.);
#1027=ADVANCED_FACE('',(#105),#987,.F.);
#1028=ADVANCED_FACE('',(#106),#988,.F.);
#1029=ADVANCED_FACE('',(#107),#989,.F.);
#1030=ADVANCED_FACE('',(#108),#990,.F.);
#1031=ADVANCED_FACE('',(#109),#991,.F.);
#1032=ADVANCED_FACE('',(#110),#992,.F.);
#1033=ADVANCED_FACE('',(#111),#993,.F.);
#1034=ADVANCED_FACE('',(#112),#994,.F.);
#1035=ADVANCED_FACE('',(#113),#995,.F.);
#1036=ADVANCED_FACE('',(#114),#996,.F.);
#1037=ADVANCED_FACE('',(#115),#997,.F.);
#1038=ADVANCED_FACE('',(#116),#998,.F.);
#1039=ADVANCED_FACE('',(#117,#35),#999,.F.);
#1040=ADVANCED_FACE('',(#118),#15,.F.);
#1041=ADVANCED_FACE('',(#119),#16,.F.);
#1042=ADVANCED_FACE('',(#120,#36),#1000,.F.);
#1043=ADVANCED_FACE('',(#121),#17,.F.);
#1044=ADVANCED_FACE('',(#122),#18,.F.);
#1045=ADVANCED_FACE('',(#123,#37),#1001,.F.);
#1046=ADVANCED_FACE('',(#124),#19,.F.);
#1047=ADVANCED_FACE('',(#125),#20,.F.);
#1048=ADVANCED_FACE('',(#126,#38),#1002,.F.);
#1049=ADVANCED_FACE('',(#127),#21,.F.);
#1050=ADVANCED_FACE('',(#128),#22,.F.);
#1051=ADVANCED_FACE('',(#129),#23,.T.);
#1052=ADVANCED_FACE('',(#130),#1003,.F.);
#1053=ADVANCED_FACE('',(#131,#39),#1004,.F.);
#1054=ADVANCED_FACE('',(#132),#24,.T.);
#1055=ADVANCED_FACE('',(#133),#1005,.T.);
#1056=ADVANCED_FACE('',(#134,#40),#1006,.F.);
#1057=ADVANCED_FACE('',(#135),#25,.T.);
#1058=ADVANCED_FACE('',(#136),#1007,.F.);
#1059=ADVANCED_FACE('',(#137),#26,.T.);
#1060=ADVANCED_FACE('',(#138),#1008,.T.);
#1061=ADVANCED_FACE('',(#139),#27,.T.);
#1062=ADVANCED_FACE('',(#140,#41),#1009,.T.);
#1063=ADVANCED_FACE('',(#141),#28,.T.);
#1064=ADVANCED_FACE('',(#142),#1010,.F.);
#1065=ADVANCED_FACE('',(#143),#29,.T.);
#1066=ADVANCED_FACE('',(#144),#30,.T.);
#1067=ADVANCED_FACE('',(#145,#42,#43,#44),#1011,.T.);
#1068=ADVANCED_FACE('',(#146),#31,.T.);
#1069=ADVANCED_FACE('',(#147,#45),#1012,.T.);
#1070=ADVANCED_FACE('',(#148),#32,.T.);
#1071=ADVANCED_FACE('',(#149,#46),#1013,.T.);
#1072=ADVANCED_FACE('',(#150),#33,.T.);
#1073=ADVANCED_FACE('',(#151,#47),#1014,.T.);
#1074=ADVANCED_FACE('',(#152),#34,.T.);
#1075=ADVANCED_FACE('',(#153,#48),#1015,.T.);
#1076=ADVANCED_FACE('',(#154),#1016,.F.);
#1077=ADVANCED_FACE('',(#155),#1017,.F.);
#1078=ADVANCED_FACE('',(#156,#49,#50,#51),#1018,.F.);
#1079=ADVANCED_FACE('',(#157,#52),#1019,.F.);
#1080=ADVANCED_FACE('',(#158),#1020,.F.);
#1081=ADVANCED_FACE('',(#159,#53,#54,#55,#56),#1021,.F.);
#1082=ADVANCED_FACE('',(#160,#57,#58,#59,#60),#1022,.T.);
#1083=CLOSED_SHELL('',(#1023,#1024,#1025,#1026,#1027,#1028,#1029,#1030,
#1031,#1032,#1033,#1034,#1035,#1036,#1037,#1038,#1039,#1040,#1041,#1042,
#1043,#1044,#1045,#1046,#1047,#1048,#1049,#1050,#1051,#1052,#1053,#1054,
#1055,#1056,#1057,#1058,#1059,#1060,#1061,#1062,#1063,#1064,#1065,#1066,
#1067,#1068,#1069,#1070,#1071,#1072,#1073,#1074,#1075,#1076,#1077,#1078,
#1079,#1080,#1081,#1082));
#1084=DERIVED_UNIT_ELEMENT(#1086,1.);
#1085=DERIVED_UNIT_ELEMENT(#1809,-3.);
#1086=(
MASS_UNIT()
NAMED_UNIT(*)
SI_UNIT(.KILO.,.GRAM.)
);
#1087=DERIVED_UNIT((#1084,#1085));
#1088=MEASURE_REPRESENTATION_ITEM('density measure',
POSITIVE_RATIO_MEASURE(7850.),#1087);
#1089=PROPERTY_DEFINITION_REPRESENTATION(#1094,#1091);
#1090=PROPERTY_DEFINITION_REPRESENTATION(#1095,#1092);
#1091=REPRESENTATION('material name',(#1093),#1806);
#1092=REPRESENTATION('density',(#1088),#1806);
#1093=DESCRIPTIVE_REPRESENTATION_ITEM('Stahl','Stahl');
#1094=PROPERTY_DEFINITION('material property','material name',#1816);
#1095=PROPERTY_DEFINITION('material property','density of part',#1816);
#1096=AXIS2_PLACEMENT_3D('',#1503,#1197,#1198);
#1097=AXIS2_PLACEMENT_3D('',#1504,#1199,#1200);
#1098=AXIS2_PLACEMENT_3D('',#1513,#1205,#1206);
#1099=AXIS2_PLACEMENT_3D('',#1519,#1210,#1211);
#1100=AXIS2_PLACEMENT_3D('',#1525,#1215,#1216);
#1101=AXIS2_PLACEMENT_3D('',#1528,#1219,#1220);
#1102=AXIS2_PLACEMENT_3D('',#1537,#1225,#1226);
#1103=AXIS2_PLACEMENT_3D('',#1543,#1230,#1231);
#1104=AXIS2_PLACEMENT_3D('',#1549,#1235,#1236);
#1105=AXIS2_PLACEMENT_3D('',#1552,#1239,#1240);
#1106=AXIS2_PLACEMENT_3D('',#1561,#1245,#1246);
#1107=AXIS2_PLACEMENT_3D('',#1567,#1250,#1251);
#1108=AXIS2_PLACEMENT_3D('',#1573,#1255,#1256);
#1109=AXIS2_PLACEMENT_3D('',#1576,#1259,#1260);
#1110=AXIS2_PLACEMENT_3D('',#1585,#1265,#1266);
#1111=AXIS2_PLACEMENT_3D('',#1591,#1270,#1271);
#1112=AXIS2_PLACEMENT_3D('',#1597,#1275,#1276);
#1113=AXIS2_PLACEMENT_3D('',#1600,#1279,#1280);
#1114=AXIS2_PLACEMENT_3D('',#1602,#1281,#1282);
#1115=AXIS2_PLACEMENT_3D('',#1604,#1283,#1284);
#1116=AXIS2_PLACEMENT_3D('',#1605,#1285,#1286);
#1117=AXIS2_PLACEMENT_3D('',#1607,#1287,#1288);
#1118=AXIS2_PLACEMENT_3D('',#1609,#1290,#1291);
#1119=AXIS2_PLACEMENT_3D('',#1612,#1293,#1294);
#1120=AXIS2_PLACEMENT_3D('',#1613,#1295,#1296);
#1121=AXIS2_PLACEMENT_3D('',#1615,#1297,#1298);
#1122=AXIS2_PLACEMENT_3D('',#1617,#1299,#1300);
#1123=AXIS2_PLACEMENT_3D('',#1618,#1301,#1302);
#1124=AXIS2_PLACEMENT_3D('',#1620,#1303,#1304);
#1125=AXIS2_PLACEMENT_3D('',#1622,#1306,#1307);
#1126=AXIS2_PLACEMENT_3D('',#1625,#1309,#1310);
#1127=AXIS2_PLACEMENT_3D('',#1626,#1311,#1312);
#1128=AXIS2_PLACEMENT_3D('',#1628,#1313,#1314);
#1129=AXIS2_PLACEMENT_3D('',#1630,#1315,#1316);
#1130=AXIS2_PLACEMENT_3D('',#1631,#1317,#1318);
#1131=AXIS2_PLACEMENT_3D('',#1633,#1319,#1320);
#1132=AXIS2_PLACEMENT_3D('',#1635,#1322,#1323);
#1133=AXIS2_PLACEMENT_3D('',#1638,#1325,#1326);
#1134=AXIS2_PLACEMENT_3D('',#1639,#1327,#1328);
#1135=AXIS2_PLACEMENT_3D('',#1641,#1329,#1330);
#1136=AXIS2_PLACEMENT_3D('',#1643,#1331,#1332);
#1137=AXIS2_PLACEMENT_3D('',#1644,#1333,#1334);
#1138=AXIS2_PLACEMENT_3D('',#1646,#1335,#1336);
#1139=AXIS2_PLACEMENT_3D('',#1648,#1338,#1339);
#1140=AXIS2_PLACEMENT_3D('',#1651,#1341,#1342);
#1141=AXIS2_PLACEMENT_3D('',#1652,#1343,#1344);
#1142=AXIS2_PLACEMENT_3D('',#1655,#1345,#1346);
#1143=AXIS2_PLACEMENT_3D('',#1659,#1348,#1349);
#1144=AXIS2_PLACEMENT_3D('',#1661,#1351,#1352);
#1145=AXIS2_PLACEMENT_3D('',#1667,#1356,#1357);
#1146=AXIS2_PLACEMENT_3D('',#1671,#1359,#1360);
#1147=AXIS2_PLACEMENT_3D('',#1675,#1362,#1363);
#1148=AXIS2_PLACEMENT_3D('',#1678,#1365,#1366);
#1149=AXIS2_PLACEMENT_3D('',#1687,#1371,#1372);
#1150=AXIS2_PLACEMENT_3D('',#1690,#1373,#1374);
#1151=AXIS2_PLACEMENT_3D('',#1694,#1376,#1377);
#1152=AXIS2_PLACEMENT_3D('',#1696,#1379,#1380);
#1153=AXIS2_PLACEMENT_3D('',#1702,#1384,#1385);
#1154=AXIS2_PLACEMENT_3D('',#1706,#1387,#1388);
#1155=AXIS2_PLACEMENT_3D('',#1710,#1390,#1391);
#1156=AXIS2_PLACEMENT_3D('',#1713,#1393,#1394);
#1157=AXIS2_PLACEMENT_3D('',#1718,#1396,#1397);
#1158=AXIS2_PLACEMENT_3D('',#1721,#1399,#1400);
#1159=AXIS2_PLACEMENT_3D('',#1724,#1402,#1403);
#1160=AXIS2_PLACEMENT_3D('',#1725,#1404,#1405);
#1161=AXIS2_PLACEMENT_3D('',#1727,#1407,#1408);
#1162=AXIS2_PLACEMENT_3D('',#1729,#1410,#1411);
#1163=AXIS2_PLACEMENT_3D('',#1731,#1412,#1413);
#1164=AXIS2_PLACEMENT_3D('',#1733,#1415,#1416);
#1165=AXIS2_PLACEMENT_3D('',#1737,#1419,#1420);
#1166=AXIS2_PLACEMENT_3D('',#1739,#1421,#1422);
#1167=AXIS2_PLACEMENT_3D('',#1741,#1424,#1425);
#1168=AXIS2_PLACEMENT_3D('',#1745,#1428,#1429);
#1169=AXIS2_PLACEMENT_3D('',#1747,#1431,#1432);
#1170=AXIS2_PLACEMENT_3D('',#1749,#1434,#1435);
#1171=AXIS2_PLACEMENT_3D('',#1751,#1437,#1438);
#1172=AXIS2_PLACEMENT_3D('',#1753,#1439,#1440);
#1173=AXIS2_PLACEMENT_3D('',#1755,#1442,#1443);
#1174=AXIS2_PLACEMENT_3D('',#1757,#1445,#1446);
#1175=AXIS2_PLACEMENT_3D('',#1759,#1447,#1448);
#1176=AXIS2_PLACEMENT_3D('',#1762,#1450,#1451);
#1177=AXIS2_PLACEMENT_3D('',#1763,#1452,#1453);
#1178=AXIS2_PLACEMENT_3D('',#1764,#1454,#1455);
#1179=AXIS2_PLACEMENT_3D('',#1766,#1456,#1457);
#1180=AXIS2_PLACEMENT_3D('',#1769,#1459,#1460);
#1181=AXIS2_PLACEMENT_3D('',#1770,#1461,#1462);
#1182=AXIS2_PLACEMENT_3D('',#1771,#1463,#1464);
#1183=AXIS2_PLACEMENT_3D('',#1773,#1465,#1466);
#1184=AXIS2_PLACEMENT_3D('',#1776,#1468,#1469);
#1185=AXIS2_PLACEMENT_3D('',#1777,#1470,#1471);
#1186=AXIS2_PLACEMENT_3D('',#1778,#1472,#1473);
#1187=AXIS2_PLACEMENT_3D('',#1780,#1474,#1475);
#1188=AXIS2_PLACEMENT_3D('',#1783,#1477,#1478);
#1189=AXIS2_PLACEMENT_3D('',#1784,#1479,#1480);
#1190=AXIS2_PLACEMENT_3D('',#1785,#1481,#1482);
#1191=AXIS2_PLACEMENT_3D('',#1786,#1483,#1484);
#1192=AXIS2_PLACEMENT_3D('',#1792,#1488,#1489);
#1193=AXIS2_PLACEMENT_3D('',#1796,#1492,#1493);
#1194=AXIS2_PLACEMENT_3D('',#1800,#1496,#1497);
#1195=AXIS2_PLACEMENT_3D('',#1802,#1499,#1500);
#1196=AXIS2_PLACEMENT_3D('',#1803,#1501,#1502);
#1197=DIRECTION('axis',(0.,0.,1.));
#1198=DIRECTION('refdir',(1.,0.,0.));
#1199=DIRECTION('center_axis',(0.,1.,0.));
#1200=DIRECTION('ref_axis',(0.,0.,1.));
#1201=DIRECTION('',(0.,0.,-1.));
#1202=DIRECTION('',(1.,0.,0.));
#1203=DIRECTION('',(0.,0.,1.));
#1204=DIRECTION('',(1.,0.,0.));
#1205=DIRECTION('center_axis',(0.,0.,-1.));
#1206=DIRECTION('ref_axis',(0.,1.,0.));
#1207=DIRECTION('',(0.,-1.,0.));
#1208=DIRECTION('',(0.,1.,0.));
#1209=DIRECTION('',(1.,0.,0.));
#1210=DIRECTION('center_axis',(0.,-1.,0.));
#1211=DIRECTION('ref_axis',(0.,0.,-1.));
#1212=DIRECTION('',(0.,0.,1.));
#1213=DIRECTION('',(0.,0.,-1.));
#1214=DIRECTION('',(1.,0.,0.));
#1215=DIRECTION('center_axis',(0.,0.,1.));
#1216=DIRECTION('ref_axis',(0.,-1.,0.));
#1217=DIRECTION('',(0.,1.,0.));
#1218=DIRECTION('',(0.,-1.,0.));
#1219=DIRECTION('center_axis',(-1.,0.,0.));
#1220=DIRECTION('ref_axis',(0.,1.,0.));
#1221=DIRECTION('',(0.,-1.,0.));
#1222=DIRECTION('',(0.,0.,-1.));
#1223=DIRECTION('',(0.,1.,0.));
#1224=DIRECTION('',(0.,0.,-1.));
#1225=DIRECTION('center_axis',(0.,-1.,0.));
#1226=DIRECTION('ref_axis',(-1.,0.,0.));
#1227=DIRECTION('',(1.,0.,0.));
#1228=DIRECTION('',(-1.,0.,0.));
#1229=DIRECTION('',(0.,0.,-1.));
#1230=DIRECTION('center_axis',(1.,0.,0.));
#1231=DIRECTION('ref_axis',(0.,-1.,0.));
#1232=DIRECTION('',(0.,1.,0.));
#1233=DIRECTION('',(0.,-1.,0.));
#1234=DIRECTION('',(0.,0.,-1.));
#1235=DIRECTION('center_axis',(0.,1.,0.));
#1236=DIRECTION('ref_axis',(1.,0.,0.));
#1237=DIRECTION('',(-1.,0.,0.));
#1238=DIRECTION('',(1.,0.,0.));
#1239=DIRECTION('center_axis',(-1.,0.,0.));
#1240=DIRECTION('ref_axis',(0.,1.,0.));
#1241=DIRECTION('',(0.,-1.,0.));
#1242=DIRECTION('',(0.,0.,-1.));
#1243=DIRECTION('',(0.,1.,0.));
#1244=DIRECTION('',(0.,0.,-1.));
#1245=DIRECTION('center_axis',(0.,-1.,0.));
#1246=DIRECTION('ref_axis',(-1.,0.,0.));
#1247=DIRECTION('',(1.,0.,0.));
#1248=DIRECTION('',(-1.,0.,0.));
#1249=DIRECTION('',(0.,0.,-1.));
#1250=DIRECTION('center_axis',(1.,0.,0.));
#1251=DIRECTION('ref_axis',(0.,-1.,0.));
#1252=DIRECTION('',(0.,1.,0.));
#1253=DIRECTION('',(0.,-1.,0.));
#1254=DIRECTION('',(0.,0.,-1.));
#1255=DIRECTION('center_axis',(0.,1.,0.));
#1256=DIRECTION('ref_axis',(1.,0.,0.));
#1257=DIRECTION('',(-1.,0.,0.));
#1258=DIRECTION('',(1.,0.,0.));
#1259=DIRECTION('center_axis',(-1.,0.,0.));
#1260=DIRECTION('ref_axis',(0.,1.,0.));
#1261=DIRECTION('',(0.,-1.,0.));
#1262=DIRECTION('',(0.,0.,-1.));
#1263=DIRECTION('',(0.,1.,0.));
#1264=DIRECTION('',(0.,0.,-1.));
#1265=DIRECTION('center_axis',(0.,-1.,0.));
#1266=DIRECTION('ref_axis',(-1.,0.,0.));
#1267=DIRECTION('',(1.,0.,0.));
#1268=DIRECTION('',(-1.,0.,0.));
#1269=DIRECTION('',(0.,0.,-1.));
#1270=DIRECTION('center_axis',(1.,0.,0.));
#1271=DIRECTION('ref_axis',(0.,-1.,0.));
#1272=DIRECTION('',(0.,1.,0.));
#1273=DIRECTION('',(0.,-1.,0.));
#1274=DIRECTION('',(0.,0.,-1.));
#1275=DIRECTION('center_axis',(0.,1.,0.));
#1276=DIRECTION('ref_axis',(1.,0.,0.));
#1277=DIRECTION('',(-1.,0.,0.));
#1278=DIRECTION('',(1.,0.,0.));
#1279=DIRECTION('center_axis',(0.,-1.,0.));
#1280=DIRECTION('ref_axis',(0.,0.,1.));
#1281=DIRECTION('center_axis',(0.,-1.,0.));
#1282=DIRECTION('ref_axis',(0.,0.,1.));
#1283=DIRECTION('center_axis',(0.,-1.,0.));
#1284=DIRECTION('ref_axis',(0.,0.,1.));
#1285=DIRECTION('center_axis',(0.,-1.,0.));
#1286=DIRECTION('ref_axis',(0.,0.,1.));
#1287=DIRECTION('center_axis',(0.,-1.,0.));
#1288=DIRECTION('ref_axis',(0.,0.,1.));
#1289=DIRECTION('',(0.,-1.,0.));
#1290=DIRECTION('center_axis',(0.,-1.,0.));
#1291=DIRECTION('ref_axis',(0.,0.,1.));
#1292=DIRECTION('',(0.,-1.,0.));
#1293=DIRECTION('center_axis',(0.,1.,0.));
#1294=DIRECTION('ref_axis',(0.,0.,1.));
#1295=DIRECTION('center_axis',(0.,-1.,0.));
#1296=DIRECTION('ref_axis',(0.,0.,1.));
#1297=DIRECTION('center_axis',(0.,-1.,0.));
#1298=DIRECTION('ref_axis',(0.,0.,1.));
#1299=DIRECTION('center_axis',(0.,-1.,0.));
#1300=DIRECTION('ref_axis',(0.,0.,1.));
#1301=DIRECTION('center_axis',(0.,-1.,0.));
#1302=DIRECTION('ref_axis',(0.,0.,1.));
#1303=DIRECTION('center_axis',(0.,-1.,0.));
#1304=DIRECTION('ref_axis',(0.,0.,1.));
#1305=DIRECTION('',(0.,-1.,0.));
#1306=DIRECTION('center_axis',(0.,-1.,0.));
#1307=DIRECTION('ref_axis',(0.,0.,1.));
#1308=DIRECTION('',(0.,-1.,0.));
#1309=DIRECTION('center_axis',(0.,1.,0.));
#1310=DIRECTION('ref_axis',(0.,0.,1.));
#1311=DIRECTION('center_axis',(0.,-1.,0.));
#1312=DIRECTION('ref_axis',(0.,0.,1.));
#1313=DIRECTION('center_axis',(0.,-1.,0.));
#1314=DIRECTION('ref_axis',(0.,0.,1.));
#1315=DIRECTION('center_axis',(0.,-1.,0.));
#1316=DIRECTION('ref_axis',(0.,0.,1.));
#1317=DIRECTION('center_axis',(0.,-1.,0.));
#1318=DIRECTION('ref_axis',(0.,0.,1.));
#1319=DIRECTION('center_axis',(0.,-1.,0.));
#1320=DIRECTION('ref_axis',(0.,0.,1.));
#1321=DIRECTION('',(0.,-1.,0.));
#1322=DIRECTION('center_axis',(0.,-1.,0.));
#1323=DIRECTION('ref_axis',(0.,0.,1.));
#1324=DIRECTION('',(0.,-1.,0.));
#1325=DIRECTION('center_axis',(0.,1.,0.));
#1326=DIRECTION('ref_axis',(0.,0.,1.));
#1327=DIRECTION('center_axis',(0.,-1.,0.));
#1328=DIRECTION('ref_axis',(0.,0.,1.));
#1329=DIRECTION('center_axis',(0.,-1.,0.));
#1330=DIRECTION('ref_axis',(0.,0.,1.));
#1331=DIRECTION('center_axis',(0.,-1.,0.));
#1332=DIRECTION('ref_axis',(0.,0.,1.));
#1333=DIRECTION('center_axis',(0.,-1.,0.));
#1334=DIRECTION('ref_axis',(0.,0.,1.));
#1335=DIRECTION('center_axis',(0.,-1.,0.));
#1336=DIRECTION('ref_axis',(0.,0.,1.));
#1337=DIRECTION('',(0.,-1.,0.));
#1338=DIRECTION('center_axis',(0.,-1.,0.));
#1339=DIRECTION('ref_axis',(0.,0.,1.));
#1340=DIRECTION('',(0.,-1.,0.));
#1341=DIRECTION('center_axis',(0.,1.,0.));
#1342=DIRECTION('ref_axis',(0.,0.,1.));
#1343=DIRECTION('center_axis',(0.,1.,0.));
#1344=DIRECTION('ref_axis',(0.707106781186546,0.,0.707106781186549));
#1345=DIRECTION('center_axis',(0.,1.,0.));
#1346=DIRECTION('ref_axis',(0.707106781186546,0.,0.707106781186549));
#1347=DIRECTION('',(0.,1.,0.));
#1348=DIRECTION('center_axis',(0.,1.,0.));
#1349=DIRECTION('ref_axis',(0.707106781186546,0.,0.707106781186549));
#1350=DIRECTION('',(0.,-1.,0.));
#1351=DIRECTION('center_axis',(-1.,0.,0.));
#1352=DIRECTION('ref_axis',(0.,0.,1.));
#1353=DIRECTION('',(0.,0.,1.));
#1354=DIRECTION('',(0.,-1.,0.));
#1355=DIRECTION('',(0.,0.,1.));
#1356=DIRECTION('center_axis',(0.,1.,0.));
#1357=DIRECTION('ref_axis',(1.,0.,0.));
#1358=DIRECTION('',(-1.,0.,0.));
#1359=DIRECTION('center_axis',(0.,1.,0.));
#1360=DIRECTION('ref_axis',(-0.707106781186546,0.,0.707106781186549));
#1361=DIRECTION('',(0.,0.,-1.));
#1362=DIRECTION('center_axis',(0.,1.,0.));
#1363=DIRECTION('ref_axis',(-0.707106781186546,0.,-0.707106781186549));
#1364=DIRECTION('',(1.,0.,0.));
#1365=DIRECTION('center_axis',(0.,1.,0.));
#1366=DIRECTION('ref_axis',(0.707106781186546,0.,-0.707106781186549));
#1367=DIRECTION('',(0.,0.,-1.));
#1368=DIRECTION('',(-1.,0.,0.));
#1369=DIRECTION('',(0.,0.,1.));
#1370=DIRECTION('',(1.,0.,0.));
#1371=DIRECTION('center_axis',(0.,1.,0.));
#1372=DIRECTION('ref_axis',(0.707106781186546,0.,0.707106781186549));
#1373=DIRECTION('center_axis',(0.,-1.,0.));
#1374=DIRECTION('ref_axis',(0.707106781186546,0.,0.707106781186549));
#1375=DIRECTION('',(0.,-1.,0.));
#1376=DIRECTION('center_axis',(0.,1.,0.));
#1377=DIRECTION('ref_axis',(0.707106781186546,0.,0.707106781186549));
#1378=DIRECTION('',(0.,1.,0.));
#1379=DIRECTION('center_axis',(1.,0.,0.));
#1380=DIRECTION('ref_axis',(0.,0.,-1.));
#1381=DIRECTION('',(0.,0.,-1.));
#1382=DIRECTION('',(0.,-1.,0.));
#1383=DIRECTION('',(0.,0.,-1.));
#1384=DIRECTION('center_axis',(0.,1.,0.));
#1385=DIRECTION('ref_axis',(0.,0.,1.));
#1386=DIRECTION('',(1.,0.,0.));
#1387=DIRECTION('center_axis',(0.,1.,0.));
#1388=DIRECTION('ref_axis',(-0.707106781186546,0.,0.707106781186549));
#1389=DIRECTION('',(0.,0.,1.));
#1390=DIRECTION('center_axis',(0.,1.,0.));
#1391=DIRECTION('ref_axis',(-0.707106781186546,0.,-0.707106781186549));
#1392=DIRECTION('',(-1.,0.,0.));
#1393=DIRECTION('center_axis',(0.,1.,0.));
#1394=DIRECTION('ref_axis',(0.707106781186546,0.,-0.707106781186549));
#1395=DIRECTION('',(0.,0.,-1.));
#1396=DIRECTION('center_axis',(0.,1.,0.));
#1397=DIRECTION('ref_axis',(-0.707106781186546,0.,0.707106781186549));
#1398=DIRECTION('',(-1.,0.,0.));
#1399=DIRECTION('center_axis',(0.,1.,0.));
#1400=DIRECTION('ref_axis',(0.707106781186546,0.,-0.707106781186549));
#1401=DIRECTION('',(1.,0.,0.));
#1402=DIRECTION('center_axis',(0.,1.,0.));
#1403=DIRECTION('ref_axis',(-0.707106781186546,0.,-0.707106781186549));
#1404=DIRECTION('center_axis',(0.,1.,0.));
#1405=DIRECTION('ref_axis',(0.707106781186546,0.,-0.707106781186549));
#1406=DIRECTION('',(0.,1.,0.));
#1407=DIRECTION('center_axis',(0.,0.,1.));
#1408=DIRECTION('ref_axis',(1.,0.,0.));
#1409=DIRECTION('',(0.,-1.,0.));
#1410=DIRECTION('center_axis',(0.,1.,0.));
#1411=DIRECTION('ref_axis',(0.707106781186546,0.,-0.707106781186549));
#1412=DIRECTION('center_axis',(0.,-1.,0.));
#1413=DIRECTION('ref_axis',(0.707106781186546,0.,-0.707106781186549));
#1414=DIRECTION('',(0.,1.,0.));
#1415=DIRECTION('center_axis',(0.,0.,-1.));
#1416=DIRECTION('ref_axis',(-1.,0.,0.));
#1417=DIRECTION('',(0.,-1.,0.));
#1418=DIRECTION('',(-1.,0.,0.));
#1419=DIRECTION('center_axis',(0.,1.,0.));
#1420=DIRECTION('ref_axis',(-0.707106781186546,0.,-0.707106781186549));
#1421=DIRECTION('center_axis',(0.,-1.,0.));
#1422=DIRECTION('ref_axis',(-0.707106781186546,0.,-0.707106781186549));
#1423=DIRECTION('',(0.,1.,0.));
#1424=DIRECTION('center_axis',(-1.,0.,0.));
#1425=DIRECTION('ref_axis',(0.,0.,1.));
#1426=DIRECTION('',(0.,-1.,0.));
#1427=DIRECTION('',(0.,0.,1.));
#1428=DIRECTION('center_axis',(0.,1.,0.));
#1429=DIRECTION('ref_axis',(-0.707106781186546,0.,-0.707106781186549));
#1430=DIRECTION('',(0.,1.,0.));
#1431=DIRECTION('center_axis',(1.,0.,0.));
#1432=DIRECTION('ref_axis',(0.,0.,-1.));
#1433=DIRECTION('',(0.,-1.,0.));
#1434=DIRECTION('center_axis',(0.,1.,0.));
#1435=DIRECTION('ref_axis',(-0.707106781186546,0.,0.707106781186549));
#1436=DIRECTION('',(0.,1.,0.));
#1437=DIRECTION('center_axis',(0.,1.,0.));
#1438=DIRECTION('ref_axis',(-0.707106781186546,0.,0.707106781186549));
#1439=DIRECTION('center_axis',(0.,-1.,0.));
#1440=DIRECTION('ref_axis',(-0.707106781186546,0.,0.707106781186549));
#1441=DIRECTION('',(0.,1.,0.));
#1442=DIRECTION('center_axis',(0.,0.,1.));
#1443=DIRECTION('ref_axis',(1.,0.,0.));
#1444=DIRECTION('',(1.,0.,0.));
#1445=DIRECTION('center_axis',(0.,-1.,0.));
#1446=DIRECTION('ref_axis',(1.,0.,0.));
#1447=DIRECTION('center_axis',(0.,-1.,0.));
#1448=DIRECTION('ref_axis',(1.,0.,0.));
#1449=DIRECTION('',(0.,1.,0.));
#1450=DIRECTION('center_axis',(0.,1.,0.));
#1451=DIRECTION('ref_axis',(1.,0.,0.));
#1452=DIRECTION('center_axis',(0.,-1.,0.));
#1453=DIRECTION('ref_axis',(1.,0.,0.));
#1454=DIRECTION('center_axis',(0.,-1.,0.));
#1455=DIRECTION('ref_axis',(1.,0.,0.));
#1456=DIRECTION('center_axis',(0.,-1.,0.));
#1457=DIRECTION('ref_axis',(1.,0.,0.));
#1458=DIRECTION('',(0.,1.,0.));
#1459=DIRECTION('center_axis',(0.,1.,0.));
#1460=DIRECTION('ref_axis',(1.,0.,0.));
#1461=DIRECTION('center_axis',(0.,-1.,0.));
#1462=DIRECTION('ref_axis',(1.,0.,0.));
#1463=DIRECTION('center_axis',(0.,-1.,0.));
#1464=DIRECTION('ref_axis',(1.,0.,0.));
#1465=DIRECTION('center_axis',(0.,-1.,0.));
#1466=DIRECTION('ref_axis',(1.,0.,0.));
#1467=DIRECTION('',(0.,1.,0.));
#1468=DIRECTION('center_axis',(0.,1.,0.));
#1469=DIRECTION('ref_axis',(1.,0.,0.));
#1470=DIRECTION('center_axis',(0.,-1.,0.));
#1471=DIRECTION('ref_axis',(1.,0.,0.));
#1472=DIRECTION('center_axis',(0.,-1.,0.));
#1473=DIRECTION('ref_axis',(1.,0.,0.));
#1474=DIRECTION('center_axis',(0.,-1.,0.));
#1475=DIRECTION('ref_axis',(1.,0.,0.));
#1476=DIRECTION('',(0.,1.,0.));
#1477=DIRECTION('center_axis',(0.,1.,0.));
#1478=DIRECTION('ref_axis',(1.,0.,0.));
#1479=DIRECTION('center_axis',(0.,-1.,0.));
#1480=DIRECTION('ref_axis',(1.,0.,0.));
#1481=DIRECTION('center_axis',(0.,0.,-1.));
#1482=DIRECTION('ref_axis',(-1.,0.,0.));
#1483=DIRECTION('center_axis',(1.,0.,0.));
#1484=DIRECTION('ref_axis',(0.,0.,-1.));
#1485=DIRECTION('',(0.,1.,0.));
#1486=DIRECTION('',(0.,0.,-1.));
#1487=DIRECTION('',(0.,1.,0.));
#1488=DIRECTION('center_axis',(0.,0.,1.));
#1489=DIRECTION('ref_axis',(1.,0.,0.));
#1490=DIRECTION('',(0.,1.,0.));
#1491=DIRECTION('',(1.,0.,0.));
#1492=DIRECTION('center_axis',(-1.,0.,0.));
#1493=DIRECTION('ref_axis',(0.,0.,1.));
#1494=DIRECTION('',(0.,1.,0.));
#1495=DIRECTION('',(0.,0.,1.));
#1496=DIRECTION('center_axis',(0.,0.,-1.));
#1497=DIRECTION('ref_axis',(-1.,0.,0.));
#1498=DIRECTION('',(-1.,0.,0.));
#1499=DIRECTION('center_axis',(0.,1.,0.));
#1500=DIRECTION('ref_axis',(0.,0.,1.));
#1501=DIRECTION('center_axis',(0.,1.,0.));
#1502=DIRECTION('ref_axis',(0.,0.,1.));
#1503=CARTESIAN_POINT('',(0.,0.,0.));
#1504=CARTESIAN_POINT('Origin',(-57.,13.5,-3.5));
#1505=CARTESIAN_POINT('',(-52.,13.5,6.));
#1506=CARTESIAN_POINT('',(-52.,13.5,-3.5));
#1507=CARTESIAN_POINT('',(-52.,13.5,-16.));
#1508=CARTESIAN_POINT('',(-57.,13.5,6.));
#1509=CARTESIAN_POINT('',(-57.,13.5,6.));
#1510=CARTESIAN_POINT('',(-57.,13.5,-3.5));
#1511=CARTESIAN_POINT('',(-57.,13.5,-17.5));
#1512=CARTESIAN_POINT('',(-57.,13.5,-3.5));
#1513=CARTESIAN_POINT('Origin',(-57.,9.5,-3.5));
#1514=CARTESIAN_POINT('',(-52.,9.5,-3.5));
#1515=CARTESIAN_POINT('',(-52.,4.75,-3.5));
#1516=CARTESIAN_POINT('',(-57.,9.5,-3.5));
#1517=CARTESIAN_POINT('',(-57.,4.75,-3.5));
#1518=CARTESIAN_POINT('',(-57.,9.5,-3.5));
#1519=CARTESIAN_POINT('Origin',(-57.,9.5,6.));
#1520=CARTESIAN_POINT('',(-52.,9.5,6.));
#1521=CARTESIAN_POINT('',(-52.,9.5,-11.25));
#1522=CARTESIAN_POINT('',(-57.,9.5,6.));
#1523=CARTESIAN_POINT('',(-57.,9.5,-12.75));
#1524=CARTESIAN_POINT('',(-57.,9.5,6.));
#1525=CARTESIAN_POINT('Origin',(-57.,13.5,6.));
#1526=CARTESIAN_POINT('',(-52.,6.75,6.));
#1527=CARTESIAN_POINT('',(-57.,6.75,6.));
#1528=CARTESIAN_POINT('Origin',(-38.,8.75,31.5));
#1529=CARTESIAN_POINT('',(-38.,22.75,28.5));
#1530=CARTESIAN_POINT('',(-38.,8.75,28.5));
#1531=CARTESIAN_POINT('',(-38.,4.375,28.5));
#1532=CARTESIAN_POINT('',(-38.,22.75,31.5));
#1533=CARTESIAN_POINT('',(-38.,22.75,31.5));
#1534=CARTESIAN_POINT('',(-38.,8.75,31.5));
#1535=CARTESIAN_POINT('',(-38.,4.375,31.5));
#1536=CARTESIAN_POINT('',(-38.,8.75,31.5));
#1537=CARTESIAN_POINT('Origin',(-24.,8.75,31.5));
#1538=CARTESIAN_POINT('',(-24.,8.75,28.5));
#1539=CARTESIAN_POINT('',(-38.,8.75,28.5));
#1540=CARTESIAN_POINT('',(-24.,8.75,31.5));
#1541=CARTESIAN_POINT('',(-40.5,8.75,31.5));
#1542=CARTESIAN_POINT('',(-24.,8.75,31.5));
#1543=CARTESIAN_POINT('Origin',(-24.,22.75,31.5));
#1544=CARTESIAN_POINT('',(-24.,22.75,28.5));
#1545=CARTESIAN_POINT('',(-24.,11.375,28.5));
#1546=CARTESIAN_POINT('',(-24.,22.75,31.5));
#1547=CARTESIAN_POINT('',(-24.,11.375,31.5));
#1548=CARTESIAN_POINT('',(-24.,22.75,31.5));
#1549=CARTESIAN_POINT('Origin',(-38.,22.75,31.5));
#1550=CARTESIAN_POINT('',(-45.,22.75,28.5));
#1551=CARTESIAN_POINT('',(-47.5,22.75,31.5));
#1552=CARTESIAN_POINT('Origin',(-6.99999999999999,8.75,31.5));
#1553=CARTESIAN_POINT('',(-6.99999999999999,22.75,28.5));
#1554=CARTESIAN_POINT('',(-6.99999999999999,8.75,28.5));
#1555=CARTESIAN_POINT('',(-6.99999999999999,4.375,28.5));
#1556=CARTESIAN_POINT('',(-6.99999999999999,22.75,31.5));
#1557=CARTESIAN_POINT('',(-6.99999999999999,22.75,31.5));
#1558=CARTESIAN_POINT('',(-6.99999999999999,8.75,31.5));
#1559=CARTESIAN_POINT('',(-6.99999999999999,4.375,31.5));
#1560=CARTESIAN_POINT('',(-6.99999999999999,8.75,31.5));
#1561=CARTESIAN_POINT('Origin',(7.00000000000001,8.75,31.5));
#1562=CARTESIAN_POINT('',(7.00000000000001,8.75,28.5));
#1563=CARTESIAN_POINT('',(-22.5,8.75,28.5));
#1564=CARTESIAN_POINT('',(7.00000000000001,8.75,31.5));
#1565=CARTESIAN_POINT('',(-25.,8.75,31.5));
#1566=CARTESIAN_POINT('',(7.00000000000001,8.75,31.5));
#1567=CARTESIAN_POINT('Origin',(7.00000000000001,22.75,31.5));
#1568=CARTESIAN_POINT('',(7.00000000000001,22.75,28.5));
#1569=CARTESIAN_POINT('',(7.00000000000001,11.375,28.5));
#1570=CARTESIAN_POINT('',(7.00000000000001,22.75,31.5));
#1571=CARTESIAN_POINT('',(7.00000000000001,11.375,31.5));
#1572=CARTESIAN_POINT('',(7.00000000000001,22.75,31.5));
#1573=CARTESIAN_POINT('Origin',(-6.99999999999999,22.75,31.5));
#1574=CARTESIAN_POINT('',(-29.5,22.75,28.5));
#1575=CARTESIAN_POINT('',(-32.,22.75,31.5));
#1576=CARTESIAN_POINT('Origin',(24.,8.75,31.5));
#1577=CARTESIAN_POINT('',(24.,22.75,28.5));
#1578=CARTESIAN_POINT('',(24.,8.75,28.5));
#1579=CARTESIAN_POINT('',(24.,4.375,28.5));
#1580=CARTESIAN_POINT('',(24.,22.75,31.5));
#1581=CARTESIAN_POINT('',(24.,22.75,31.5));
#1582=CARTESIAN_POINT('',(24.,8.75,31.5));
#1583=CARTESIAN_POINT('',(24.,4.375,31.5));
#1584=CARTESIAN_POINT('',(24.,8.75,31.5));
#1585=CARTESIAN_POINT('Origin',(38.,8.75,31.5));
#1586=CARTESIAN_POINT('',(38.,8.75,28.5));
#1587=CARTESIAN_POINT('',(-7.,8.75,28.5));
#1588=CARTESIAN_POINT('',(38.,8.75,31.5));
#1589=CARTESIAN_POINT('',(-9.5,8.75,31.5));
#1590=CARTESIAN_POINT('',(38.,8.75,31.5));
#1591=CARTESIAN_POINT('Origin',(38.,22.75,31.5));
#1592=CARTESIAN_POINT('',(38.,22.75,28.5));
#1593=CARTESIAN_POINT('',(38.,11.375,28.5));
#1594=CARTESIAN_POINT('',(38.,22.75,31.5));
#1595=CARTESIAN_POINT('',(38.,11.375,31.5));
#1596=CARTESIAN_POINT('',(38.,22.75,31.5));
#1597=CARTESIAN_POINT('Origin',(24.,22.75,31.5));
#1598=CARTESIAN_POINT('',(-14.,22.75,28.5));
#1599=CARTESIAN_POINT('',(-16.5,22.75,31.5));
#1600=CARTESIAN_POINT('Origin',(-47.5,16.5,-22.5));
#1601=CARTESIAN_POINT('',(-47.5,16.5,-24.65));
#1602=CARTESIAN_POINT('Origin',(-47.5,16.5,-22.5));
#1603=CARTESIAN_POINT('',(-47.5,16.5,-23.65));
#1604=CARTESIAN_POINT('Origin',(-47.5,16.5,-22.5));
#1605=CARTESIAN_POINT('Origin',(-47.5,23.25,-22.5));
#1606=CARTESIAN_POINT('',(-47.5,30.,-24.65));
#1607=CARTESIAN_POINT('Origin',(-47.5,30.,-22.5));
#1608=CARTESIAN_POINT('',(-47.5,23.25,-24.65));
#1609=CARTESIAN_POINT('Origin',(-47.5,21.75,-22.5));
#1610=CARTESIAN_POINT('',(-47.5,15.1,-23.65));
#1611=CARTESIAN_POINT('',(-47.5,21.75,-23.65));
#1612=CARTESIAN_POINT('Origin',(-47.5,15.1,-22.5));
#1613=CARTESIAN_POINT('Origin',(47.5,16.5,22.5));
#1614=CARTESIAN_POINT('',(47.5,16.5,20.35));
#1615=CARTESIAN_POINT('Origin',(47.5,16.5,22.5));
#1616=CARTESIAN_POINT('',(47.5,16.5,21.35));
#1617=CARTESIAN_POINT('Origin',(47.5,16.5,22.5));
#1618=CARTESIAN_POINT('Origin',(47.5,23.25,22.5));
#1619=CARTESIAN_POINT('',(47.5,30.,20.35));
#1620=CARTESIAN_POINT('Origin',(47.5,30.,22.5));
#1621=CARTESIAN_POINT('',(47.5,23.25,20.35));
#1622=CARTESIAN_POINT('Origin',(47.5,21.75,22.5));
#1623=CARTESIAN_POINT('',(47.5,15.1,21.35));
#1624=CARTESIAN_POINT('',(47.5,21.75,21.35));
#1625=CARTESIAN_POINT('Origin',(47.5,15.1,22.5));
#1626=CARTESIAN_POINT('Origin',(-47.5,16.5,22.5));
#1627=CARTESIAN_POINT('',(-47.5,16.5,20.35));
#1628=CARTESIAN_POINT('Origin',(-47.5,16.5,22.5));
#1629=CARTESIAN_POINT('',(-47.5,16.5,21.35));
#1630=CARTESIAN_POINT('Origin',(-47.5,16.5,22.5));
#1631=CARTESIAN_POINT('Origin',(-47.5,23.25,22.5));
#1632=CARTESIAN_POINT('',(-47.5,30.,20.35));
#1633=CARTESIAN_POINT('Origin',(-47.5,30.,22.5));
#1634=CARTESIAN_POINT('',(-47.5,23.25,20.35));
#1635=CARTESIAN_POINT('Origin',(-47.5,21.75,22.5));
#1636=CARTESIAN_POINT('',(-47.5,15.1,21.35));
#1637=CARTESIAN_POINT('',(-47.5,21.75,21.35));
#1638=CARTESIAN_POINT('Origin',(-47.5,15.1,22.5));
#1639=CARTESIAN_POINT('Origin',(47.5,16.5,-22.5));
#1640=CARTESIAN_POINT('',(47.5,16.5,-24.65));
#1641=CARTESIAN_POINT('Origin',(47.5,16.5,-22.5));
#1642=CARTESIAN_POINT('',(47.5,16.5,-23.65));
#1643=CARTESIAN_POINT('Origin',(47.5,16.5,-22.5));
#1644=CARTESIAN_POINT('Origin',(47.5,23.25,-22.5));
#1645=CARTESIAN_POINT('',(47.5,30.,-24.65));
#1646=CARTESIAN_POINT('Origin',(47.5,30.,-22.5));
#1647=CARTESIAN_POINT('',(47.5,23.25,-24.65));
#1648=CARTESIAN_POINT('Origin',(47.5,21.75,-22.5));
#1649=CARTESIAN_POINT('',(47.5,15.1,-23.65));
#1650=CARTESIAN_POINT('',(47.5,21.75,-23.65));
#1651=CARTESIAN_POINT('Origin',(47.5,15.1,-22.5));
#1652=CARTESIAN_POINT('Origin',(52.5,0.,28.));
#1653=CARTESIAN_POINT('',(52.5,0.,30.));
#1654=CARTESIAN_POINT('',(54.5,0.,28.));
#1655=CARTESIAN_POINT('Origin',(52.5,0.,28.));
#1656=CARTESIAN_POINT('',(54.5,1.5,28.));
#1657=CARTESIAN_POINT('',(54.5,0.,28.));
#1658=CARTESIAN_POINT('',(52.5,1.5,30.));
#1659=CARTESIAN_POINT('Origin',(52.5,1.5,28.));
#1660=CARTESIAN_POINT('',(52.5,0.,30.));
#1661=CARTESIAN_POINT('Origin',(54.5,0.,-30.));
#1662=CARTESIAN_POINT('',(54.5,0.,-28.));
#1663=CARTESIAN_POINT('',(54.5,0.,-15.));
#1664=CARTESIAN_POINT('',(54.5,1.5,-28.));
#1665=CARTESIAN_POINT('',(54.5,0.,-28.));
#1666=CARTESIAN_POINT('',(54.5,1.5,30.));
#1667=CARTESIAN_POINT('Origin',(0.,0.,0.));
#1668=CARTESIAN_POINT('',(-52.5,0.,30.));
#1669=CARTESIAN_POINT('',(27.25,0.,30.));
#1670=CARTESIAN_POINT('',(-54.5,0.,28.));
#1671=CARTESIAN_POINT('Origin',(-52.5,0.,28.));
#1672=CARTESIAN_POINT('',(-54.5,0.,-28.));
#1673=CARTESIAN_POINT('',(-54.5,0.,15.));
#1674=CARTESIAN_POINT('',(-52.5,0.,-30.));
#1675=CARTESIAN_POINT('Origin',(-52.5,0.,-28.));
#1676=CARTESIAN_POINT('',(52.5,0.,-30.));
#1677=CARTESIAN_POINT('',(-27.25,0.,-30.));
#1678=CARTESIAN_POINT('Origin',(52.5,0.,-28.));
#1679=CARTESIAN_POINT('',(52.,0.,28.5));
#1680=CARTESIAN_POINT('',(52.,0.,-28.5));
#1681=CARTESIAN_POINT('',(52.,0.,14.25));
#1682=CARTESIAN_POINT('',(-52.,0.,-28.5));
#1683=CARTESIAN_POINT('',(26.,0.,-28.5));
#1684=CARTESIAN_POINT('',(-52.,0.,28.5));
#1685=CARTESIAN_POINT('',(-52.,0.,-14.25));
#1686=CARTESIAN_POINT('',(-26.,0.,28.5));
#1687=CARTESIAN_POINT('Origin',(55.,0.,29.5));
#1688=CARTESIAN_POINT('',(57.,30.,29.5));
#1689=CARTESIAN_POINT('',(55.,30.,31.5));
#1690=CARTESIAN_POINT('Origin',(55.,30.,29.5));
#1691=CARTESIAN_POINT('',(55.,1.5,31.5));
#1692=CARTESIAN_POINT('',(55.,0.,31.5));
#1693=CARTESIAN_POINT('',(57.,1.5,29.5));
#1694=CARTESIAN_POINT('Origin',(55.,1.5,29.5));
#1695=CARTESIAN_POINT('',(57.,0.,29.5));
#1696=CARTESIAN_POINT('Origin',(57.,0.,31.5));
#1697=CARTESIAN_POINT('',(57.,1.5,-29.5));
#1698=CARTESIAN_POINT('',(57.,1.5,15.75));
#1699=CARTESIAN_POINT('',(57.,30.,-29.5));
#1700=CARTESIAN_POINT('',(57.,0.,-29.5));
#1701=CARTESIAN_POINT('',(57.,30.,-31.5));
#1702=CARTESIAN_POINT('Origin',(0.,1.5,0.));
#1703=CARTESIAN_POINT('',(-55.,1.5,31.5));
#1704=CARTESIAN_POINT('',(-28.5,1.5,31.5));
#1705=CARTESIAN_POINT('',(-57.,1.5,29.5));
#1706=CARTESIAN_POINT('Origin',(-55.,1.5,29.5));
#1707=CARTESIAN_POINT('',(-57.,1.5,-29.5));
#1708=CARTESIAN_POINT('',(-57.,1.5,-15.75));
#1709=CARTESIAN_POINT('',(-55.,1.5,-31.5));
#1710=CARTESIAN_POINT('Origin',(-55.,1.5,-29.5));
#1711=CARTESIAN_POINT('',(55.,1.5,-31.5));
#1712=CARTESIAN_POINT('',(28.5,1.5,-31.5));
#1713=CARTESIAN_POINT('Origin',(55.,1.5,-29.5));
#1714=CARTESIAN_POINT('',(-54.5,1.5,28.));
#1715=CARTESIAN_POINT('',(-54.5,1.5,-28.));
#1716=CARTESIAN_POINT('',(-54.5,1.5,-30.));
#1717=CARTESIAN_POINT('',(-52.5,1.5,30.));
#1718=CARTESIAN_POINT('Origin',(-52.5,1.5,28.));
#1719=CARTESIAN_POINT('',(-54.5,1.5,30.));
#1720=CARTESIAN_POINT('',(52.5,1.5,-30.));
#1721=CARTESIAN_POINT('Origin',(52.5,1.5,-28.));
#1722=CARTESIAN_POINT('',(-52.5,1.5,-30.));
#1723=CARTESIAN_POINT('',(54.5,1.5,-30.));
#1724=CARTESIAN_POINT('Origin',(-52.5,1.5,-28.));
#1725=CARTESIAN_POINT('Origin',(52.5,0.,-28.));
#1726=CARTESIAN_POINT('',(52.5,0.,-30.));
#1727=CARTESIAN_POINT('Origin',(-54.5,0.,-30.));
#1728=CARTESIAN_POINT('',(-52.5,0.,-30.));
#1729=CARTESIAN_POINT('Origin',(55.,0.,-29.5));
#1730=CARTESIAN_POINT('',(55.,30.,-31.5));
#1731=CARTESIAN_POINT('Origin',(55.,30.,-29.5));
#1732=CARTESIAN_POINT('',(55.,0.,-31.5));
#1733=CARTESIAN_POINT('Origin',(57.,0.,-31.5));
#1734=CARTESIAN_POINT('',(-55.,30.,-31.5));
#1735=CARTESIAN_POINT('',(-55.,0.,-31.5));
#1736=CARTESIAN_POINT('',(-57.,30.,-31.5));
#1737=CARTESIAN_POINT('Origin',(-55.,0.,-29.5));
#1738=CARTESIAN_POINT('',(-57.,30.,-29.5));
#1739=CARTESIAN_POINT('Origin',(-55.,30.,-29.5));
#1740=CARTESIAN_POINT('',(-57.,0.,-29.5));
#1741=CARTESIAN_POINT('Origin',(-57.,0.,-31.5));
#1742=CARTESIAN_POINT('',(-57.,30.,29.5));
#1743=CARTESIAN_POINT('',(-57.,0.,29.5));
#1744=CARTESIAN_POINT('',(-57.,30.,31.5));
#1745=CARTESIAN_POINT('Origin',(-52.5,0.,-28.));
#1746=CARTESIAN_POINT('',(-54.5,0.,-28.));
#1747=CARTESIAN_POINT('Origin',(-54.5,0.,30.));
#1748=CARTESIAN_POINT('',(-54.5,0.,28.));
#1749=CARTESIAN_POINT('Origin',(-52.5,0.,28.));
#1750=CARTESIAN_POINT('',(-52.5,0.,30.));
#1751=CARTESIAN_POINT('Origin',(-55.,0.,29.5));
#1752=CARTESIAN_POINT('',(-55.,30.,31.5));
#1753=CARTESIAN_POINT('Origin',(-55.,30.,29.5));
#1754=CARTESIAN_POINT('',(-55.,0.,31.5));
#1755=CARTESIAN_POINT('Origin',(-57.,0.,31.5));
#1756=CARTESIAN_POINT('',(57.,30.,31.5));
#1757=CARTESIAN_POINT('Origin',(-47.5,27.,-22.5));
#1758=CARTESIAN_POINT('',(-50.,15.1,-22.5));
#1759=CARTESIAN_POINT('Origin',(-47.5,15.1,-22.5));
#1760=CARTESIAN_POINT('',(-50.,27.,-22.5));
#1761=CARTESIAN_POINT('',(-50.,27.,-22.5));
#1762=CARTESIAN_POINT('Origin',(-47.5,27.,-22.5));
#1763=CARTESIAN_POINT('Origin',(-47.5,15.1,-22.5));
#1764=CARTESIAN_POINT('Origin',(-47.5,27.,22.5));
#1765=CARTESIAN_POINT('',(-50.,15.1,22.5));
#1766=CARTESIAN_POINT('Origin',(-47.5,15.1,22.5));
#1767=CARTESIAN_POINT('',(-50.,27.,22.5));
#1768=CARTESIAN_POINT('',(-50.,27.,22.5));
#1769=CARTESIAN_POINT('Origin',(-47.5,27.,22.5));
#1770=CARTESIAN_POINT('Origin',(-47.5,15.1,22.5));
#1771=CARTESIAN_POINT('Origin',(47.5,27.,-22.5));
#1772=CARTESIAN_POINT('',(45.,15.1,-22.5));
#1773=CARTESIAN_POINT('Origin',(47.5,15.1,-22.5));
#1774=CARTESIAN_POINT('',(45.,27.,-22.5));
#1775=CARTESIAN_POINT('',(45.,27.,-22.5));
#1776=CARTESIAN_POINT('Origin',(47.5,27.,-22.5));
#1777=CARTESIAN_POINT('Origin',(47.5,15.1,-22.5));
#1778=CARTESIAN_POINT('Origin',(47.5,27.,22.5));
#1779=CARTESIAN_POINT('',(45.,15.1,22.5));
#1780=CARTESIAN_POINT('Origin',(47.5,15.1,22.5));
#1781=CARTESIAN_POINT('',(45.,27.,22.5));
#1782=CARTESIAN_POINT('',(45.,27.,22.5));
#1783=CARTESIAN_POINT('Origin',(47.5,27.,22.5));
#1784=CARTESIAN_POINT('Origin',(47.5,15.1,22.5));
#1785=CARTESIAN_POINT('Origin',(54.5,0.,30.));
#1786=CARTESIAN_POINT('Origin',(52.,0.,28.5));
#1787=CARTESIAN_POINT('',(52.,27.,28.5));
#1788=CARTESIAN_POINT('',(52.,0.,28.5));
#1789=CARTESIAN_POINT('',(52.,27.,-28.5));
#1790=CARTESIAN_POINT('',(52.,27.,28.5));
#1791=CARTESIAN_POINT('',(52.,0.,-28.5));
#1792=CARTESIAN_POINT('Origin',(-52.,0.,28.5));
#1793=CARTESIAN_POINT('',(-52.,27.,28.5));
#1794=CARTESIAN_POINT('',(-52.,0.,28.5));
#1795=CARTESIAN_POINT('',(-52.,27.,28.5));
#1796=CARTESIAN_POINT('Origin',(-52.,0.,-28.5));
#1797=CARTESIAN_POINT('',(-52.,27.,-28.5));
#1798=CARTESIAN_POINT('',(-52.,0.,-28.5));
#1799=CARTESIAN_POINT('',(-52.,27.,-28.5));
#1800=CARTESIAN_POINT('Origin',(52.,0.,-28.5));
#1801=CARTESIAN_POINT('',(52.,27.,-28.5));
#1802=CARTESIAN_POINT('Origin',(0.,27.,0.));
#1803=CARTESIAN_POINT('Origin',(0.,30.,0.));
#1804=UNCERTAINTY_MEASURE_WITH_UNIT(LENGTH_MEASURE(0.01),#1808,
'DISTANCE_ACCURACY_VALUE',
'Maximum model space distance between geometric entities at asserted c
onnectivities');
#1805=UNCERTAINTY_MEASURE_WITH_UNIT(LENGTH_MEASURE(0.01),#1808,
'DISTANCE_ACCURACY_VALUE',
'Maximum model space distance between geometric entities at asserted c
onnectivities');
#1806=(
GEOMETRIC_REPRESENTATION_CONTEXT(3)
GLOBAL_UNCERTAINTY_ASSIGNED_CONTEXT((#1804))
GLOBAL_UNIT_ASSIGNED_CONTEXT((#1808,#1810,#1811))
REPRESENTATION_CONTEXT('','3D')
);
#1807=(
GEOMETRIC_REPRESENTATION_CONTEXT(3)
GLOBAL_UNCERTAINTY_ASSIGNED_CONTEXT((#1805))
GLOBAL_UNIT_ASSIGNED_CONTEXT((#1808,#1810,#1811))
REPRESENTATION_CONTEXT('','3D')
);
#1808=(
LENGTH_UNIT()
NAMED_UNIT(*)
SI_UNIT(.MILLI.,.METRE.)
);
#1809=(
LENGTH_UNIT()
NAMED_UNIT(*)
SI_UNIT($,.METRE.)
);
#1810=(
NAMED_UNIT(*)
PLANE_ANGLE_UNIT()
SI_UNIT($,.RADIAN.)
);
#1811=(
NAMED_UNIT(*)
SI_UNIT($,.STERADIAN.)
SOLID_ANGLE_UNIT()
);
#1812=SHAPE_DEFINITION_REPRESENTATION(#1813,#1814);
#1813=PRODUCT_DEFINITION_SHAPE('',$,#1816);
#1814=SHAPE_REPRESENTATION('',(#1096),#1806);
#1815=PRODUCT_DEFINITION_CONTEXT('part definition',#1820,'design');
#1816=PRODUCT_DEFINITION('2026-04-11-20-32-26-952',
'Wecker Case Hinten redesign',#1817,#1815);
#1817=PRODUCT_DEFINITION_FORMATION('',$,#1822);
#1818=PRODUCT_RELATED_PRODUCT_CATEGORY('Wecker Case Hinten redesign',
'Wecker Case Hinten redesign',(#1822));
#1819=APPLICATION_PROTOCOL_DEFINITION('international standard',
'automotive_design',2009,#1820);
#1820=APPLICATION_CONTEXT(
'Core Data for Automotive Mechanical Design Process');
#1821=PRODUCT_CONTEXT('part definition',#1820,'mechanical');
#1822=PRODUCT('2026-04-11-20-32-26-952','Wecker Case Hinten redesign',$,
(#1821));
#1823=PRESENTATION_STYLE_ASSIGNMENT((#1824));
#1824=SURFACE_STYLE_USAGE(.BOTH.,#1825);
#1825=SURFACE_SIDE_STYLE('',(#1826));
#1826=SURFACE_STYLE_FILL_AREA(#1827);
#1827=FILL_AREA_STYLE('Stahl - satiniert',(#1828));
#1828=FILL_AREA_STYLE_COLOUR('Stahl - satiniert',#1829);
#1829=COLOUR_RGB('Stahl - satiniert',0.627450980392157,0.627450980392157,
0.627450980392157);
ENDSEC;
END-ISO-10303-21;
